<?xml version="1.0" encoding="utf-8"?>
<!-- Generator: Adobe Illustrator 21.1.0, SVG Export Plug-In . SVG Version: 6.00 Build 0)  -->
<svg version="1.1" id="Layer_1" xmlns="http://www.w3.org/2000/svg" xmlns:xlink="http://www.w3.org/1999/xlink" x="0px" y="0px"
	 viewBox="0 0 432 432" style="enable-background:new 0 0 432 432;" xml:space="preserve">
	 
<style type="text/css">
	.brightred_leaf{fill:rgb(218, 33, 38);}
	.rust_leaf{fill:rgb(142, 11, 14);}
	.purple_leaf{fill:rgb(60, 51, 114);}
	.orange_leaf{fill:rgb(220, 181, 33);}
	.yellow_leaf{fill:rgb(220, 181, 33);}
	.rose_leaf{fill:rgb(237, 86, 90);}
	.green_leaf{fill:rgb(53, 134, 49);}
	.brown_leaf{fill:rgb(143, 115, 11);}
	
	#maple{
        animation-name: rotation;
        animation-duration: 30s;
        animation-iteration-count: infinite;
        transform-origin: 50% 50%;
        width: 80%;
    }

	}

    @keyframes rotation {
        0% {
            transform: rotate(0deg);
        }
        100% {
            transform: rotate(360deg);
        }
    }

</style>

<path id="maple" class="brightred_leaf" d="M227.3,165.3l-0.4-0.2l2.4-3.6h-2.5l-0.5-0.8l-1.1-0.5l-2.3-0.5l2.5-2.2l-0.5-0.3l1.7-1.9l-1.4-0.9l2-2
	l-1.3-0.3l0.5-1.1l-0.5-0.1l-0.1-1.7L222,149l0.1-2.7l-1,0.2l0.1-2.8h-1.4l-1.6-1.7l0.3-2l-1.4-0.5l-0.2-1.8l-0.3-1.5l-5.4,3
	l-0.7-0.9l-1.8,1.3l-0.6-0.5l-1.4,1.8l-3-1.9l-0.7,1.2l-0.7-2.8l-2.5,0.2l0.2-2h-0.4l-0.2-2.4l-1.5,0.2l-0.3-2l-1.5-0.1l-1.2-2.1
	l-0.7,0.5l-1.9,0.8l-3.6,0.8l-1.4-1.4l0.1-1.4l-1.4,0.4l-0.5-1.8l-0.7,0.3l-1.7-2.3l-2.5,1.1L179,124l-1,0.1l-1-2.1l-1.1,0.2
	l-1.7-1.9c-4.8-9.3-6.7-7.4-6.7-7.4c0.1,0.9-0.2,9.4-0.4,9.8c-0.2,0.5-0.5,0.2-1.1,0.1c-0.7-0.1-0.3,0.5,0.3,0.9s0.4,1.9,0.4,1.9
	h-1.2l1,2.1l-3.4-0.2l0.2,2.1h-0.8l1.2,2H162l0.1,0.6l0.4,1.3l0.1,2l-1.7-0.4l-0.6,0.5l-2.5-0.3l0.2,0.9l-4.4-0.4l1.6,2.1
	c-1.7,1.2,0.1,0.9,0.1,0.9c1.7,1.9,1.1,2.1,1.1,2.1h-1.6l1.4,1.2l0.5,0.8l2,1.9l-2.3,0.4l1.2,1.3l-0.1,1.1l2,1.4l-0.9,0.4l1.1,1.2
	l-1.3-0.1v1.2l-2.8-0.9l-0.3,0.8l-2.7-0.2l-0.5,3.5l-2-0.3l-0.2,0.2h-2c0,0,0,0.5-0.8,0.5s-3-0.2-3-0.2l-0.1,1.2
	c0,0-1.4,0.1-2.9,0.4c-1.5,0.3-9.7-1.2-7.5,0.3c2.3,1.5,4.5,4.3,4.5,4.3l-0.4,1l1.2,0.1l1.6,2l0.6-0.9l1.4,1.7L141,166l4.4,2.1
	l-1.5,1.1l5.4,1.1l-2.7,2.1l2.6,1l-0.3,0.9l2.7,0.4l-0.7,0.9l5.4,0.5l-0.8,1.6l8.9-0.1l-3.4,3.2l0.4,0.8c0,0-3.1,2.6-3.4,2.7
	c-0.3,0.1,7.7,1,7.7,1l0.1,1.1h6.3v1.8l4.7-2.1l0.3,1.2l4.3-2.2c0,2,0.5,2.1,1.4,1.8c0.7-1.8,2.3-0.9,3.3-1c1-0.2,2.7-3.9,2.6-2.4
	c0,1.5,1.4,0.4,1.4,0.4c1.7-5.4,6.2-9.1,6.2-9.1c0.1-0.6,0.3-1.1,0.5-1.5c0.9,1.2,9.4,12.2,24.1,17.9l3,1.9l1-3.4
	c0,0-1.4-0.9-3.7-1.5c0,0-7.8-1.6-16.6-9.5c0,0-3.8-3.8-6.2-6.7c1.4,0,2.8,1.4,2.8,1.4s0,0,1,0.3s4,0.6,4.7,1s3.7,1.2,3.7,1.2
	s0,0,0.3,0s-0.4-1.3,0-1.1s3.2,1.4,3.6,1.7c0.4,0.2,0.5-0.9,0.5-0.9c1.8-1.3,3.1-1.4,3.2-2.4c0.1-1-2-0.8-2-1.4s5.4,0,5.4,0
	l-0.3-0.7l3.3-1.4c0,0,0,0-0.9-0.9C223.5,167.4,227.3,165.3,227.3,165.3z"/>
<path id="maple" class="brightred_leaf" d="M67.7,287.9c0,0-4.2,1.4-1.3,16.7c0,0-0.8,2.8-2.4,0.7c0,0,0,4.5-0.8,5.4c-0.9,0.9-0.8,0.8-1.4,0.1
	c-0.6-0.7-0.2,1.3-3.1,2.3c-3,1-4.2,1.8-4.6,0.3c-0.4-1.5-0.5-3.7-0.8-4.5s-1.7,0.9-2.5,1.2c-0.8,0.3-0.5,0.6-2,1.3
	c-1.5,0.7-2.5,2.3-3.6,1.1c-1.1-1.2-0.7-1.6-1-2.6s-0.6-0.8-2.4-0.9c-1.8-0.2-3.4-2.3-3.2-3s0-0.3,0-0.3s-3.3-0.3-3.4-2
	c-0.1-1.7-3.4-0.1-2.9-3c0.5-2.9,4.5-6.5,6.3-7.1s-0.3-0.2,0.8-1.1s5.8-1.3,5.8-2.8s0.2-1.6-3.5-1.7s-4.3,0.5-6.8-1.4
	c-2.5-2-4.6-2.3-5-3.5s3.3-4.2,4.3-4.4c1-0.3-6.3-3.7-5.4-5.9c1.4-1.5,1.5-1.1,2-1.1c0,0-4.7-3.2-4.8-5.3c0,0-0.9-1.6,1.8-2
	c0,0-3.8-3.2-2.5-5.5c0,0,0.7-0.6,1.5-0.7c0.1,0,0.2,0,0.3,0c2.6,0.1-1.1-2-0.6-2.2c0.5-0.2,1.1-0.3,1.1-0.3s-2.6-4.8-1-8.3
	c0,0,4.1-0.7,7.7,4.6c0,0,0.3-0.5,1.2-0.5s2.6,3,2.9,4.4c0.3,1.4,2.1,1.8,2.1,1.1c0-0.7,1.3,0.6,1.4,2.3c0,0,5.6,6.2,7.6,8.7
	c0,0,3.2,0.3-3.5-6.9c0,0-2.2,0.3-5.5-5.4c0,0-5-4.6-3.5-5.2l0.8-0.5c0,0-3.1-8-2.6-8.6s3.7-1.2,12.7,3.5c0,0,0.3-0.7,0.6-2.5
	s-1.1-3.9-0.4-5c0.7-1.1,2.4,0,3.8,0.3c1.4,0.3,0.9-1.2,1.5-2.9s2.1-0.4,2.7-0.3c0,0-0.1-2.8,0.9-3.4c1-0.6,1.8,2.1,2,0.5
	c0.3-1.6-0.2-3.3,1.4-2.7c1.5,0.6,1.4,2.5,3.4-0.7l1.9-3.1l4.4,4.9l2.3,0.2l0.1,4.4c0,0,1.4,1.7,3.9,0.5s1.7,2.1,1.6,2.9
	c-0.1,0.8,0.1,0.4,0.1,0.4s2.9-3.6,6.5-1.4c0,0-0.1,5.3-0.1,6.4c0,1.1,3-3.2,5.9-3.4c0,0,3.7-1.4,5,0.5c0,0-1.3,4.8-1.3,6
	s0.6,1.4,0.9,1.4s-2,1.4-2.1,2c-0.2,0.6-0.6,0.6,0,1.3s1.4,0.4-2.7,3.9c0,0,0.3,0.3-0.4,1c-0.8,0.7-3.8,3.5-4.5,4.7s-1.5,3.7-1,4.5
	c0.5,0.9,4.1-2,5-5.3c0,0,3.1-4.4,4-4.6c0.9-0.2,0.9,0.7,2.9-1c2-1.7,2.2-3.4,2.8-2.8c0.6,0.6,1,0.8,1.8,0.6s8.4-2,9.5-1.5
	s0.2,6.4,0.8,7.3c0.6,0.9,3,0.4,2.6,2c-0.4,1.5-1.4,2.7-2,3.2s1.1,0.4,1.7,1.7c0.6,1.3-0.8,2.6-1.9,3.2s-0.8,0.2-0.8,0.2
	s2.1,0.9,2.1,3.1c0,0-5.5,1.7-4.8,2.8c0.8,1.1,6.5,1.6,5,3.4c-1.4,1.8-8.1,3.4-8.4,4.2c-0.3,0.8,6.1,2.4,8.3,5.7
	c2.1,3.3-9.1,4.6-9.1,4.6s1.3,0,0.4,0.6c-0.8,0.6-6.4-1.5-7.5-1.7s-3.5,0.4-2.7,1.1s7.1,2.2,9.4,3.1c2.2,0.9,5.4,1.4,5.4,2.6
	s-3,4.5-3.7,4.7s-1.3,0.7-0.6,1.5c0.7,0.8,0.8,1-1,0.8s-1,0.8-0.8,1.2c0.3,0.4-3.6-0.3-4.4,0.3c-0.8,0.6,0.8,3,0.3,3.2
	c-0.6,0.3-5-1.7-6-2s-4.7-3.1-5.7-3.1s-1.5-0.4-2,0.5c-0.4,0.9,0.2,3.2-0.7,3.8c-0.9,0.6-3.7-0.2-4.8-0.9c-1.2-0.7-2.6-1.1-2.9-1.5
	s-2.7-1.8-2.7-1.8s-1,2.2-1.6-0.8C71.6,300.8,71,287.7,67.7,287.9z"/>
<path id="whiteash" class="brightred_leaf" d="M100.7,84.5c-8.3-7.9-17.1-15.4-25.8-23c5,0.6,10.4-0.3,14.2-3.7c0.8,0.1,4.1-4,4-4.4
	c-0.3-0.1,2.5-5.5,2.4-6.1c0.3,0.1,0.6,0.1,0.9,0.1c-0.1-0.6-0.2-1.2-0.3-1.8c0.1-0.1,0.9,0.6,0.9,0.2c-0.3-2.7,0.4-5.4-0.5-8.2
	c-0.4-1.4-1.6-5.6-1.5-7.3c0.2-1.6-1-5.2-1.7-6.7c-0.1-0.2-1.8-5.9-2.1-5.4c0.2,1.2-0.2,1.6-1.2,1.2c0,0.2,0.4,2.1-0.2,2.1
	c-1-0.1-8.3-1.3-8.7,0.2C80,21.8,81,23.2,79.4,22c-1.6-1.3-0.9,0.8-1.9,1.1c0.6,1.8-1.7,1.6-2.9,2C65.1,28.5,60,41.9,63.3,51.3
	c-1.6-1.6-3.5-3-5.3-4.4c1.5-2.1,4-6.5,3.8-9.3c-0.5-2.8,0.7-4.9-0.4-7.5c-1.5-3.6-3.3-7.8-6.3-10.6c0.6,0.5-3.3-2-3.2-3
	c-0.1,0.6,0,0.5-0.7-0.5c1,2-1.7-1.4-1.6-1.2c0,0.2,0.2,1.1-0.2,1.2c-0.8,0.1-8.1-8.3-6-4.2c-1.4,0.2-3.9-0.7-5-0.7
	c-1.3-0.1-5.3-2.8-5.9-2.6c-1,0.3-0.1,2-2.6,1.6c-1.8,0-1.7,1.1-3.4,0.6c-1.5-0.5-3.5,1.7-4.4,2.4c-2.3,1.8-3-2.2-4-0.5
	c-0.8-0.3-1.5-0.8-2.1-1.6c-0.4,0.2-0.8,4.5-0.5,3.5c-0.2,0.4,2.4,6.3,1.1,4.8c0.5,0.7,0.8,1.5,1,2.3c-0.1,0.2-0.7-0.4-0.7-0.2
	c0.2,0.6,1.9,9,2.4,8.6c-0.1,0.1-0.9-0.6-0.8-0.5c-0.4,0,3,6.8,1.3,4.3c0.4,0.5,0.7,1.1,0.8,1.7l-0.3,0.1c-0.2-0.3-0.5-0.6-0.7-0.8
	c-1.2,2.3,6.5,7.9,6.3,9.8c-1.6-3.1,3.1,3.2,3.6,3.6c0.2,0.1-1.1-2-0.8-1.7c-0.2,0.2,5.8,4.2,5.4,4.3c0.1-0.2,0.1-0.4,0-0.7
	c0.6,0.1,1,0.5,1.2,1.2c-1.2-2.6,1.8,1.4,2.2,0.9c0.2-0.2,4.5,0.9,5.7,1.1c4.1,0.5,10.2-2.6,13.4-4.9c1-0.7,11.7,10,13,11.1
	c-0.3,0.3-1.8,1.5-1.7,1.5c-0.6-0.9-6.4-7-6.8-6.1c-2.1-2.2-5.9-0.8-9-1.7c-2.5-0.3-8.7,1.8-10.2,2.7c-0.6,0.4-7.1,6.6-5.8,6.8
	c-2.2-0.4-6.7,8.8-5.6,11.6c-0.9-0.9-1.2,3.6-0.9,4.8c1,3.3-2.1,2.5-2.7,4.1c-0.4,1.1,1.2,1.6,1.7,1.9c-0.1-0.5,7.2,1.1,7.6,1.6
	c-0.5-1.2,1.2,0.5,1.3,0.6c-0.5-0.1,1.1-0.8,0.3-0.8c0.5,0.1,1.4,0.9,1.8,1.2c0-0.4,0-0.8-0.1-1.2c0.2,0,1.8,0.8,2.1,0.8
	c0.4,0.4,0.9,0.8,1.3,1.2c0.2-0.1,4.3,0.6,4.2,0.7c-0.3,0.2,0.6-1.5,0.7-1.4c1.4,0.5,1.7,0.4,3,0.8c0.3-0.4,0.2-0.9-0.3-1.4
	c0-0.1,1.9,1.8,1.8,1.7c0.1,0.1-0.2-1-0.2-1.1c0.1-0.5,7.8-0.4,6.9-3.2c0.3,0.3,3.4,0.1,3.4,0c0.4-0.3,0.6-1.1,1.5-1.8
	c0.8-0.6,1.1-2.6,1.7-2.1c-0.6-1.2,3.1-3.1,3.3-3.4c0.3-0.6-0.7-2.1-0.3-2.6c0.8-1.4,1.1-4.7,1.5-6c-0.2-0.6-0.4-4-0.8-4.4
	c-0.2-2.1,2.4-2,1.3-3.8c6.6,6,13.3,12,19.9,18c2.4,2.1,4.7,4.3,7.1,6.4C98.5,86.2,101.7,85.4,100.7,84.5
	C100.2,84,101.6,85.3,100.7,84.5z"/>
<path id="birch2" class="rust_leaf" d="M426,49.2l-0.6-0.1v-0.2l2-6l-1.1-0.4l0.6-5.8l-1.2-0.1l-0.1-3.1l-0.9,0.2l0.2-3.3l-0.9,0.2l-0.4-3.5l-1.2,0.3
	c0,0-0.9-3.4-1.1-3.8c-0.2-0.3-1.3,0.6-1.3,0.6c0-1.7-1-4.4-1-4.4s-1.9,0.8-1.9,0.5s-1.8-3.3-1.8-3.3s-1.5,1.4-1.7,0.7
	c-0.3-0.7-0.7-2-0.7-2s-0.9,0.4-0.8,0.2s-1-1.6-1-1.6s-0.9,1.5-0.9,1s-1.7-2.9-1.7-3.1c0-0.1-1.2,1.3-1.2,1.3c0-0.4-1.2-2.2-1.3-2.3
	c0-0.1-0.6,0.9-0.8,0.6c-0.3-0.2-1-1.2-1.2-1.1c-0.2,0.1-1.1,1.4-1.1,1.4c-0.6-1-3.1-2.5-3.1-2.5s-0.2,1-1.3,0.6
	c-1.6-1-3.2-3.5-3.4-3.8C395,6.1,394,5.7,394,5.7c1.2,5.5,0,7.3-0.1,7.5s-1.3-0.6-1.3-0.6s-0.7,1.7-0.8,2c-0.1,0.3-0.3,1.3-0.5,1.2
	s-1.2-0.1-1.2-0.1c-0.6,1-1.3,2.9-1.3,2.9l-1.4-0.6c-1,1.3-0.8,4-0.8,4l-1.7-0.4l-0.3,3.5c-0.7-0.6-1.5,0.3-1.5,0.3l-0.4,2.9
	l-1.3,0.3l-1,2.9l-1,0.7c-0.1,0.8-0.1,3.5-0.1,3.5l-0.9-0.5c-0.6,1.9-0.1,4.8-0.1,4.8l-0.8-0.2l0.4,4.3l-0.8,0.3l1.4,4.2l-0.7,0.4
	l1.6,4.2l-0.5,0.3l2.4,4.9l-0.4,0.3c-0.2,1,3,4.8,3,4.8l-0.5,1.1c0.5,0.1,4.1,3.5,4.1,3.5l-0.1,0.6l1.3,0.9c1.5,1.9,10.3,7,10.3,7
	l6.4,7.1l1.7,12c0,0,0.5-0.9,1.1-1.3c0.5-0.3,1.6-0.1,1.6-0.1c-1.2-0.8-1.3-2.7-1.3-2.7c-0.6-1.3-1-7.1-1-7.9s2.1-3.9,3.3-5.8
	c1.2-1.9,3.2-5.7,6-7.5s5.8-9.3,5.8-9.5c0-0.1-0.1-1.1-0.1-1.2s0.3,0,0.3,0l2.4-5l-0.6-0.1C426.4,51.7,426,49.2,426,49.2z"/>
<path id="maple" class="rust_leaf" d="M90.9,199.6c0,0-2.5-0.8-2.9-1.2c-0.5-0.4-3.4-3.1-4.8-4.2c-1.4-1.2-4.2-1.9-7.1-5.8c-2.8-3.9-6.5-9.1-8.6-10.1
	s-6.4-0.4-7.2,0.7c-0.8,1.1-5.1,5.1-5.5,5.4c-0.5,0.4-7.9-0.7-7.9-1.2s-5.1,1.4-5.1,1.4s-4.1-0.1-4.4-1.4c-0.2-1.3-2.7,0.4-5.5,0.7
	c-2.8,0.4-15,0.6-14.3,0.1s6.7-5.9,9.3-7.3s7.9-4.1,9.7-5.2c0,0,2.7-2.1,2.9-2.6s-3.7-1.2-5.3-0.7c-1.7,0.5-2.8-0.1-4.1-0.1
	s-10.3-0.4-10.3-0.4l-2.4-4.2L12,162l-9.3-9.2c0,0,5.5,0.1,7.5-0.4s0.4-3.5,3.3-3.3s4.8,0.4,5.5,0.4s-6.7-3.1-8.1-5.4
	c-1.4-2.4-2.2-3.5-2-4.4c0.2-0.8,3.7-2.4,4.8-2.2c1.2,0.1,3.2-0.1,1.3-2.4c-1.9-2.2-5.1-5.1-4.1-5.7c0.9-0.6,2.7,0.4,3.1,0
	s-0.1-1.4-0.1-5c0-3.5,0.4-7.2-0.9-9.5c-1.3-2.4-1.8-6.4,1.1-4.2c2.8,2.1,3.9,3.8,8.5,4.2c4.6,0.5,4.7-0.6,6.6,0.9s2.2-0.9,2.5-2
	c0.2-1.1,4.5,2.8,5.4,6.2c0.9,3.4,3.7,1.2,3.1-2.5c-0.6-3.7-1.7-8.3-0.1-6.6s6.7,6.8,7.2,9.4s4,5.9,3.9,6.6s1.9-2.1,2.9-4.1
	c1.1-2,1.2-5.5,2.5-5.5s4.8-1.2,6.7,5.3c1.9,6.5,4.8,9,4.4,14.6c-0.5,5.7-1.1,7.3-2.2,11.9c-1.2,4.6-4.8,6.6-1.8,6.4
	c3.1-0.2,4.5-6.2,5.9-7.8c1.4-1.5,7.7-10.5,8.1-7.4c0.5,3.1,0,5.1,0.2,9.8s2,5.5-0.2,7.8c-2.2,2.2-6.8,11.6-7.3,13.3
	c-0.5,1.8-1.5,2.2-0.6,4.7s-2.2,0.8,1.5,3.5c3.8,2.7,18.5,14.1,19.5,15.7C91.6,196.8,90.9,199.6,90.9,199.6z"/>
<g id="oak3" class="rust_leaf">
	<path d="M169.3,311.8c0,0,7.6,3.2,6.1-10.2c0,0,2.6-6.6,2.3-1.2s-1,11.7-4.5,12.9C169.6,314.4,171.1,313.8,169.3,311.8z"/>
	<path d="M177.6,300.4l12.7,0.5l-0.2-1.7l8.3-2.9l-0.2-2.4l5.2-3.1c0,0-10.3-1.8-8.5-2.5c1.7-0.7,11.7-11.8,11.7-11.8l-3.1-0.8
		c0,0,8.5-3.7,11.4-5.2c0.6-0.3,0.2-0.5-3.4-0.8c-5.5-0.4-11.5,1.9-11.4-0.3c0.1-2.3,6.8-10.3,8.1-12.6c1.3-2.3-0.1-0.9-0.9-0.9
		c-0.7,0,3.8-9.1,3.9-11.3c0.1-2.3-12.6,8.4-13.9,8.2c0,0-4.3,0,1.4-11.8c0,0,1.9-5.3-4,0.1c-2.1-5.7-1.6-5.1-1.6-5.1
		s0.6-10-3.1-10.5c0,0-1.1,7.2-2,9.1c-1,1.9-4.1-2.1-4.1-2.1s1.4,5.2,1.1,6.3c-0.3,1.1,0.3,5.1-0.3,6.6s-6.1,4-7.7,0.9
		c-1.5-3.1-5.4-7.8-5.4-7.8s-0.3,9.6,0.3,10.6s-0.4,2.2-0.4,2.2s0.5,3.6,1.5,5.4s3.6,8.8,1.4,8.9c-2.2,0.1-16.2-8.9-16.2-8.9
		s5.6,6.5,2.3,7.3c-3.4,0.9-4.4-0.4-4.4-0.4s10.6,18.7,13.1,19.9c2.5,1.2-1.7,3.2-4.6,0.9c-2.9-2.3-4.9-4.5-3.9-1.6s2.1,4.6,1.3,5
		c-0.9,0.4,5.6,12.5,14.3,13.4"/>
</g>
<g id="oak2" class="purple_leaf">
	<path d="M304.2,241.5c0.1-0.1,0-0.2-0.1-0.1C304.1,241.5,304.1,241.6,304.2,241.5z"/>
	<path d="M324.9,283.8c-0.1,0-0.2,0-0.2,0C325.1,283.8,325.2,283.7,324.9,283.8z"/>
	<path d="M322.8,283.4c-1.3-0.7-0.1-1-1.9-1.3s-2.4-0.3-3.3-0.6c-0.9-0.2-0.6-0.9-1.5-0.9s-2.2-0.6-4.4,0c-2.3,0.5-3.8,1.5-3.9,0.7
		c-0.1-0.9,0-2.3,1.3-2.8s3.2-0.7,3.9-1.1c0.7-0.3,0.9-0.2,1.3-0.7s0.4-0.8,1.4-1s0.8-0.2,1.5-0.9c0.8-0.6,0.7-0.3,1.3-0.7
		c0.6-0.5-0.2-0.7,0.9-0.5c1.1,0.1,1.5-0.6,1.6-1.1s0.1-0.5,0.1-0.5s1.6-0.6,2.1-1.2s-0.1-1-0.2-2.2c0-1.2,0.6-1.3,0.8-2.5
		c0.2-1.2,0.6-1.5,0.2-1.2s0.5-0.4,0.7-1.6c0.2-1.1,0.2-0.5,0.2-1.1c-0.1-0.6,1.6-2.6,1.1-4.2s0-1-0.6-0.2c-0.6,0.9-2,1.8-2.7,1.8
		s-1.2-0.9-1.8-0.6c-0.6,0.3-1.5,1.2-1.8,0.4c-0.4-0.9,0-2.5-0.5-1.9s-1.9,1.2-2.1,1.4s0.1-1-0.9-0.3s-1.5,0.8-2.1,1.1
		c-0.6,0.3-1.4-0.1-1.7,0.6c-0.3,0.7-0.8,0.6-1.1,1.4s-1.2,2.1-1.8,2.7c-0.6,0.7-2,1.8-2.7,1.6c-0.6-0.1-1.3,0.1-1.3-0.5
		s-0.6-1,0.4-2.3s2.3-1.9,2.6-2.6c0.3-0.7,0.3-1,1.1-1.7s1.3-0.7,1.9-1.1c0.6-0.5,1.3-1.7,1.8-2c0.6-0.3,1.3,0,1.2-0.6
		c-0.1-0.6-0.2-0.8,0.6-1.3c0.9-0.5,1.4-0.5,1-0.9s-1,0.9-0.4-0.9s1.8-2.3,1.8-2.7c0.1-0.4-1.1,0.8-0.9-0.7s0.6-2.7,0.8-3.2
		c0.2-0.5-0.2,0.2,0.3-1.4c0.5-1.7,0.9-3.8,0.9-3.8s-1.4,1.9-1.9,2.4c-0.2,0-0.6,0-1.8,0.2c-3.1,0.5-2.4,0.4-3.5,1s-1.8,0.8-2.6,1.3
		c-0.8,0.5-3.6,3.3-4.3,3.1c-0.7-0.2-0.8,1.8-0.9-0.8s-0.1-2.3,0.4-4.3c0.2-1,0.4-1.4,0.6-1.6c-0.1-0.3,0-1,0-1.6
		c0-0.9,0.1-1.2-0.3-0.7s-1,0.6-1-0.9c0-1.6,1.3-3.2,0-2.5s-1.6,0.4-1.8,0.8c-0.2,0.4-1.6-1-1.6-1.7s-0.2-2-0.1-1.4
		s-0.5-0.2-0.8-1.1c-0.3-0.9-0.5-2.1-0.5-1.9c0,0.2-0.3,0.4-0.5-1.1s1-3.9,0-3.1c-0.9,0.8-1.7,0.9-1.6,2.7c0.1,1.9-0.1,2.9-0.9,3.4
		s-0.8-0.2-1.4,0.7s-0.9,0-1.1,1.4c-0.3,1.4-0.4,1.6-0.8,1.9c-0.5,0.4-1.3,0-1.6,0.4c-0.3,0.4-2,0.8-2,0.8s-0.6-2.5-0.7-1.1
		c-0.2,1.5-0.3,2-0.3,3c-0.1,1,0.4,1.9,0.1,2.1c-0.3,0.2-0.6-2.1-0.3,0.2c0.3,2.3,0.2,4.1,0.2,4.4c0,0.3,1.4,2.3-1-0.1
		c-2.3-2.4-2.3-3.7-3.5-4.2s-1.6-0.4-2.2-0.7c-0.5-0.3-1.3,0.1-2.6-1.1c-1.3-1.2-1.6-1.4-2.1-1.8c-0.4-0.4-1.1-0.9-0.2,1
		s1,3,0.8,3.7s-0.8,0.8-0.5,1.7c0.3,0.8-0.5,0.8-0.5,0.8s0.2,0.6,0.7,2.3s-0.9,0.4,0.3,2c1.1,1.6,0.3,1.6,1.8,3
		c1.5,1.5,0.8,2.5,2.1,4.1c1.2,1.7,2.8,4,3.2,4.8c0.4,0.8,1.3,3.3-0.6,1.6c-1.9-1.6-0.5-0.2-2.5-3.1c0,0-0.6-0.5-1-1.4
		c-0.3-0.9-0.2-0.6-1.5-1.6s-1.6-1.1-1.6-2.3s0-1.5-1.4-1.6s-1.4,0.2-2,0c-0.6-0.3-1.5-1.3-1.5-1.3s-0.1,0.4-1,0
		c-0.8-0.4-1.1-0.4-2.1-1.2s-3.1-2.8-3.1-3.6s-0.1,0,0,2.5c0.1,2.6,0.4,2.8,0.2,4.1c-0.2,1.3-0.3,0.3-0.6,1.7
		c-0.3,1.4-0.6,1.5-0.3,2.4c0.3,0.9-0.1,0.8,0.5,2s0.1,1.9-0.4,2.5s-1.1,0.4-1.3,1.3c-0.2,0.9-0.3,0.5,1.1,2.1s2.1,1.9,2.4,2.6
		s-0.7,0.8,0.6,1.1c1.3,0.3,2.4,1.3,2.2,1.3c-0.2,0.1,1.3,1,1.3,1s0.6,0.2,1.1,0.2s0.5,0.4,0.8,0.5c0.4,0.2-0.7,0,1.5,0.5
		c2.1,0.5,1.8,1.1,2.1,1.5c0.3,0.4,1.7,1.2,1.7,2.2l0.1,0.3c0,0,0.2,1.1,0.1,1.3c-0.2,0.2-0.9,0.8-1.2,0.7c-0.3-0.1-1.6-1-2.3-1.7
		s-0.8-0.8-1.6-1c-0.8-0.2-0.7-0.5-2-0.5c-1.3-0.1-0.6-0.1-2.3-0.3c-1.7-0.2,0,0.1-2.7-0.4s-2.3,0.5-3.1-0.3
		c-0.8-0.9-1.4-1.1-1.4-1.1s-0.8,0.2,0.6,2.2c1.4,1.9,1.3,2.2,1.9,3.2s0.8,1.2,1.5,2.2c0.7,1.1-0.4,0.6,1.1,2.1s1.1,1.5,2.5,2.7
		c1.5,1.2,1.6,1.6,2.3,2.1c0.7,0.5,2.2,1.1,2.2,1.1s-0.3,0.3,1.1,0.9c1.5,0.6,2.2,1,4.2,1.3c2,0.4,4.6,2.3,5.8,1.8
		c1.2-0.5,0.5-0.4,3,0.1s1.4,0.6,1.3,1.4s-0.5,7.1-8,16.9c0,0,0.8,0.1,1.2,0.3c0.4,0.2,1.3,1.1,1.3,1.1s6.3-12.3,7.1-16.2
		c0.8-3.9,4-3.5,6.5-2.5c2.4,1,4.2,0.8,4.2,0.8l0.2-0.5l0.7,0.1l1,0.1c0,0,0.3,0.2,0.4-0.1c0.1-0.2,0.4-0.8,0.9-0.7s1.1,0.2,1.4,0.1
		c0.3,0-0.1,0,0.8-0.2c1-0.2,1.4-0.2,1.9-0.4c0.5-0.2,2.2-0.9,2.6-0.9s0.7-0.4,1-0.5s1.1,0.1,1.5-0.5s-0.1-0.7,1.2-1.1
		c1.3-0.4,1.2,0,2.3-1.1s1.3-1.2,2.4-1.7s1.5-1.5,2.8-2.4c1.1-0.8,1.7-1.4,2.4-1.6C324.2,283.8,323.5,283.7,322.8,283.4z"/>
</g>
<path id="cottonwood" class="purple_leaf" d="M340.6,49.4c-0.8-0.1-2.5-1-2.2-1.5s-2.3,0.8-3-0.4s-0.1-1.1,0.5-2s-0.9-0.7-1.3-0.8s4.5-6.2,2.3-6.4
	s-5.6,1.5-5.4-0.1c0.3-1.6,1.3-1.9,1.1-1.9c-0.2,0-1.2,1.2-0.9-0.3c0.3-1.5,0.9-3.3,0.9-3.3l-2.8-0.1c0,0,0.9-6.4,0.9-6.9
	c-0.1-0.5-2.3,0.8-2.5,0c-0.3-0.8,0.7-2.7,0.1-2.6s-0.9,0.6-0.9-0.1c0,0,1.5-3.6,0.8-4.5c0,0-0.5,0.1-1.1,0.2
	c-0.7,0.1-1.1,0.6-1.1-0.2c-0.1-0.8-0.5-3.6-0.5-3.8c0-0.3-0.7,1.1-1.3,0.5c-0.6-0.6,0.6-4,0.2-3.8s-0.4-0.2-0.1-0.9
	c0.2-0.5,0.1-0.4,0-0.4c0.2-0.2,1.7-1.4,2.2-1.6C326.9,8.3,328,7,328,7s-1.1-0.2-2.5-0.1s-3.4,0.3-4,0.6c-0.5,0.3-1.9,0.9-2.9,1.3
	c-1,0.4-2.1,1.3-2.2,0.1s-0.4-1.8-1.3-0.8s-3.3,2.6-3.3,2.6s0.9-3-0.3-2.1s-3.4,2.5-3.6,2.8c-0.3,0.3-1.9-1.9-1.7-2.5
	c0.1-0.7-1.5,1.1-2.4,2.2s-0.3,3-1,2.1s0.1-2.3-0.7-1.1c-0.8,1.2-2.1,2.8-2.4,2.4c-0.3-0.4-1.5-3.6-1.9-2.7c-0.4,1-1.7,5.1-2.4,5.4
	c-0.7,0.3-0.8-0.5-0.8-0.5s-0.9,2.8-1.4,2.6c-0.5-0.2-3.2-3.4-3.2-3.8c0.1-0.4-2.2,6.4-2.9,6c-0.7-0.5-1.1-0.4-1.1-0.4
	s0.3,2.6-0.3,2.9c-0.5,0.3-2.6-4-3.2-4.6s-0.7,0.5-0.7,0.5s-3.1-3.5-3-7.4c-0.4-1.3-0.3-0.3-1.1,1c0,0-0.9,6-2.2,4.4l0.3-0.7
	c0,0-0.9,2.3-1.8,2.6c-0.9,0.3-0.9-1.9-1.8-0.7c-0.9,1.2,0.1,3.2-0.9,4.8c-0.4,0.6-2,0.2-1.9-0.9c0,0-1.3,4.6-1.3,5
	c0,0.5-2.2-1.9-2.7-1.3c-0.5,0.5-0.5,4-0.7,4.8c-0.1,0.8-1.5-0.1-1.7,0.4c-0.2,0.5,1,2.1,0.7,2.6s-4.1-0.1-4.6-0.9
	c0,0-1.1-1.5-0.6,0.8s-0.4,3.6,0.5,4.5s1.7,1.5,1.4,1.8c-0.3,0.3-2.8-1.3-2.6-0.1c0.1,1.1,2.6,3.2,1.4,4.1c-1.2,0.9-4-0.3-4.8,0.7
	c0.7,1.6,1.7,3.7,2.3,4.4c0,0,0.3,0.3-0.7,0.5c-0.9,0.1,1.1,2.1,1.6,2.6c0.5,0.6-1.6-0.5-1.6,0.4s3.1,2.4,2,3.6
	c-1.1,1.2-4,0.7-4.8,0.6c-0.7-0.1,0.3,4,1.4,5c1.1,0.9-0.1,0.4-0.7,0.6s1.5,1.5,2.1,2.7c0.6,1.2-1.1,0.3-0.9,1.1
	c0.2,0.9,3.7,2.9,3.6,3.1s-1.3,1.7-1.3,1.7s4.3,2.3,4.1,2.7c-0.2,0.4-1.2-0.3-0.4,0.7c0.8,1,2.6,1.2,2.6,1.2s-0.5,2.3-1,2.4
	s2.1,2.5,5.2,1.6c0,0,0.1,0.6,0,1s0.3-0.5,1.7-0.5c1.5,0,2.7-0.5,2.3,0.3c-0.5,0.7,0,2.3-1,3.1c-1,0.9,5,0.2,5.8-0.3
	c0.7-0.5,0.2,0.4,0.2,0.7c0,0.3,1.8-1.4,2.6-1.6c0.8-0.2-0.8,1.5,0.8,0.7c1.6-0.8,3.4-3.2,4.1-4.4c0.7-1.2,6.3-6.2,8.1-7
	c1.9-0.8,2.4-0.7,2.8-1.1c0.2-0.2,0.4-0.7,0.7-1.3c0.1,0.7,0.1,1.2,0.1,1.2c0.1,1.1,0.9,3.8,1.3,4.9s1.3,9,1.3,9
	c0.1,2.3,0.3,9.6,0.3,9.6l1.5-1.2c0,0,0.3-2.3,0.2-6.2c-1.2-2.4-1.6-11-2.4-13.4c-0.6-1.8-0.7-3.6-0.7-4.9c0.4,0.5,0.5,1.5,0.2,2.3
	c0,0,1.6,2.2,2.7,3.4s1.5,1.5,1.5,3.2c0.1,1.8,0.9,4.1,0.9,5.5s-0.1,2.6,0,2.9s1.1-1.3,1-0.5c-0.1,0.9,1.1,2.9,1.7,3.2
	c0.6,0.3,0.7-0.5,0.7-0.8c0.1-0.3,3.2,2.7,4.5,1.9l0.6-2.3c0,0,3.7,1.2,4.1,0.9c0.3-0.2,0.2-1.3-0.1-1.5c0.8,0.2,3.6,1,4.3,0.5
	c0,0,0.1-1.2,0.1-1.5s4.2,0.5,4.2-0.1c0-0.7-0.3-1.1-0.3-1.1l2.3-0.6l-0.3-0.6c0,0,3.2-0.9,3.4-1.5c0.3-0.6-2.2-2.9-2.5-3.4
	s4.1-0.5,4.1-0.5s-1.3-1.2-0.8-1.6s3.6-0.5,3.3-0.9c-0.3-0.5-1-0.4-0.7-0.7c0.3-0.3,4.1-1.9,4.3-2.4s-1.1-0.5-1.9-1.3
	s-0.8-0.8-0.8-0.8s2.3-0.9,2.4-1.2c0.1-0.3-1.3-0.5-1.1-0.9c0.2-0.4,3.4-0.7,3.6-3.2c0,0-1.2,0.2-2.3-0.6c0,0,0.9-0.5,1.4-0.8
	s0.1-0.9,1-1.3c0.9-0.4,1.5-1.6,1.5-1.6s-1.3-0.9-2.1-1c-0.7-0.1,3.3-2.4,3.3-2.4l-1.5-1.3l2.1-2.3l-1.1-0.4c0,0,2.1-4.8,3.4-6
	C346.8,47,341.4,49.4,340.6,49.4z"/>
<g id="dogwood" class="purple_leaf">
	<path d="M209.4,47.5c-10.1-4.5-10.7-0.6-13.5-0.2c-2.8,0.4-2.8-0.4-2.8-2.6c0-2.3,14.3-3.6,14.3-3.6c5.3-5.1,5.1-8.5,5.1-8.5
		c1.9-3.6-1.5-3.9-1.9-5.8s0.2-3,2.8-4.3s1.5-3.2,0.2-5.3s0.6-6.4-0.2-7.7c-0.7-1.3-2.1-4.5-2.1-4.5s-10.5-2.3-16.5-0.6
		s-4.3,5.1-5.8,7s-4.7-2.3-5.6-2.3c-0.9,0-4.5,4.5-5.4,6.2s0.9,11.1,0,12.4s-2.4-0.6-2.4-2.8c0-2.3-0.4-7.3-2.1-10.7
		C171.6,10.9,163,1.7,163,1.7c-9.4,6.6-13.5,13.7-14.7,16.5c-1.1,2.8,0.4,9.2,0.6,10.7c0.2,1.5,2.4,5.8,2.4,5.8
		c0,5.3-1.1,2.1-1.1,2.1c-4.7-10.9-14.8-6.8-14.8-6.8c1.5,2.3-0.2,9.4-0.2,9.4c-2.1,23.1,8.6,25.2,8.6,25.2
		c1.5,1.5,5.6,0.8,10.5-0.6c1.3-0.4,2.4-0.6,3.2-0.9c-2.8,3.2-6.2,6.8-7.3,7.8c-1.9,1.7-12.6,12.3-15.1,11.5c0,0,2.6,4.3,2.3,6
		c0,0,12.3-13.2,14.9-14.6c0,0,4.7-4.7,7.9-8.4c-3.7,15.9,4.5,22,6.4,20.6c2.1-1.5,1.9,0.2,1.9,0.2c3.2,4.1,16.5,3.9,19,2.1
		c2.4-1.9-1.7-9.2-1.7-9.2c-3.4-5.6,0-3.9,0-3.9c7.3,9.2,12,4.5,12,4.5c3.9-1.3,5.6-2.6,6.9-5.3c1.1-2.2,1.7-2.3,1.7-2.3
		c7.7-2.8,7.1-6.9,9.2-10c1.9-2.8,3.1-10.5,3.2-11.4C218.8,51,217.7,51.2,209.4,47.5z"/>
	<path d="M219,50.7L219,50.7L219,50.7z"/>
</g>
<g id="hemp" class="orange_leaf">
	<path d="M315.3,147.8L315.3,147.8C315.4,147.8,315.3,147.8,315.3,147.8z"/>
	<path d="M333.5,161.5c-0.7-0.7-1.6-0.4-1.6-0.4c-1.3-0.7-4,0.2-4,0.2c-1.2,0-0.9,0-0.9-0.4c0.1-0.4-1.5-0.1-2.2-0.2
		c-0.8-0.1-1.5,0.1-1.7,0.1c-0.3,0-0.1-0.4-0.7-0.7s-2.2,0.2-3.3,0.3c-1.1,0.1-2.1-0.1-2.6,0.2s-2.7,1.5-3.9,1.6s-2.2,1.2-3.2,1.5
		c-1.1,0.3-0.9,0.5-1.3,0.6s0.3-0.6,1.1-1.2c0.8-0.6,4-2,5.2-2.1s3-1.9,2.7-2.5s-0.5-0.5,0.3-0.9s1.6-0.3,2.3-0.7
		c0.7-0.4,1.9-1.1,2.6-2.2c0.7-1.1-1.1-0.3-1.6-0.7s0.4-0.4,1.5-0.8c1.1-0.3,2-1.4,2.6-2.5s-1.1-0.2-0.9-0.7s2.3-1.2,2.3-1.2
		s-0.3,0,0.1-0.2s0.4-0.8,0.9-1.4c0.5-0.6-0.3-0.4,0-0.6c0.3-0.2,0.8,0,1.4-0.2s2.5-2.6,2.3-2.5s-1.1,0.1-1.8,0.2
		c-0.7,0.1-0.6,0.2-1.2,0.3s-0.6,0.1-1.4,0.9c-0.8,0.9,0.3-0.7-0.5-0.6c-0.8,0.1-2.2,1.4-2.2,1.4c-1.7,1.5-0.6-0.4-0.6-0.4
		c-0.8-0.5-1.8,0.6-1.8,0.6c-0.9,0.4-1.5,0.8-2,1.2c-0.4,0.3,0-0.8,0-0.8c-0.8,0.2-1.5,0.6-3.2,1.3c-1,1.8-1,0.3-1,0.1
		c0,0.1-0.1,0.2-0.3,0.2c-0.4,0.1-1.3,0.7-2.1,1.3s-2.6,2.1-4,3.2c-1.4,1.1-1.5,2.3-1.8,2.6s-1.5,1.3-2,1.6s-0.4-0.2-0.3-0.7
		s1.6-1.2,2.1-2.1c0.5-0.9,1.6-3,1.8-3.7c0.2-0.7,0.8-1.8,1.6-2.3s0.4-1.1,1.4-2.9c0.9-1.8,1.7-1.4,1.3-2c-0.3-0.6-0.6-0.5-0.3-0.7
		c0.3-0.2,1.1-1.1,1.2-1.5s0.2-1.2,0.2-1.2s-1.6,0.8-1.5,0s2-1.8,1.7-1.8c-0.3-0.1-1.2,0.6-0.3-0.7c0.9-1.3,0.4-1.8,0.2-1.8
		c-0.2,0.1-0.6,0.3-0.9-0.1c-0.4-0.4,1.8-3.1,1.5-3s-1.1,0.5-0.9-0.3s2.5-1.8,2.2-1.8c-0.2,0.1-1.1-0.1-0.8-0.4c0.3-0.3,2-1.3,2-1.5
		s-0.5,0-0.3-0.4c0.2-0.4,1.5-1,1.4-1.4s-0.3,0.1-0.3-0.6c0.1-0.6,0.7-2.1,0.7-2.1s-1.6,0.6-1.8,1.4c-0.2,0.8-1.2,0.1-1.6,0.4
		s-0.8,0.6-1.2,1.3c-0.4,0.7-0.6,0.2-0.7,0.4c-0.1,0.2-0.3,0.1-0.9,0.4c-0.6,0.4-1.7,1.6-1.8,2.5s-0.7-0.6-0.7-0.6
		c-1.9,0.7-2.4,3.2-2.4,3.2c-0.4,1-0.4-0.7-0.8-0.3s-2,2.7-2.2,3.6c-0.2,1-0.4-0.7-0.6-0.2c-0.1,0.5-1.5,1.9-1.7,2.8
		c-0.2,0.9-0.4,0.1-0.8,1c-0.4,0.8-0.8,2.4-1.5,2.6c-0.7,0.2-1,2.3-1.5,3.6s-1.3,5.7-1.4,6.2c-0.1,0.4-0.3-5.1,0.1-6.8
		s0.7-2.5,0.7-3.6c0.1-1-0.5-2.2-0.2-3.6c0.3-1.5,0.1-1.4,0.1-2.8c0-1.3-0.7-2.4-0.7-2.4c0.1-3.9-1.1-3.9-1.1-3.9
		c-0.1,0.7-1.6,3.3-1,0.9c1-3.9-0.7-4-0.7-4c-1.3,2-0.9,0.4-0.9,0.4c0.2-2.1-0.2-4.2-0.4-4.1c-0.2,0.1-1.1,0.4-1,0.2
		c0.2-0.2,0.3-0.7,0.3-1.1s-0.5-0.4-0.3-0.8s0.2-1.2-0.1-1.1c-0.2,0.1-0.3,0.1-0.4-0.2c-0.1-0.3,0.2-1.2-0.2-1.8
		c-0.4-0.6-0.7-0.9-0.7-0.9c-1.3,1.1-0.3,2.6-0.3,3s-0.7-0.8-0.8-0.3c-0.1,0.5,0.3,2.5,0.4,3.2s-0.9-0.7-1.2-0.2s0.3,3.1,0.2,3.3
		c-0.1,0.2-0.6-1.9-1.2-0.2c-0.7,1.7,0,3.5,0,3.5l-1.2-0.9c0,0-0.1,0.7-0.3,1.2c-0.1,0.4-0.4,1-0.7,1.6c-0.3,0.6,0.1,1,0.1,1.6
		s-0.1,1-0.1,1s-0.3-0.4-0.7,0.1s-0.3,1-0.4,1.3c-0.1,0.2,0,0-0.2,0.9s0.7,3,0.7,3s0,0-0.4,0.7s0.3,1,0.3,1.9s0.7,3.6,0.7,3.6
		s-0.2,0.9-0.5-0.7c-0.3-1.6-1-1.7-2-2.9s-0.7,0.4-0.7,0.4c-0.6-3.1-3.4-4.4-3.4-4.4l-0.3,1.3c-0.5-2-3.2-4.6-3.3-4.1
		c-0.1,0.5-0.6,3-0.5,1.5s-2.2-3.2-2.5-2.9s-0.2,1.1-0.5,0.7c-0.3-0.4-2.5-3.1-2.6-3s0.2,1.6-0.2,0.9c-0.4-0.7-1.6-2.9-1.7-2.3
		c-0.1,0.6-0.4,0.2-0.4,0.2c-0.6-1.4-1.5-1.3-1.5-1.3c-1.5-1.1-1.4-0.8-1.5-0.4c-0.1,0.3,0.4,1.1,0.8,1.3c0.4,0.3,0.1,0.5,0.1,0.5
		c0.1,0.6,0.8,1,0.9,1s0.5,0,0.6,0.9s0.9,1.5,0.9,1.5c-0.3,1.3,2,2.9,2,2.9s0.4,0.4-0.1,0c-0.6-0.4-1.1-0.3-1.1-0.3
		c-0.2,2.2,2.3,4,2.3,4c-0.7-0.4-1-0.2-1-0.2s0,1.2,0.4,2.8s1.5,1.9,1,2.4c-0.5,0.4,0.9,1.7,0.9,2.1s3.2,2,2.2,2.3s1.9,3.8,1.9,3.8
		c-2.1-1.4-4-1.3-4-1.3v0.7c-0.1-0.4-3.4-1.5-3.9-1.6s-0.2,1.3-0.6,0.5c-0.4-0.9-2.9-0.9-3.6-0.8c-0.6,0.1-0.1,0.6,0,0.7
		c-0.4-0.3-2.8-1.2-2.9-0.9c-0.1,0.2,0.2,1-0.4,0.4c-0.6-0.5-1.8-1-2-0.9s-0.5,0.6-0.5,0.6c-0.8-1.2-1.6-0.9-1.6-0.9
		c-1.2-0.9-2.8-0.6-2.6-0.4c0.3,0.1,0.8,0.8,1.2,1.4c0.4,0.6-0.1,0.6,0.4,0.6s0.7,0.1,0.8,0.4c0,0.4,0.4,0.3,0.9,0.4
		c0.5,0.1,4.2,1,2.5,1c-1.8,0-0.4,0.7-0.4,0.7c0.4,0.2,2.3,0.8,3.4,1.1s-0.5,0.1-1.2,0.4c-0.7,0.2,0.1,0.4,0.8,0.9
		c0.7,0.5,0,0.5,0.3,0.8s1.5,0.1,2.5,0.1s0.2,0.5,0.1,1c-0.1,0.4-1,0.1-1.6,0.2c-0.6,0.1,0.4,0.1,0.1,0.9c-0.2,0.8,2,0.1,1.9,0.4
		c-0.1,0.2-0.7,0.5,0.5,0.5c1.3,0,3.3,0.7,2.2,0.7c-1.2,0-0.5,0.7,1,1.2c1.5,0.4,1,0.4,0.7,0.7s0.9,0.7,2.3,1c1.4,0.4,1,0.1,1,0.1
		c0.3,0.1,1.3,1.6,3.7,1.9c6.2,0.9,5.9,1.6,5.9,1.6c-3.3-1.9-5.6-0.4-6.3-0.4c-0.7,0,1.3-0.7-3.2,0.7s-3.9,2-4.5,2.4
		c-0.5,0.4-1.9,0.2-2.7,0.4c-0.8,0.2-0.7,0.7-1.7,1s-1.2,0-1.7-0.1s-1.4,0.4-2.2,0.9c-0.7,0.5-1.1,0.5-2,0.8s-1.8,0-2.9,0.4
		s1,0.3,2.2,0.2s0.7-0.1,2.4-0.1c1.6-0.1,1,0.1,2.2-0.3c1.1-0.3,2.5-0.4,2.7-0.4c-0.2,0-1,0.6-0.4,0.6c0.6-0.1,2,0.3,2.4,0.3
		c0.4-0.1,1.6-0.3,1.4,0c-0.3,0.2-0.8,0.9-0.4,1s1.4-0.1,1.4,0.1s-0.3,0.4,0.2,0.3c0.6-0.1,2.8-0.7,3.2-0.9c0.4-0.2-0.1,0.3-0.9,1.1
		s1.8-0.6,1.7-0.3c-0.1,0.2-0.3,0.5,0.3,0.3c0.5-0.2,2.8-0.8,2.7-0.5c-0.1,0.3,0.4,0.3,0.4,0.3s2-0.6,2.8-0.7c0.8-0.1,2.1-0.7,2.9-1
		s1.5-0.4,1.2,0.1s-3.9,1.3-3.9,1.3c-0.7,0.3-1.8,1.3-2.2,1.3c-0.4,0-2.4,1.2-2.5,1.5c-0.1,0.4,0,0.9-0.2,1s-1.7,1.4-2.2,1.9
		s-0.1,0.9-0.7,0.9c-0.6,0.1-1,1-1.8,2s-2.9,4.5-2.5,4.1c0.5-0.4,2.5-2.1,2.9-2.6c0.3-0.5,1.7-1.1,1.7-0.9c0,0.2,0.1,0.4,0.5,0
		s1.5-1.1,1.5-0.8s0.7-0.1,1.4-0.7s1.2-0.9,1.2-0.9s0,0,0,0.1s-0.1,0.3-0.3,0.9c-0.2,0.5,0.6,0.1,0.9,0c0.4-0.1,1.4-0.4,1.4-0.4
		c0.4-0.7,0.6-1.1,0.7-0.7c0.1,0.3,0.8,0.3,1.7-0.6c0.8-0.9,2.4-2.3,2.4-2.3c-1.6,1.8-0.8,2.6-0.8,2.6c0.1,0.6,1-0.1,1.4-0.5
		s1.2-0.4,1.2-0.4l-0.1-0.1c3.4-2.8,6.8-8.2,6.8-8.2s1-1.6,0.9-2.3c0-0.2,0-0.3,0-0.4c0.3,0.5,0.6,1,0.7,1.1
		c0.3,0.4,2.3,11.5,2.6,13.7c0.2,2.2,3.2,17.4,3.2,17.4c-0.5,4.5,0.8,3.2,0.8,3.2c0.4,0,1-0.4,1-0.8c-0.1-0.4,0.4,0-0.4-2.2
		s-5.7-31.5-5.7-31.5s0.1,0,0.4-0.1c5.6,6.3,11.4,7.4,11.4,7.4c1.3,0.4,1.5-0.6,0.9-1.1c-0.6-0.4,1.6,0.3,2.9,0.4
		c1.3,0.1,3.4,0.1,5.4-0.1c2.1-0.2,0.2-0.7,1.3-0.4c1.2,0.3,1.6,0.2,2.6,0.2s0.9,0.2,1.9,0.4c0.9,0.2,1.3,0.7,2.1,0.8
		c0.8,0.1,2.1,1.2,2.1,1.2s-1.4-1.6-2.1-2.5c-0.7-0.8-1.2-0.9-1.9-1.5c-0.7-0.6-0.6-0.7-1.6-1.1c-1.1-0.4-1.7-0.3-2.5-1.1
		s-1.4-0.6-1.4-0.6c-1.6-0.6-1.1,0.3-2.6-0.2s-1.5,0.6-3.2,0.6s-2.2,0-2.8,0c-0.6,0-1.4-0.8-2.1-0.8c-0.7-0.1-0.9-0.1-0.7-0.6
		c0.2-0.5,2.3,0.4,2.3,0.4h0.2c2,0,2.3-0.6,4.5-0.6s2.3-1,3.1-1.2c0.8-0.2,0.7-0.4,2.2-0.4s1.7-1.4,2.7-1.5c1-0.2,2.3-1.3,1.8-1.9
		c-0.5-0.6,0.1-0.5,1.3-0.5c1.2,0,1.1-0.7,2.3-1.4c1.2-0.7,0.8-0.2,1.7-0.3c1-0.1,1.3-0.8,2.7-1.3c1.4-0.5,1.6-0.3,2.4-0.5
		s1.3-0.2,1.3-0.2S334.2,162.2,333.5,161.5z"/>
</g>
<path id="poisenivy" class="orange_leaf" d="M421.5,297.6c0,0-4.7-0.5-6.3-0.4c0,0,5-7.1,4.2-10.3c0,0-4.5-0.1-5.6,0.6c0,0,5.6-6.4,5.1-8.8
	s-4.8-0.3-5.2-0.1c-0.4,0.2-0.4,0.2-0.4,0.2s4.1-6.3,1.9-9.3c0,0-3.9,1.4-5.2,2.3c-1.3,1,3-3.8,1.9-10.8c0,0-1.9-0.7-3.6,0.9
	c0,0,1.6-6.6,0.3-8.1c0,0-3.9,0.1-5.9,2.8c0,0,2.2-7.5,0.8-10.2c0,0-1.5-0.1-3.4,1.3c0,0,0.4,0,0.3,0.1c-1.2,1.1,0.5-5-2.1-7.7
	c0,0-2.2-0.3-3.2,2.1c0,0,1-3.8-2.8-7.4c0,0-1.1-0.2-1.3,0.7c0,0-0.1-2.9-2.8-2.5c0,0-0.3-0.4-0.5-0.4s-0.2,0.3-0.5,0.4
	c-0.3,0.1-1.9,0.4-1.9,2.2c0,0-0.9-0.1-0.9-0.3s-2.4,3.3-2.6,4s-1.2,2-1.1,2.8c0.1,0.7,0.9,2.2,0.9,2.2s-2.2-1.4-3.1-1.4
	c-0.9,0.1-1.1,2-0.9,2.8s-2,3.9-0.4,6.1c0,0,0.8,1-1.1-0.2s-3.2-0.7-3.8-0.6c0,0-0.8,8.2,1.8,10.1c-1.1-0.5-3.7-1.5-5.9-1.1
	c0,0-0.3,5.9,3.1,8.9c0,0-1.4-0.9-2.6-1.2c-1.2-0.3-2.7-0.4-3.3-0.4c-0.6,0.1-1,5.7,1.2,7.8c0,0,0.6,0.6-0.7,0.3
	c-1.9-0.4-3.1-0.9-3.9-0.2c-0.7,0.7,0.8,7.6,3.7,9.4c-0.3-0.2-2.5-1.7-5.9-1.2c0,0,0,5,4.5,8.2c0,0-4.6-0.7-5.4,0s1.5,5.9,6.5,8.6
	h0.1c0,0,1.3,0.6-0.2,0.5c-1.5,0-6.1,0.8-6.6,1.6c0,0-0.6,2.4,6.2,4.6c0,0,1.3,0.5,0.3,0.6s-2.8,0.8-3.3,1.2c-0.5,0.5-1.6,1-1.6,1.4
	c-0.1,0.3,1.8,2.8,9,2.6c0,0-2,2.3-2.3,3.3s-0.4,1.6-0.4,1.7s2.1-0.1,3.2-0.2s2.9-0.1,3.7-0.4c0.8-0.4,0.8-0.6,0.7-0.1
	c-0.1,0.5-0.8,2.3-0.7,3c0,0.7,0.4,0.7,1,0.3c0.6-0.4,1.8-1,2.2-1.4c0.4-0.5,1.3-0.8,1.9-1.2c0.6-0.4,6.8-2.5,6.6-6.8
	c0,0-0.3-0.9,0.2-1.5c0.6-0.6,1.6-0.8,2-0.4s1,0.1,0.9,1.2s-2.3,8.8-2.8,10s-0.5,1.4-0.5,1.5s1.3-0.1,1.6-0.1c0.3,0,1.5-4.6,1.6-5.1
	s0.8-5,1.1-5.6c0.3-0.6,0.4-1,0.8-1.1c0,0,2-0.6,2.8,0.1c0,0,0.8,4.6,3.9,5.5c2.6,0.7,3.4,3.5,3.4,3.5s1.2-2,2.3-1.6
	c1.1,0.4,6.9,2.8,6.7,2.1c-0.2-0.6-1.4-4-1.4-4s7.1,2.1,9.3-0.7c0,0-2.5-3.4-3.8-3.6s6.9-2.1,7.4-5.1c-2.5-1.1-6.4-1.8-6.4-1.8
	S421.5,300.9,421.5,297.6z"/>
<path id="oak4" class="orange_leaf" d="M427.1,169.5c-1.4,0-1.5-0.2-3.3,0.1s-2.4-1-3.1-0.9c-0.8,0.1-1.7,0.7-1.9-0.1c-0.1-0.8,1.5-0.2,0.1-1.1
	c-1.3-0.9-2.1-1.5-1-1.8s3.5-1,2.1-1.5c-1.5-0.5-1.5-0.5-1.5-0.5s-2.6,1.2-1.5,0c0,0,2-1.7,1.6-2.6c-0.4-0.9-0.8-1.6,0-2.2
	c0.8-0.6,1.4-1.6,2.1-2.6s0.8-1.9-0.1-1.9s-3.4,0-2.4-0.8s1.6-1.5,1.3-2c-0.3-0.6,1.6-1,0.8-2c-0.8-1-2.1-1.1-1.5-2.2
	c0.6-1.1,1.1-1.2,0.8-2.1s-0.8,0.2-0.6-0.8c0.3-1,1.5-2.6,1.5-2.6s0.2-1.4-0.5-1.9s-0.6-2.8,0.2-3.8c0.8-1,1-1.3,0.4-1.3
	s-2.7,1.4,0.1-5.1c2.8-6.4,2.6-6.4,3.7-9.4c0,0,2.2-6,0.6-7.6c0,0-0.1,3.3-0.6,3.7c-0.5,0.5-1.6,1.5-2.1,2.8
	c-0.5,1.4-5.1,7.6-5.7,8.2c-0.6,0.6-0.9,1.2-1.7,0.9c-0.8-0.3-1.9-0.3-2.6,0.3c-0.7,0.7-0.7,0.7-0.7,0.7s-1.5,1.4-2.1,2
	c0,0-1.7-1.8-2.2-1.2s-1.5,3.3-2.8,4.7c-1.2,1.5-2.2-0.3-2.6-0.9c-0.3-0.6-0.3-1.2-1.8,0.5s-3.3,4.9-3.9,2.8s-1.4-5.4-1.7-2.5
	c-0.3,2.9-0.1,2-0.8,2.3c-0.6,0.3-0.8,0.1-1.9,1c-1.2,0.9-1,0.9-1.8,0.8c-0.8-0.1-1.1-0.2-2.2-1.1c-1.1-0.9-1.6-1.2-2,0.1
	c-0.4,1.4-0.7,1.8-2.1,2.2s-0.6,1.2-2.1,0.7c-1.5-0.6-2.1-0.6-2.5,0.3c-0.4,0.8-0.5,1.9-1.4-0.5s0.1-5-0.9-4.5s-2.4,0.5-2.8,2.1
	s-2.1,1.9-2.5,1.9c-0.3,0,0.3,1.1-0.4,2.2c-0.7,1.1-1.2,0.7-2.2,0.4s-1.3-2.5-1.1,0.1c0.1,1.3,0.2,1.5,0.3,1.6c0,0-0.1,0-0.3,0.3
	c-0.6,0.9-0.8,2.4-0.8,2.4s-1.2-0.7-1.7-0.7s-1.2,0.3-0.8,1.7c0.3,1.4-1.2,1.3-1.2,1.3s0,1.7-0.6,2.3s-2.5-2.1-2.6-0.8
	s1.2,2.9,0.1,3.4c-1.2,0.5-2.3-0.6-1.9,1c0.3,1.5,1.5,2.8,0.1,2.9c-1.5,0.1-2.2,0.9-1.2,2.1c1,1.2,1.8,2.8-0.4,2.7
	c-2.2-0.1-3,0.1-1.8,2.1s1.8,2,0.3,2.6s-2.1,0.2-1.1,2s-1.1,2-1.2,2.9s1.2-1.1,2.1,0.8c0.9,1.9-0.8,1-0.7,2.6
	c0.1,1.6,0.6,1.7,1.5,2.6c0.8,1,1.2,0.6,0.8,1.9c-0.5,1.2,0.5,0.9,0.8,2.4s-3.5-0.5-1.9,1.2c1.5,1.7,2.3,0.5,3.2,1.5
	c0.9,1-1.7,1.5-0.1,1.7c1.6,0.3,3.9,0.3,2.7,1.2c-1.2,0.8-1.3,1.5,0.8,1.7c2.1,0.2,2.8-0.3,4.4-1.2c1.6-0.8,1.5-1.7,4.4-2.4
	c2.9-0.8,6.4-0.8,6.7-0.8c0.3-0.1-7.8,6.6-9.6,8.9c0,0-6.7,4-7.6,7.3l0.3-0.1c0.2,0-0.2,1.1,1.2,1.2c1.5,0.1,3.1,0.1,3.3-0.4
	c0.1-0.6-1.9-1.6-0.4-1.4c1.5,0.2,2.5,0.2,3.5,0.3s3.6,1.3,3,0.1s-1.3-1.9-2.8-3s5.5-5.7,6.9-6.9c1.5-1.2,5.5-5.1,5.7-5.4
	c0.1-0.3,1,0.9,1.5,2.6c0.6,1.7,1.7,4.5,1.3,5.8c-0.3,1.2-1.2,3.3-1.2,4.8s-0.3,2.6,0.1,3.3c0.3,0.8,1-1,1.8,0.6s0.6,2.8,1.8,3.2
	c1.2,0.3,2.3-1.5,3.1-0.6c0.8,0.9,2.3,3,3.7,3c1.4,0,0-0.3,1-1.4c1-1.1,0.4-0.5,1.4-1.2s0.8-0.4,1.8,0.2c1,0.6,1.9-1,1.9-1
	s1,0.9,2-0.6s1-2.2,2.7-2.6c1.7-0.3,3.1-0.1,2.7-1.2c-0.4-1-1.3-1.6-0.5-2.1s-0.1-0.7,1.5-1s2.2-0.4,1.9-1.6c-0.3-1.2-0.1-1.4,1-1.9
	s1.2-1.2,0.9-2.1c0,0,3.5-0.4,2.7-1.5s-1.7-0.8-0.9-1.8c0.8-1,1.5-1.9,2.2-2.2c0.8-0.3-1,0,0.2-1s1.7-1.6,1.3-1.9
	c-0.3-0.3,2.6-0.1,2.1-1c-0.4-0.9-0.6-1.6-0.6-1.6s-0.8-1.1,1-1.4s2.6-1.2,2.2-1.3c-0.3-0.1-0.8-0.6-1.2-0.8
	c-0.4-0.1,0.3-0.4,1.3-1.5s1.1-0.8,0.8-2c-0.3-1.2-0.5-1,1.5-2.6C426.4,170.9,428.5,169.5,427.1,169.5z"/>
<path id="oak1" class="yellow_leaf" d="M318.7,385.6c-2.5,0.6-10.1-2-10.1-2c4.2-6.3,11.6-8.7,11.6-8.7c-2.1-3.1,2.4-6.7,3.2-7.3c-0.3,0.1-1,0-2.9-0.5
	c-3.3-0.8-3.6-1.7-3.8-2.7s1.8-2.5,1.8-2.5s-0.7-0.4-1-1.7c-0.3-1.4,0.7-0.8,1.5-3s-0.8-1.9-2.5-3.3c-1.6-1.4,0.5-4.6,0.5-4.6
	c-1.3,1-3.9,2.4-5.4,1.9s-1.2-1-1.9-0.2c-0.7,0.8-1.6,2.4-1.6,2.4c-4.8,2.7-7.1-1.6-7.1-1.6c-0.5,3.5-3,7.4-3,7.4
	c-0.3,1.4-3.6,7.4-4.4,7.6c-0.7-0.7-0.1-1-0.5-3.8s1.7-9.4,2.3-11.4c0.5-1.9,1.5-6.6,1.5-6.6c-2.8,1.6-5.6,2.3-5.6,2.3
	c-3.2-1.2-4.5-8.5-4.5-8.5l0.1-0.5c-3.7,3.7-4.3-5.2-4.3-5.2c-0.3,4.7-3.5,7.3-4.4,7.3c-0.8,0-2.6-1.4-2.2-0.8
	c0.5,0.5,0.6,4.1,0.6,4.1c0.1,5.6-1.5,8.3-2.5,8.3s-3.7-3.7-3.7-3.7c-1,1.3,0,4.7,0.2,6s2.1,6.4,2.5,7.4s0.4,6.4-0.3,6.5
	c-0.6,0.1-1.7-1.1-2.5-1.7s-1.3-6.7-1.3-6.7c-1,0.1-2.1-0.3-3.3-1.1c-1.2-0.8-1.3-3.3-2-4.8s-1.1-4.4-1.1-4.4
	c-0.2,0.8-2.2,3.2-2.2,3.2c-0.6,0.9-1.9,0.8-1.9,0.8c-1.8-1.9-3.3-2.7-3.3-2.7c-0.9-1-3,0.2-3.8-0.4c-0.8-0.5-1.1-0.4-1.1-0.4
	c1.7,5.9-0.8,6.3-0.8,6.3c-2.6,0.2-1.6,0.4-1.6,0.4c1.9,1.7,3.7,5.5,3.7,5.5c2.3,6.2-3.2,7-3.2,7c-2.7,0-3.9,0.5-3.9,0.5
	c1.4,0.5,3.5,2.5,3.5,2.5c1.5,1.2,2,3.5,3.1,3.9s2.4,1.8,3.9,2.4c1.5,0.5,3.4,3.8,3.4,3.8c1.7,1.8,1.5,3.5,1.5,3.5
	c-1.1,0.5-4,0.7-4,0.7c-4.5,1.1-5.9,0.2-5.9,0.2c-1.8,4.4-10.1,6-10.1,6c13.3,2.3,9.5,6.8,9.5,6.8c0.9-0.6,5.9-0.2,5.9-0.2
	c2.7,1.5-0.5,6.9-0.5,6.9c7.6-4.8,13.2-4.2,13.2-4.2c1.8,0.7,1.4,3.5,1.4,3.5c-0.5,1.4,0.6-0.2-1.6,7.4c1.5,0,4.2-3.6,5.8-4.5
	s6.7-4.4,6.7-4.4c1.2-2.8,2.3-3.3,2.8-3.3c-0.1,1.7-0.2,4.1-0.4,5c-0.2,1.5,0.5,3.5,0.5,4.3s0.3,3.4,0.5,4.9
	c0.3,1.5,0.4,6.4,0.4,6.8s1.4,0,1.4-0.5s-1.5-7.4-1.5-9s0-5.5-0.1-6.9c-0.1-0.9,0-2.9,0.2-4.4c2.3,0.6,3,3.4,3,3.4
	c3.9-1.8,8.8,5.2,9,3.8c0.2-1.4,2.7-1.3,5.3-0.9c2.5,0.4,5,2.5,5,1.9s-1.6-2.1-1.6-2.1c-3.8-2.5-3.7-6.7-3.7-6.7
	c0.5-3.6,8.6-0.5,8.6-0.5c3.6,1,4.3-1.3,4.3-1.3c-1.8,1.4-1.8,0-1.3-1.5s1.1-0.2,2.5-0.8s4.2-3.3,4.2-3.3c4.3-2,6.9-1.9,6.9-1.9
	C316.7,389.7,318.7,385.6,318.7,385.6z"/>
<path id="maple" class="yellow_leaf" d="M209.5,378.6c0-0.6-1.7-1.4-2.4-1.8c0.7-0.8-0.4-1.9-1.2-2c0.1-0.6-1.3-1.7-3.4-2.3c0.6-1.8-0.9-2.1-1.8-2.1
	c0.2-0.7-2.4-0.8-2.9-0.7c-1.4-1-8.1,1.2-8.1,1.2s1.3-2.2,2.7-3.7s2.5-3.7,2.5-3.7s2.1-1.9,2.6-3.2c1.3-0.6,0.7-2.6,0.4-3.2
	c0.4,0,0.4-1.4,1-3s0.5-1.9,0.5-1.9s1-2.5,0.5-3.2c0.4-1.5-2.1-2.9-2.1-2.9s1.3-3.1,1-4c0.3-0.8-0.5-2.2-1.3-2.5
	c0.3-0.5,0.1-2.1-0.4-2.8c-0.5-0.7-0.3-1.9-0.7-3.3s-1.2,0-2.1,1.1c-1.4-0.1-2.9,1.8-2.9,1.8s-0.4-0.8-0.7-0.9s-1.2,0.3-1.4,1.2
	c-0.8-0.2-2.4,1.8-3.2,2.5c-0.6-1.2-3.2-2.2-3.2-2.2s0.1-0.2-0.1-0.5c-0.9,0-2.1,1.2-2.6,3c0,0.1-1,0.8-1.5,1.6
	c-2.1,0.9-2.9,3.8-2.9,3.8h-1.5c0,0-0.4-0.2-0.8,0.5c-0.3,0.7-0.9,1.8-0.9,1.8s-0.1-0.4-0.3,0.1c-0.1,1-2.3,4.3-2.3,4.3
	s-1,1.8-1.3,4.1s-1.9,4.4-2.8,5.7c-0.8-6.2-3.9-10.7-4.6-10.9c-0.1-0.8-2.4-3.9-3.2-3.8c-0.2-0.7-1.6-1.4-2-1.5
	c0,0.4-1.3,0.6-1.7,1.3c-0.3-1.3-3.6-2.7-3.7-2.2c-0.4-0.2-2.2-1.2-2.3-0.1c-0.1-0.3-1.2-0.5-2-0.5s-2-1.4-2.2-1.6s-0.4-0.1-0.5,0.3
	s0.2,2.5,0.8,5.3c-0.9,0.2-0.7,2.4,0,4.7c-1,0-1.5,2-1.1,3.7c-0.5,0.4,0.3,4.4,0.6,5.8c-1,0.6-0.8,2.2-0.8,2.2s-0.7,0.4-0.7,0.8
	c-0.1,0.4,0.7,1.7,0.7,1.7s-0.3,0.1,0,0.6c0.1,0.8,2.5,4.1,2.5,4.1l-0.1,0.8c0,0,2.7,2.7,3.7,3.7c1,1.1,2.3,3.1,2.3,4.4
	c-2.9-0.2-5.9,2.7-5.7,3.1c-0.2,0.1-1.8,1.7-1.7,3.4c-1.3,0.9-2.3,2.3-2.3,2.3s0.5,0.5,1.1,1.1c0.7,1.4,4.8,2.8,4.8,2.8
	s0,0.3,0.1,1.1c4.1,2.5,7.7,1.5,10.9,0c0,0.7,1.1,2.1,2.1,3.4c1.6,0,1.8-1.8,1.8-4.4c0.5,0.4,0.8-0.2,0.8-1.2s-0.7-3.2-0.7-3.2
	c0-0.8,2.2-0.4,2.3-0.3c0.1,0,0.3,0.2,0.9,0.6c-2.4,6.5-10.4,29.3-10.7,30.9c-0.4,1.9,1.5,2.6,1.5,2.6l9.6-33.2
	c0.5,0.4,0.9,0.7,0.9,0.7v0.4c-0.3,3-0.6,8.5,1.4,9.5c0.9,0.9,2.1-0.6,2.1-0.6l2.7,2.5l0.4-0.4l4,1.6l0.4-1l3.4,1.5
	c0,0,0.1-0.2,0.1-0.7c0.9,0.2,2.5-1.6,3.5-3.3c1-1.7-1-5.4-1-5.4s5.6,0.3,8.5-0.1c2.9-0.3,1.7-1.3,1.7-1.3s1.1-0.1,3-0.4
	c1.9-0.2,1.7-1,1.7-1s0.4,0,1.3-1.3c1-1.4,1.1-3.1,1.1-3.1s1.2-0.1,2.4-1.6c1.2-1.4,1-2.7,1-2.7s1.2,0,2.2-0.3
	c0.9-0.3,0.9-1.4,0.9-1.4s2.4-0.6,2.8-1.1C211.4,379.2,210.8,378.8,209.5,378.6z"/>
<path id="birch1" class="yellow_leaf" d="M76.5,375.1c0.3-1.7-1.2-8.5-1.6-9.9s-3.3-6.5-3.3-6.5v-0.2c-1.2-5.2-3.8-7-3.8-7c-2.2-5.4-7.1-13.8-7.4-15.8
	c-0.3-2-1.4-2-1.4-2c-2.7,13.3-17.2,22.5-17.2,22.5c-5.3,3.7-10.2,8.6-10.2,8.6c-1.5,2.5-5.2,5.2-6.5,6.1c-1.3,0.8-1.8,1.7-2.8,2.7
	s-2,2.8-2.5,4.1c-0.5,1.3-2.1,3.7-2.1,3.7c-0.2,0.3-0.3,0.6-0.4,1c-0.4,1.3-0.3,2.7-0.5,5.3c-0.2,3.2,0.6,5.7,0.6,5.7
	c2.7,18.8,16.7,13.7,16.7,13.7c2.6-1.6,6.4-0.7,6.4-0.7c0.4,3.8-8.1,13.3-8.1,13.3c0.9,1.3,2,0.4,2,0.4c3.1-4.1,8-12.8,8.9-13.3
	s2.2,0.3,2.2,0.3c4.1,6.8,7.6,6.8,9.7,7c2.1,0.3,3.9-0.3,5.1-0.5c1.2-0.2,4.2-1.6,5.6-2.5s2-2.2,2.9-3.3c0.9-1.1,1.7-3.1,1.7-3.1
	c4.4-5.6,4.4-9.9,4.4-9.9c-0.4-2.2,0.3-5.7,0.3-5.7C77.8,379.7,76.3,376.8,76.5,375.1z"/>
<path id="elm" class="green_leaf" d="M371.4,420.9c0,0-2.1,5.8-1.8,7.4c0.3,1.6,1.5,1.6,2.2,0.4c0.6-1.1,1.7-7.2,1.7-7.2c16.9,8,34.4-20.5,34.4-20.5
	c8.2-13.8,9-29.2,9-29.2c1.1-1.8,0-11.9,0-11.9c-0.6-0.9-2.7-9.9-3.4-11c-0.7-1-2.1-7.9-2.1-7.9c-4.4,2.6-12.9,3.2-13.9,4.3
	s-5.6,2.4-5.6,2.4c-17.1,13.5-22.9,25.7-22.9,25.7c-0.8,4.9-2.5,8.2-2.5,8.2C357.2,408.3,371.4,420.9,371.4,420.9z"/>
</svg>
