<?xml version="1.0" encoding="utf-8"?>
<!-- Generator: Adobe Illustrator 21.1.0, SVG Export Plug-In . SVG Version: 6.00 Build 0)  -->
<svg version="1.1" id="Layer_1" xmlns="http://www.w3.org/2000/svg" xmlns:xlink="http://www.w3.org/1999/xlink" x="0px" y="0px"
	 viewBox="0 0 160 160" style="enable-background:new 0 0 160 160;" xml:space="preserve">
<style type="text/css">
<!--	.st0{fill:#fe0000;}  Red -->
<!--	.st0{fill:#372979;}  Blue --> 
	.st0{fill:#1D6E9E;}  purple 
<!--	.st0{fill:#00fc00;}  Green -->
<!--	.st0{fill:#000000;}  Black -->
</style>
<g>
	<rect x="16.4" y="16.4" class="st0" width="2.1" height="2.1"/>
	<polygon class="st0" points="18.5,12.3 12.3,12.3 12.3,18.5 14.4,18.5 14.4,14.4 18.5,14.4 	"/>
	<polygon class="st0" points="18.5,8.2 8.2,8.2 8.2,18.5 10.3,18.5 10.3,10.3 18.5,10.3 	"/>
	<polygon class="st0" points="18.5,4.1 4.1,4.1 4.1,18.5 6.2,18.5 6.2,6.2 18.5,6.2 	"/>
	<polygon class="st0" points="18.5,0 0,0 0,18.5 2.1,18.5 2.1,2.1 18.5,2.1 	"/>
</g>
<g>
	
		<rect x="141.5" y="16.4" transform="matrix(-1.836970e-16 1 -1 -1.836970e-16 160.0017 -125.1317)" class="st0" width="2.1" height="2.1"/>
	<polygon class="st0" points="147.7,18.5 147.7,12.3 141.5,12.3 141.5,14.4 145.6,14.4 145.6,18.5 	"/>
	<polygon class="st0" points="151.8,18.5 151.8,8.2 141.5,8.2 141.5,10.3 149.7,10.3 149.7,18.5 	"/>
	<polygon class="st0" points="155.9,18.5 155.9,4.1 141.5,4.1 141.5,6.2 153.8,6.2 153.8,18.5 	"/>
	<polygon class="st0" points="160,18.5 160,0 141.5,0 141.5,2.1 157.9,2.1 157.9,18.5 	"/>
</g>
<g>
	
		<rect x="23.6" y="-5.1" transform="matrix(-1.836970e-16 1 -1 -1.836970e-16 25.6424 -23.5889)" class="st0" width="2.1" height="12.3"/>
	<polygon class="st0" points="22.6,4.1 18.5,4.1 18.5,6.2 20.5,6.2 20.5,8.2 18.5,8.2 18.5,10.3 20.5,10.3 20.5,10.3 22.6,10.3 
		22.6,10.3 22.6,10.3 	"/>
	
		<rect x="23.6" y="11.3" transform="matrix(6.123234e-17 -1 1 6.123234e-17 7.1799 42.0509)" class="st0" width="2.1" height="12.3"/>
	<rect x="28.7" y="8.2" class="st0" width="2.1" height="6.2"/>
	<polygon class="st0" points="30.8,4.1 26.7,4.1 26.7,4.1 24.6,4.1 24.6,4.1 24.6,4.1 24.6,6.2 24.6,6.2 24.6,12.3 18.5,12.3 
		18.5,14.4 26.7,14.4 26.7,6.2 30.8,6.2 	"/>
</g>
<g>
	
		<rect x="35.9" y="-5.1" transform="matrix(-1.836970e-16 1 -1 -1.836970e-16 37.9501 -35.8965)" class="st0" width="2.1" height="12.3"/>
	<polygon class="st0" points="34.9,4.1 30.8,4.1 30.8,6.2 32.8,6.2 32.8,8.2 30.8,8.2 30.8,10.3 32.8,10.3 32.8,10.3 34.9,10.3 
		34.9,10.3 34.9,10.3 	"/>
	
		<rect x="35.9" y="11.3" transform="matrix(6.123234e-17 -1 1 6.123234e-17 19.4875 54.3585)" class="st0" width="2.1" height="12.3"/>
	<rect x="41" y="8.2" class="st0" width="2.1" height="6.2"/>
	<polygon class="st0" points="43.1,4.1 39,4.1 39,4.1 36.9,4.1 36.9,4.1 36.9,4.1 36.9,6.2 36.9,6.2 36.9,12.3 30.8,12.3 30.8,14.4 
		39,14.4 39,6.2 43.1,6.2 	"/>
</g>
<g>
	
		<rect x="48.2" y="-5.1" transform="matrix(-1.836970e-16 1 -1 -1.836970e-16 50.2577 -48.2042)" class="st0" width="2.1" height="12.3"/>
	<polygon class="st0" points="47.2,4.1 43.1,4.1 43.1,6.2 45.1,6.2 45.1,8.2 43.1,8.2 43.1,10.3 45.1,10.3 45.1,10.3 47.2,10.3 
		47.2,10.3 47.2,10.3 	"/>
	
		<rect x="48.2" y="11.3" transform="matrix(6.123234e-17 -1 1 6.123234e-17 31.7952 66.6662)" class="st0" width="2.1" height="12.3"/>
	<rect x="53.3" y="8.2" class="st0" width="2.1" height="6.2"/>
	<polygon class="st0" points="55.4,4.1 51.3,4.1 51.3,4.1 49.2,4.1 49.2,4.1 49.2,4.1 49.2,6.2 49.2,6.2 49.2,12.3 43.1,12.3 
		43.1,14.4 51.3,14.4 51.3,6.2 55.4,6.2 	"/>
</g>
<g>
	
		<rect x="60.5" y="-5.1" transform="matrix(-1.836970e-16 1 -1 -1.836970e-16 62.5654 -60.5118)" class="st0" width="2.1" height="12.3"/>
	<polygon class="st0" points="59.5,4.1 55.4,4.1 55.4,6.2 57.4,6.2 57.4,8.2 55.4,8.2 55.4,10.3 57.4,10.3 57.4,10.3 59.5,10.3 
		59.5,10.3 59.5,10.3 	"/>
	
		<rect x="60.5" y="11.3" transform="matrix(6.123234e-17 -1 1 6.123234e-17 44.1028 78.9738)" class="st0" width="2.1" height="12.3"/>
	<rect x="65.6" y="8.2" class="st0" width="2.1" height="6.2"/>
	<polygon class="st0" points="67.7,4.1 63.6,4.1 63.6,4.1 61.5,4.1 61.5,4.1 61.5,4.1 61.5,6.2 61.5,6.2 61.5,12.3 55.4,12.3 
		55.4,14.4 63.6,14.4 63.6,6.2 67.7,6.2 	"/>
</g>
<g>
	
		<rect x="72.8" y="-5.1" transform="matrix(-1.836970e-16 1 -1 -1.836970e-16 74.873 -72.8195)" class="st0" width="2.1" height="12.3"/>
	<polygon class="st0" points="71.8,4.1 67.7,4.1 67.7,6.2 69.7,6.2 69.7,8.2 67.7,8.2 67.7,10.3 69.7,10.3 69.7,10.3 71.8,10.3 
		71.8,10.3 71.8,10.3 	"/>
	
		<rect x="72.8" y="11.3" transform="matrix(6.123234e-17 -1 1 6.123234e-17 56.4105 91.2814)" class="st0" width="2.1" height="12.3"/>
	<rect x="77.9" y="8.2" class="st0" width="2.1" height="6.2"/>
	<polygon class="st0" points="80,4.1 75.9,4.1 75.9,4.1 73.8,4.1 73.8,4.1 73.8,4.1 73.8,6.2 73.8,6.2 73.8,12.3 67.7,12.3 
		67.7,14.4 75.9,14.4 75.9,6.2 80,6.2 	"/>
</g>
<g>
	
		<rect x="85.1" y="-5.1" transform="matrix(-1.836970e-16 1 -1 -1.836970e-16 87.1807 -85.1271)" class="st0" width="2.1" height="12.3"/>
	<polygon class="st0" points="84.1,4.1 80,4.1 80,6.2 82.1,6.2 82.1,8.2 80,8.2 80,10.3 82.1,10.3 82.1,10.3 84.1,10.3 84.1,10.3 
		84.1,10.3 	"/>
	
		<rect x="85.1" y="11.3" transform="matrix(6.123234e-17 -1 1 6.123234e-17 68.7181 103.5891)" class="st0" width="2.1" height="12.3"/>
	<rect x="90.3" y="8.2" class="st0" width="2.1" height="6.2"/>
	<polygon class="st0" points="92.3,4.1 88.2,4.1 88.2,4.1 86.2,4.1 86.2,4.1 86.2,4.1 86.2,6.2 86.2,6.2 86.2,12.3 80,12.3 80,14.4 
		88.2,14.4 88.2,6.2 92.3,6.2 	"/>
</g>
<g>
	
		<rect x="97.4" y="-5.1" transform="matrix(-1.836970e-16 1 -1 -1.836970e-16 99.4883 -97.4348)" class="st0" width="2.1" height="12.3"/>
	<polygon class="st0" points="96.4,4.1 92.3,4.1 92.3,6.2 94.4,6.2 94.4,8.2 92.3,8.2 92.3,10.3 94.4,10.3 94.4,10.3 96.4,10.3 
		96.4,10.3 96.4,10.3 	"/>
	
		<rect x="97.4" y="11.3" transform="matrix(6.123234e-17 -1 1 6.123234e-17 81.0258 115.8968)" class="st0" width="2.1" height="12.3"/>
	<rect x="102.6" y="8.2" class="st0" width="2.1" height="6.2"/>
	<polygon class="st0" points="104.6,4.1 100.5,4.1 100.5,4.1 98.5,4.1 98.5,4.1 98.5,4.1 98.5,6.2 98.5,6.2 98.5,12.3 92.3,12.3 
		92.3,14.4 100.5,14.4 100.5,6.2 104.6,6.2 	"/>
</g>
<g>
	
		<rect x="109.7" y="-5.1" transform="matrix(-1.836970e-16 1 -1 -1.836970e-16 111.796 -109.7424)" class="st0" width="2.1" height="12.3"/>
	<polygon class="st0" points="108.7,4.1 104.6,4.1 104.6,6.2 106.7,6.2 106.7,8.2 104.6,8.2 104.6,10.3 106.7,10.3 106.7,10.3 
		108.7,10.3 108.7,10.3 108.7,10.3 	"/>
	
		<rect x="109.7" y="11.3" transform="matrix(6.123234e-17 -1 1 6.123234e-17 93.3334 128.2044)" class="st0" width="2.1" height="12.3"/>
	<rect x="114.9" y="8.2" class="st0" width="2.1" height="6.2"/>
	<polygon class="st0" points="116.9,4.1 112.8,4.1 112.8,4.1 110.8,4.1 110.8,4.1 110.8,4.1 110.8,6.2 110.8,6.2 110.8,12.3 
		104.6,12.3 104.6,14.4 112.8,14.4 112.8,6.2 116.9,6.2 	"/>
</g>
<g>
	
		<rect x="122.1" y="-5.1" transform="matrix(-1.836970e-16 1 -1 -1.836970e-16 124.1036 -122.0501)" class="st0" width="2.1" height="12.3"/>
	<polygon class="st0" points="121,4.1 116.9,4.1 116.9,6.2 119,6.2 119,8.2 116.9,8.2 116.9,10.3 119,10.3 119,10.3 121,10.3 
		121,10.3 121,10.3 	"/>
	
		<rect x="122" y="11.3" transform="matrix(6.123234e-17 -1 1 6.123234e-17 105.6411 140.512)" class="st0" width="2.1" height="12.3"/>
	<rect x="127.2" y="8.2" class="st0" width="2.1" height="6.2"/>
	<polygon class="st0" points="129.2,4.1 125.1,4.1 125.1,4.1 123.1,4.1 123.1,4.1 123.1,4.1 123.1,6.2 123.1,6.2 123.1,12.3 
		116.9,12.3 116.9,14.4 125.1,14.4 125.1,6.2 129.2,6.2 	"/>
</g>
<g>
	
		<rect x="134.4" y="-5.1" transform="matrix(-1.836970e-16 1 -1 -1.836970e-16 136.4113 -134.3577)" class="st0" width="2.1" height="12.3"/>
	<polygon class="st0" points="133.3,4.1 129.2,4.1 129.2,6.2 131.3,6.2 131.3,8.2 129.2,8.2 129.2,10.3 131.3,10.3 131.3,10.3 
		133.3,10.3 133.3,10.3 133.3,10.3 	"/>
	
		<rect x="134.4" y="11.3" transform="matrix(6.123234e-17 -1 1 6.123234e-17 117.9487 152.8197)" class="st0" width="2.1" height="12.3"/>
	<rect x="139.5" y="8.2" class="st0" width="2.1" height="6.2"/>
	<polygon class="st0" points="141.5,4.1 137.4,4.1 137.4,4.1 135.4,4.1 135.4,4.1 135.4,4.1 135.4,6.2 135.4,6.2 135.4,12.3 
		129.2,12.3 129.2,14.4 137.4,14.4 137.4,6.2 141.5,6.2 	"/>
</g>
<g>
	
		<rect x="141.5" y="141.5" transform="matrix(-1 -1.224647e-16 1.224647e-16 -1 285.131 285.1325)" class="st0" width="2.1" height="2.1"/>
	<polygon class="st0" points="141.5,147.7 147.7,147.7 147.7,141.5 145.6,141.5 145.6,145.6 141.5,145.6 	"/>
	<polygon class="st0" points="141.5,151.8 151.8,151.8 151.8,141.5 149.7,141.5 149.7,149.7 141.5,149.7 	"/>
	<polygon class="st0" points="141.5,155.9 155.9,155.9 155.9,141.5 153.8,141.5 153.8,153.8 141.5,153.8 	"/>
	<polygon class="st0" points="141.5,160 160,160 160,141.5 157.9,141.5 157.9,157.9 141.5,157.9 	"/>
</g>
<g>
	
		<rect x="16.4" y="141.5" transform="matrix(6.123234e-17 -1 1 6.123234e-17 -125.1317 159.9983)" class="st0" width="2.1" height="2.1"/>
	<polygon class="st0" points="12.3,141.5 12.3,147.7 18.5,147.7 18.5,145.6 14.4,145.6 14.4,141.5 	"/>
	<polygon class="st0" points="8.2,141.5 8.2,151.8 18.5,151.8 18.5,149.7 10.3,149.7 10.3,141.5 	"/>
	<polygon class="st0" points="4.1,141.5 4.1,155.9 18.5,155.9 18.5,153.8 6.2,153.8 6.2,141.5 	"/>
	<polygon class="st0" points="0,141.5 0,160 18.5,160 18.5,157.9 2.1,157.9 2.1,141.5 	"/>
</g>
<g>
	
		<rect x="134.4" y="152.8" transform="matrix(6.123234e-17 -1 1 6.123234e-17 -23.5883 294.3581)" class="st0" width="2.1" height="12.3"/>
	<polygon class="st0" points="137.4,155.9 141.5,155.9 141.5,153.8 139.5,153.8 139.5,151.8 141.5,151.8 141.5,149.7 139.5,149.7 
		139.5,149.7 137.4,149.7 137.4,149.7 137.4,149.7 	"/>
	
		<rect x="134.4" y="136.4" transform="matrix(-1.836970e-16 1 -1 -1.836970e-16 277.9497 7.1793)" class="st0" width="2.1" height="12.3"/>
	
		<rect x="129.2" y="145.6" transform="matrix(-1 -1.224647e-16 1.224647e-16 -1 260.5137 297.4377)" class="st0" width="2.1" height="6.2"/>
	<polygon class="st0" points="129.2,155.9 133.3,155.9 133.3,155.9 135.4,155.9 135.4,155.9 135.4,155.9 135.4,153.8 135.4,153.8 
		135.4,147.7 141.5,147.7 141.5,145.6 133.3,145.6 133.3,153.8 129.2,153.8 	"/>
</g>
<g>
	
		<rect x="122" y="152.7" transform="matrix(6.123234e-17 -1 1 6.123234e-17 -35.9848 281.9616)" class="st0" width="2.1" height="12.5"/>
	<polygon class="st0" points="125.1,155.9 129.2,155.9 129.2,153.8 127.1,153.8 127.1,151.8 129.2,151.8 129.2,149.7 127.1,149.7 
		127.1,149.7 125.1,149.7 125.1,149.7 125.1,149.7 	"/>
	
		<rect x="122" y="136.3" transform="matrix(-1.836970e-16 1 -1 -1.836970e-16 265.5532 19.5758)" class="st0" width="2.1" height="12.5"/>
	
		<rect x="116.7" y="145.6" transform="matrix(-1 -1.224647e-16 1.224647e-16 -1 235.5719 297.4377)" class="st0" width="2.1" height="6.2"/>
	<polygon class="st0" points="116.7,155.9 120.9,155.9 120.9,155.9 123,155.9 123,155.9 123,155.9 123,153.8 123,153.8 123,147.7 
		129.2,147.7 129.2,145.6 120.9,145.6 120.9,153.8 116.7,153.8 	"/>
</g>
<g>
	
		<rect x="109.6" y="152.8" transform="matrix(6.123234e-17 -1 1 6.123234e-17 -48.3817 269.5647)" class="st0" width="2.1" height="12.3"/>
	<polygon class="st0" points="112.6,155.9 116.7,155.9 116.7,153.8 114.7,153.8 114.7,151.8 116.7,151.8 116.7,149.7 114.7,149.7 
		114.7,149.7 112.6,149.7 112.6,149.7 112.6,149.7 	"/>
	
		<rect x="109.6" y="136.4" transform="matrix(-1.836970e-16 1 -1 -1.836970e-16 253.1563 31.9727)" class="st0" width="2.1" height="12.3"/>
	
		<rect x="104.4" y="145.6" transform="matrix(-1 -1.224647e-16 1.224647e-16 -1 210.9269 297.4377)" class="st0" width="2.1" height="6.2"/>
	<polygon class="st0" points="104.4,155.9 108.5,155.9 108.5,155.9 110.6,155.9 110.6,155.9 110.6,155.9 110.6,153.8 110.6,153.8 
		110.6,147.7 116.7,147.7 116.7,145.6 108.5,145.6 108.5,153.8 104.4,153.8 	"/>
</g>
<g>
	
		<rect x="97.3" y="152.8" transform="matrix(6.123234e-17 -1 1 6.123234e-17 -60.6894 257.2571)" class="st0" width="2.1" height="12.3"/>
	<polygon class="st0" points="100.3,155.9 104.4,155.9 104.4,153.8 102.4,153.8 102.4,151.8 104.4,151.8 104.4,149.7 102.4,149.7 
		102.4,149.7 100.3,149.7 100.3,149.7 100.3,149.7 	"/>
	
		<rect x="97.3" y="136.4" transform="matrix(-1.836970e-16 1 -1 -1.836970e-16 240.8486 44.2804)" class="st0" width="2.1" height="12.3"/>
	
		<rect x="92.1" y="145.6" transform="matrix(-1 -1.224647e-16 1.224647e-16 -1 186.3116 297.4377)" class="st0" width="2.1" height="6.2"/>
	<polygon class="st0" points="92.1,155.9 96.2,155.9 96.2,155.9 98.3,155.9 98.3,155.9 98.3,155.9 98.3,153.8 98.3,153.8 
		98.3,147.7 104.4,147.7 104.4,145.6 96.2,145.6 96.2,153.8 92.1,153.8 	"/>
</g>
<g>
	
		<rect x="84.9" y="152.8" transform="matrix(6.123234e-17 -1 1 6.123234e-17 -72.997 244.9494)" class="st0" width="2.1" height="12.3"/>
	<polygon class="st0" points="88,155.9 92.1,155.9 92.1,153.8 90.1,153.8 90.1,151.8 92.1,151.8 92.1,149.7 90.1,149.7 90.1,149.7 
		88,149.7 88,149.7 88,149.7 	"/>
	
		<rect x="84.9" y="136.4" transform="matrix(-1.836970e-16 1 -1 -1.836970e-16 228.541 56.588)" class="st0" width="2.1" height="12.3"/>
	
		<rect x="79.8" y="145.6" transform="matrix(-1 -1.224647e-16 1.224647e-16 -1 161.6963 297.4377)" class="st0" width="2.1" height="6.2"/>
	<polygon class="st0" points="79.8,155.9 83.9,155.9 83.9,155.9 86,155.9 86,155.9 86,155.9 86,153.8 86,153.8 86,147.7 92.1,147.7 
		92.1,145.6 83.9,145.6 83.9,153.8 79.8,153.8 	"/>
</g>
<g>
	
		<rect x="72.6" y="152.8" transform="matrix(6.123234e-17 -1 1 6.123234e-17 -85.3047 232.6418)" class="st0" width="2.1" height="12.3"/>
	<polygon class="st0" points="75.7,155.9 79.8,155.9 79.8,153.8 77.8,153.8 77.8,151.8 79.8,151.8 79.8,149.7 77.8,149.7 
		77.8,149.7 75.7,149.7 75.7,149.7 75.7,149.7 	"/>
	
		<rect x="72.6" y="136.4" transform="matrix(-1.836970e-16 1 -1 -1.836970e-16 216.2333 68.8957)" class="st0" width="2.1" height="12.3"/>
	
		<rect x="67.5" y="145.6" transform="matrix(-1 -1.224647e-16 1.224647e-16 -1 137.081 297.4377)" class="st0" width="2.1" height="6.2"/>
	<polygon class="st0" points="67.5,155.9 71.6,155.9 71.6,155.9 73.7,155.9 73.7,155.9 73.7,155.9 73.7,153.8 73.7,153.8 
		73.7,147.7 79.8,147.7 79.8,145.6 71.6,145.6 71.6,153.8 67.5,153.8 	"/>
</g>
<g>
	
		<rect x="60.3" y="152.8" transform="matrix(6.123234e-17 -1 1 6.123234e-17 -97.6123 220.3341)" class="st0" width="2.1" height="12.3"/>
	<polygon class="st0" points="63.4,155.9 67.5,155.9 67.5,153.8 65.5,153.8 65.5,151.8 67.5,151.8 67.5,149.7 65.5,149.7 
		65.5,149.7 63.4,149.7 63.4,149.7 63.4,149.7 	"/>
	
		<rect x="60.3" y="136.4" transform="matrix(-1.836970e-16 1 -1 -1.836970e-16 203.9257 81.2033)" class="st0" width="2.1" height="12.3"/>
	
		<rect x="55.2" y="145.6" transform="matrix(-1 -1.224647e-16 1.224647e-16 -1 112.4657 297.4377)" class="st0" width="2.1" height="6.2"/>
	<polygon class="st0" points="55.2,155.9 59.3,155.9 59.3,155.9 61.4,155.9 61.4,155.9 61.4,155.9 61.4,153.8 61.4,153.8 
		61.4,147.7 67.5,147.7 67.5,145.6 59.3,145.6 59.3,153.8 55.2,153.8 	"/>
</g>
<g>
	
		<rect x="48" y="152.8" transform="matrix(6.123234e-17 -1 1 6.123234e-17 -109.92 208.0265)" class="st0" width="2.1" height="12.3"/>
	<polygon class="st0" points="51.1,155.9 55.2,155.9 55.2,153.8 53.2,153.8 53.2,151.8 55.2,151.8 55.2,149.7 53.2,149.7 
		53.2,149.7 51.1,149.7 51.1,149.7 51.1,149.7 	"/>
	
		<rect x="48" y="136.4" transform="matrix(-1.836970e-16 1 -1 -1.836970e-16 191.618 93.511)" class="st0" width="2.1" height="12.3"/>
	
		<rect x="42.9" y="145.6" transform="matrix(-1 -1.224647e-16 1.224647e-16 -1 87.8504 297.4377)" class="st0" width="2.1" height="6.2"/>
	<polygon class="st0" points="42.9,155.9 47,155.9 47,155.9 49,155.9 49,155.9 49.1,155.9 49.1,153.8 49,153.8 49,147.7 55.2,147.7 
		55.2,145.6 47,145.6 47,153.8 42.9,153.8 	"/>
</g>
<g>
	
		<rect x="35.7" y="152.8" transform="matrix(6.123234e-17 -1 1 6.123234e-17 -122.2276 195.7188)" class="st0" width="2.1" height="12.3"/>
	<polygon class="st0" points="38.8,155.9 42.9,155.9 42.9,153.8 40.8,153.8 40.8,151.8 42.9,151.8 42.9,149.7 40.8,149.7 
		40.8,149.7 38.8,149.7 38.8,149.7 38.8,149.7 	"/>
	
		<rect x="35.7" y="136.4" transform="matrix(-1.836970e-16 1 -1 -1.836970e-16 179.3104 105.8186)" class="st0" width="2.1" height="12.3"/>
	
		<rect x="30.6" y="145.6" transform="matrix(-1 -1.224647e-16 1.224647e-16 -1 63.2351 297.4377)" class="st0" width="2.1" height="6.2"/>
	<polygon class="st0" points="30.6,155.9 34.7,155.9 34.7,155.9 36.7,155.9 36.7,155.9 36.7,155.9 36.7,153.8 36.7,153.8 
		36.7,147.7 42.9,147.7 42.9,145.6 34.7,145.6 34.7,153.8 30.6,153.8 	"/>
</g>
<g>
	
		<rect x="23.4" y="152.8" transform="matrix(6.123234e-17 -1 1 6.123234e-17 -134.5353 183.4112)" class="st0" width="2.1" height="12.3"/>
	<polygon class="st0" points="26.5,155.9 30.6,155.9 30.6,153.8 28.5,153.8 28.5,151.8 30.6,151.8 30.6,149.7 28.5,149.7 
		28.5,149.7 26.5,149.7 26.5,149.7 26.5,149.7 	"/>
	
		<rect x="23.4" y="136.4" transform="matrix(-1.836970e-16 1 -1 -1.836970e-16 167.0027 118.1263)" class="st0" width="2.1" height="12.3"/>
	
		<rect x="18.3" y="145.6" transform="matrix(-1 -1.224647e-16 1.224647e-16 -1 38.6198 297.4377)" class="st0" width="2.1" height="6.2"/>
	<polygon class="st0" points="18.3,155.9 22.4,155.9 22.4,155.9 24.4,155.9 24.4,155.9 24.4,155.9 24.4,153.8 24.4,153.8 
		24.4,147.7 30.6,147.7 30.6,145.6 22.4,145.6 22.4,153.8 18.3,153.8 	"/>
</g>
<g>
	<rect y="18.5" class="st0" width="2.1" height="12.3"/>
	<polygon class="st0" points="4.1,26.7 4.1,30.8 6.2,30.8 6.2,28.7 8.2,28.7 8.2,30.8 10.3,30.8 10.3,28.7 10.3,28.7 10.3,26.7 
		10.3,26.7 10.3,26.7 	"/>
	
		<rect x="16.4" y="18.5" transform="matrix(-1 -1.224647e-16 1.224647e-16 -1 34.8695 49.232)" class="st0" width="2.1" height="12.3"/>
	
		<rect x="10.3" y="16.4" transform="matrix(6.123234e-17 -1 1 6.123234e-17 -8.2068 30.7681)" class="st0" width="2.1" height="6.2"/>
	<polygon class="st0" points="4.1,18.5 4.1,22.6 4.1,22.6 4.1,24.6 4.1,24.6 4.1,24.6 6.2,24.6 6.2,24.6 12.3,24.6 12.3,30.8 
		14.4,30.8 14.4,22.6 6.2,22.6 6.2,18.5 	"/>
</g>
<g>
	<rect y="30.8" class="st0" width="2.1" height="12.3"/>
	<polygon class="st0" points="4.1,39 4.1,43.1 6.2,43.1 6.2,41 8.2,41 8.2,43.1 10.3,43.1 10.3,41 10.3,41 10.3,39 10.3,39 10.3,39 
			"/>
	
		<rect x="16.4" y="30.8" transform="matrix(-1 -1.224647e-16 1.224647e-16 -1 34.8695 73.8472)" class="st0" width="2.1" height="12.3"/>
	
		<rect x="10.3" y="28.7" transform="matrix(6.123234e-17 -1 1 6.123234e-17 -20.5144 43.0757)" class="st0" width="2.1" height="6.2"/>
	<polygon class="st0" points="4.1,30.8 4.1,34.9 4.1,34.9 4.1,36.9 4.1,36.9 4.1,36.9 6.2,36.9 6.2,36.9 12.3,36.9 12.3,43.1 
		14.4,43.1 14.4,34.9 6.2,34.9 6.2,30.8 	"/>
</g>
<g>
	<rect y="43.1" class="st0" width="2.1" height="12.3"/>
	<polygon class="st0" points="4.1,51.3 4.1,55.4 6.2,55.4 6.2,53.3 8.2,53.3 8.2,55.4 10.3,55.4 10.3,53.3 10.3,53.3 10.3,51.3 
		10.3,51.3 10.3,51.3 	"/>
	
		<rect x="16.4" y="43.1" transform="matrix(-1 -1.224647e-16 1.224647e-16 -1 34.8695 98.4624)" class="st0" width="2.1" height="12.3"/>
	<rect x="10.3" y="41" transform="matrix(6.123234e-17 -1 1 6.123234e-17 -32.822 55.3833)" class="st0" width="2.1" height="6.2"/>
	<polygon class="st0" points="4.1,43.1 4.1,47.2 4.1,47.2 4.1,49.2 4.1,49.2 4.1,49.2 6.2,49.2 6.2,49.2 12.3,49.2 12.3,55.4 
		14.4,55.4 14.4,47.2 6.2,47.2 6.2,43.1 	"/>
</g>
<g>
	<rect y="55.4" class="st0" width="2.1" height="12.3"/>
	<polygon class="st0" points="4.1,63.6 4.1,67.7 6.2,67.7 6.2,65.6 8.2,65.6 8.2,67.7 10.3,67.7 10.3,65.6 10.3,65.6 10.3,63.6 
		10.3,63.6 10.3,63.6 	"/>
	
		<rect x="16.4" y="55.4" transform="matrix(-1 -1.224647e-16 1.224647e-16 -1 34.8695 123.0776)" class="st0" width="2.1" height="12.3"/>
	
		<rect x="10.3" y="53.3" transform="matrix(6.123234e-17 -1 1 6.123234e-17 -45.1296 67.6909)" class="st0" width="2.1" height="6.2"/>
	<polygon class="st0" points="4.1,55.4 4.1,59.5 4.1,59.5 4.1,61.5 4.1,61.5 4.1,61.5 6.2,61.5 6.2,61.5 12.3,61.5 12.3,67.7 
		14.4,67.7 14.4,59.5 6.2,59.5 6.2,55.4 	"/>
</g>
<g>
	<rect y="67.7" class="st0" width="2.1" height="12.3"/>
	<polygon class="st0" points="4.1,75.9 4.1,80 6.2,80 6.2,77.9 8.2,77.9 8.2,80 10.3,80 10.3,77.9 10.3,77.9 10.3,75.9 10.3,75.9 
		10.3,75.9 	"/>
	
		<rect x="16.4" y="67.7" transform="matrix(-1 -1.224647e-16 1.224647e-16 -1 34.8695 147.6928)" class="st0" width="2.1" height="12.3"/>
	
		<rect x="10.3" y="65.6" transform="matrix(6.123234e-17 -1 1 6.123234e-17 -57.4372 79.9986)" class="st0" width="2.1" height="6.2"/>
	<polygon class="st0" points="4.1,67.7 4.1,71.8 4.1,71.8 4.1,73.8 4.1,73.8 4.1,73.8 6.2,73.8 6.2,73.8 12.3,73.8 12.3,80 14.4,80 
		14.4,71.8 6.2,71.8 6.2,67.7 	"/>
</g>
<g>
	<rect y="80" class="st0" width="2.1" height="12.3"/>
	<polygon class="st0" points="4.1,88.2 4.1,92.3 6.2,92.3 6.2,90.3 8.2,90.3 8.2,92.3 10.3,92.3 10.3,90.3 10.3,90.3 10.3,88.2 
		10.3,88.2 10.3,88.2 	"/>
	
		<rect x="16.4" y="80" transform="matrix(-1 -1.224647e-16 1.224647e-16 -1 34.8695 172.308)" class="st0" width="2.1" height="12.3"/>
	
		<rect x="10.3" y="77.9" transform="matrix(6.123234e-17 -1 1 6.123234e-17 -69.7448 92.3061)" class="st0" width="2.1" height="6.2"/>
	<polygon class="st0" points="4.1,80 4.1,84.1 4.1,84.1 4.1,86.2 4.1,86.2 4.1,86.2 6.2,86.2 6.2,86.2 12.3,86.2 12.3,92.3 
		14.4,92.3 14.4,84.1 6.2,84.1 6.2,80 	"/>
</g>
<g>
	<rect y="92.3" class="st0" width="2.1" height="12.3"/>
	<polygon class="st0" points="4.1,100.5 4.1,104.6 6.2,104.6 6.2,102.6 8.2,102.6 8.2,104.6 10.3,104.6 10.3,102.6 10.3,102.6 
		10.3,100.5 10.3,100.5 10.3,100.5 	"/>
	
		<rect x="16.4" y="92.3" transform="matrix(-1 -1.224647e-16 1.224647e-16 -1 34.8695 196.9232)" class="st0" width="2.1" height="12.3"/>
	
		<rect x="10.3" y="90.3" transform="matrix(6.123234e-17 -1 1 6.123234e-17 -82.0524 104.6137)" class="st0" width="2.1" height="6.2"/>
	<polygon class="st0" points="4.1,92.3 4.1,96.4 4.1,96.4 4.1,98.5 4.1,98.5 4.1,98.5 6.2,98.5 6.2,98.5 12.3,98.5 12.3,104.6 
		14.4,104.6 14.4,96.4 6.2,96.4 6.2,92.3 	"/>
</g>
<g>
	<rect y="104.6" class="st0" width="2.1" height="12.3"/>
	<polygon class="st0" points="4.1,112.8 4.1,116.9 6.2,116.9 6.2,114.9 8.2,114.9 8.2,116.9 10.3,116.9 10.3,114.9 10.3,114.9 
		10.3,112.8 10.3,112.8 10.3,112.8 	"/>
	
		<rect x="16.4" y="104.6" transform="matrix(-1 -1.224647e-16 1.224647e-16 -1 34.8695 221.5385)" class="st0" width="2.1" height="12.3"/>
	
		<rect x="10.3" y="102.6" transform="matrix(6.123234e-17 -1 1 6.123234e-17 -94.36 116.9213)" class="st0" width="2.1" height="6.2"/>
	<polygon class="st0" points="4.1,104.6 4.1,108.7 4.1,108.7 4.1,110.8 4.1,110.8 4.1,110.8 6.2,110.8 6.2,110.8 12.3,110.8 
		12.3,116.9 14.4,116.9 14.4,108.7 6.2,108.7 6.2,104.6 	"/>
</g>
<g>
	<rect y="129.2" class="st0" width="2.1" height="12.3"/>
	<polygon class="st0" points="4.1,137.4 4.1,141.5 6.2,141.5 6.2,139.5 8.2,139.5 8.2,141.5 10.3,141.5 10.3,139.5 10.3,139.5 
		10.3,137.4 10.3,137.4 10.3,137.4 	"/>
	
		<rect x="16.4" y="129.2" transform="matrix(-1 -1.224647e-16 1.224647e-16 -1 34.8695 270.7689)" class="st0" width="2.1" height="12.3"/>
	
		<rect x="10.3" y="127.2" transform="matrix(6.123234e-17 -1 1 6.123234e-17 -118.9752 141.5365)" class="st0" width="2.1" height="6.2"/>
	<polygon class="st0" points="4.1,129.2 4.1,133.3 4.1,133.3 4.1,135.4 4.1,135.4 4.1,135.4 6.2,135.4 6.2,135.4 12.3,135.4 
		12.3,141.5 14.4,141.5 14.4,133.3 6.2,133.3 6.2,129.2 	"/>
</g>
<g>
	<rect x="141.5" y="18.5" class="st0" width="2.1" height="12.3"/>
	<polygon class="st0" points="145.6,26.7 145.6,30.8 147.7,30.8 147.7,28.7 149.8,28.7 149.8,30.8 151.8,30.8 151.8,28.7 
		151.8,28.7 151.8,26.7 151.8,26.7 151.8,26.7 	"/>
	
		<rect x="157.9" y="18.5" transform="matrix(-1 -1.224647e-16 1.224647e-16 -1 317.9465 49.232)" class="st0" width="2.1" height="12.3"/>
	
		<rect x="151.8" y="16.4" transform="matrix(6.123234e-17 -1 1 6.123234e-17 133.3318 172.3067)" class="st0" width="2.1" height="6.2"/>
	<polygon class="st0" points="145.7,18.5 145.7,22.6 145.6,22.6 145.6,24.6 145.7,24.6 145.7,24.6 147.7,24.6 147.7,24.6 
		153.8,24.6 153.8,30.8 155.9,30.8 155.9,22.6 147.7,22.6 147.7,18.5 	"/>
</g>
<g>
	<rect x="141.5" y="30.8" class="st0" width="2.1" height="12.3"/>
	<polygon class="st0" points="145.6,39 145.6,43.1 147.7,43.1 147.7,41 149.8,41 149.8,43.1 151.8,43.1 151.8,41 151.8,41 151.8,39 
		151.8,39 151.8,39 	"/>
	
		<rect x="157.9" y="30.8" transform="matrix(-1 -1.224647e-16 1.224647e-16 -1 317.9465 73.8472)" class="st0" width="2.1" height="12.3"/>
	
		<rect x="151.8" y="28.7" transform="matrix(6.123234e-17 -1 1 6.123234e-17 121.0242 184.6143)" class="st0" width="2.1" height="6.2"/>
	<polygon class="st0" points="145.7,30.8 145.7,34.9 145.6,34.9 145.6,36.9 145.7,36.9 145.7,36.9 147.7,36.9 147.7,36.9 
		153.8,36.9 153.8,43.1 155.9,43.1 155.9,34.9 147.7,34.9 147.7,30.8 	"/>
</g>
<g>
	<rect x="141.5" y="43.1" class="st0" width="2.1" height="12.3"/>
	<polygon class="st0" points="145.6,51.3 145.6,55.4 147.7,55.4 147.7,53.3 149.8,53.3 149.8,55.4 151.8,55.4 151.8,53.3 
		151.8,53.3 151.8,51.3 151.8,51.3 151.8,51.3 	"/>
	
		<rect x="157.9" y="43.1" transform="matrix(-1 -1.224647e-16 1.224647e-16 -1 317.9465 98.4624)" class="st0" width="2.1" height="12.3"/>
	
		<rect x="151.8" y="41" transform="matrix(6.123234e-17 -1 1 6.123234e-17 108.7166 196.9219)" class="st0" width="2.1" height="6.2"/>
	<polygon class="st0" points="145.7,43.1 145.7,47.2 145.6,47.2 145.6,49.2 145.7,49.2 145.7,49.2 147.7,49.2 147.7,49.2 
		153.8,49.2 153.8,55.4 155.9,55.4 155.9,47.2 147.7,47.2 147.7,43.1 	"/>
</g>
<g>
	<rect x="141.5" y="55.4" class="st0" width="2.1" height="12.3"/>
	<polygon class="st0" points="145.6,63.6 145.6,67.7 147.7,67.7 147.7,65.6 149.8,65.6 149.8,67.7 151.8,67.7 151.8,65.6 
		151.8,65.6 151.8,63.6 151.8,63.6 151.8,63.6 	"/>
	
		<rect x="157.9" y="55.4" transform="matrix(-1 -1.224647e-16 1.224647e-16 -1 317.9465 123.0776)" class="st0" width="2.1" height="12.3"/>
	
		<rect x="151.8" y="53.3" transform="matrix(6.123234e-17 -1 1 6.123234e-17 96.409 209.2295)" class="st0" width="2.1" height="6.2"/>
	<polygon class="st0" points="145.7,55.4 145.7,59.5 145.6,59.5 145.6,61.5 145.7,61.5 145.7,61.5 147.7,61.5 147.7,61.5 
		153.8,61.5 153.8,67.7 155.9,67.7 155.9,59.5 147.7,59.5 147.7,55.4 	"/>
</g>
<g>
	<rect x="141.5" y="67.7" class="st0" width="2.1" height="12.3"/>
	<polygon class="st0" points="145.6,75.9 145.6,80 147.7,80 147.7,77.9 149.8,77.9 149.8,80 151.8,80 151.8,77.9 151.8,77.9 
		151.8,75.9 151.8,75.9 151.8,75.9 	"/>
	
		<rect x="157.9" y="67.7" transform="matrix(-1 -1.224647e-16 1.224647e-16 -1 317.9465 147.6928)" class="st0" width="2.1" height="12.3"/>
	
		<rect x="151.8" y="65.6" transform="matrix(6.123234e-17 -1 1 6.123234e-17 84.1014 221.5371)" class="st0" width="2.1" height="6.2"/>
	<polygon class="st0" points="145.7,67.7 145.7,71.8 145.6,71.8 145.6,73.8 145.7,73.8 145.7,73.8 147.7,73.8 147.7,73.8 
		153.8,73.8 153.8,80 155.9,80 155.9,71.8 147.7,71.8 147.7,67.7 	"/>
</g>
<g>
	<rect x="141.5" y="80" class="st0" width="2.1" height="12.3"/>
	<polygon class="st0" points="145.6,88.2 145.6,92.3 147.7,92.3 147.7,90.3 149.8,90.3 149.8,92.3 151.8,92.3 151.8,90.3 
		151.8,90.3 151.8,88.2 151.8,88.2 151.8,88.2 	"/>
	
		<rect x="157.9" y="80" transform="matrix(-1 -1.224647e-16 1.224647e-16 -1 317.9465 172.308)" class="st0" width="2.1" height="12.3"/>
	
		<rect x="151.8" y="77.9" transform="matrix(6.123234e-17 -1 1 6.123234e-17 71.7938 233.8447)" class="st0" width="2.1" height="6.2"/>
	<polygon class="st0" points="145.7,80 145.7,84.1 145.6,84.1 145.6,86.2 145.7,86.2 145.7,86.2 147.7,86.2 147.7,86.2 153.8,86.2 
		153.8,92.3 155.9,92.3 155.9,84.1 147.7,84.1 147.7,80 	"/>
</g>
<g>
	<rect x="141.5" y="92.3" class="st0" width="2.1" height="12.3"/>
	<polygon class="st0" points="145.6,100.5 145.6,104.6 147.7,104.6 147.7,102.6 149.8,102.6 149.8,104.6 151.8,104.6 151.8,102.6 
		151.8,102.6 151.8,100.5 151.8,100.5 151.8,100.5 	"/>
	
		<rect x="157.9" y="92.3" transform="matrix(-1 -1.224647e-16 1.224647e-16 -1 317.9465 196.9232)" class="st0" width="2.1" height="12.3"/>
	
		<rect x="151.8" y="90.3" transform="matrix(6.123234e-17 -1 1 6.123234e-17 59.4862 246.1523)" class="st0" width="2.1" height="6.2"/>
	<polygon class="st0" points="145.7,92.3 145.7,96.4 145.6,96.4 145.6,98.5 145.7,98.5 145.7,98.5 147.7,98.5 147.7,98.5 
		153.8,98.5 153.8,104.6 155.9,104.6 155.9,96.4 147.7,96.4 147.7,92.3 	"/>
</g>
<g>
	<rect x="141.5" y="104.6" class="st0" width="2.1" height="12.3"/>
	<polygon class="st0" points="145.6,112.8 145.6,116.9 147.7,116.9 147.7,114.9 149.8,114.9 149.8,116.9 151.8,116.9 151.8,114.9 
		151.8,114.9 151.8,112.8 151.8,112.8 151.8,112.8 	"/>
	
		<rect x="157.9" y="104.6" transform="matrix(-1 -1.224647e-16 1.224647e-16 -1 317.9465 221.5385)" class="st0" width="2.1" height="12.3"/>
	
		<rect x="151.8" y="102.6" transform="matrix(6.123234e-17 -1 1 6.123234e-17 47.1786 258.4599)" class="st0" width="2.1" height="6.2"/>
	<polygon class="st0" points="145.7,104.6 145.7,108.7 145.6,108.7 145.6,110.8 145.7,110.8 145.7,110.8 147.7,110.8 147.7,110.8 
		153.8,110.8 153.8,116.9 155.9,116.9 155.9,108.7 147.7,108.7 147.7,104.6 	"/>
</g>
<g>
	<rect y="116.9" class="st0" width="2.1" height="12.3"/>
	<polygon class="st0" points="4.1,125.1 4.1,129.2 6.2,129.2 6.2,127.2 8.2,127.2 8.2,129.2 10.3,129.2 10.3,127.2 10.3,127.2 
		10.3,125.1 10.3,125.1 10.3,125.1 	"/>
	
		<rect x="16.4" y="116.9" transform="matrix(-1 -1.224647e-16 1.224647e-16 -1 34.8695 246.1537)" class="st0" width="2.1" height="12.3"/>
	
		<rect x="10.3" y="114.9" transform="matrix(6.123234e-17 -1 1 6.123234e-17 -106.6676 129.2289)" class="st0" width="2.1" height="6.2"/>
	<polygon class="st0" points="4.1,116.9 4.1,121 4.1,121 4.1,123.1 4.1,123.1 4.1,123.1 6.2,123.1 6.2,123.1 12.3,123.1 12.3,129.2 
		14.4,129.2 14.4,121 6.2,121 6.2,116.9 	"/>
</g>
<g>
	<rect x="141.5" y="116.9" class="st0" width="2.1" height="12.3"/>
	<polygon class="st0" points="145.6,125.1 145.6,129.2 147.7,129.2 147.7,127.2 149.8,127.2 149.8,129.2 151.8,129.2 151.8,127.2 
		151.8,127.2 151.8,125.1 151.8,125.1 151.8,125.1 	"/>
	
		<rect x="157.9" y="116.9" transform="matrix(-1 -1.224647e-16 1.224647e-16 -1 317.9465 246.1537)" class="st0" width="2.1" height="12.3"/>
	
		<rect x="151.8" y="114.9" transform="matrix(6.123234e-17 -1 1 6.123234e-17 34.871 270.7675)" class="st0" width="2.1" height="6.2"/>
	<polygon class="st0" points="145.7,116.9 145.7,121 145.6,121 145.6,123.1 145.7,123.1 145.7,123.1 147.7,123.1 147.7,123.1 
		153.8,123.1 153.8,129.2 155.9,129.2 155.9,121 147.7,121 147.7,116.9 	"/>
</g>
<g>
	<rect x="141.5" y="129.2" class="st0" width="2.1" height="12.3"/>
	<polygon class="st0" points="145.6,137.4 145.6,141.5 147.7,141.5 147.7,139.5 149.8,139.5 149.8,141.5 151.8,141.5 151.8,139.5 
		151.8,139.5 151.8,137.4 151.8,137.4 151.8,137.4 	"/>
	
		<rect x="157.9" y="129.2" transform="matrix(-1 -1.224647e-16 1.224647e-16 -1 317.9465 270.7689)" class="st0" width="2.1" height="12.3"/>
	
		<rect x="151.8" y="127.2" transform="matrix(6.123234e-17 -1 1 6.123234e-17 22.5634 283.0751)" class="st0" width="2.1" height="6.2"/>
	<polygon class="st0" points="145.7,129.2 145.7,133.3 145.6,133.3 145.6,135.4 145.7,135.4 145.7,135.4 147.7,135.4 147.7,135.4 
		153.8,135.4 153.8,141.5 155.9,141.5 155.9,133.3 147.7,133.3 147.7,129.2 	"/>
</g>
</svg>
