<?xml version="1.0" encoding="utf-8"?>
<!-- Generator: Adobe Illustrator 21.1.0, SVG Export Plug-In . SVG Version: 6.00 Build 0)  -->
<svg version="1.1" id="Layer_1" xmlns="http://www.w3.org/2000/svg" xmlns:xlink="http://www.w3.org/1999/xlink" x="0px" y="0px"
	 viewBox="0 0 12 18" style="enable-background:new 0 0 12 18;" xml:space="preserve">
<style type="text/css">
	.st0{fill:#372979;}
</style>
<rect x="5" y="-5" transform="matrix(-1.836970e-16 1 -1 -1.836970e-16 7.0011 -4.999)" class="st0" width="2" height="12"/>
<polygon class="st0" points="4,4 0,4 0,6 2,6 2,8 0,8 0,10 2,10 2,10 4,10 4,10 4,10 "/>
<rect x="5" y="11" transform="matrix(6.123234e-17 -1 1 6.123234e-17 -10.9991 22.9987)" class="st0" width="2" height="12"/>
<rect x="10" y="8" class="st0" width="2" height="6"/>
<polygon class="st0" points="12,4 8,4 8,4 6,4 6,4 6,4 6,6 6,6 6,12 0,12 0,14 8,14 8,6 12,6 "/>
</svg>
