<?xml version="1.0" encoding="utf-8"?>
<!-- Generator: Adobe Illustrator 22.0.1, SVG Export Plug-In . SVG Version: 6.00 Build 0)  -->
<svg version="1.1" xmlns="http://www.w3.org/2000/svg" xmlns:xlink="http://www.w3.org/1999/xlink" x="0px" y="0px"
	 viewBox="0 0 240.7 60.8" style="enable-background:new 0 0 240.7 60.8;" xml:space="preserve">
    
<style type="text/css">

	.tmg{fill:black;}

</style>

<g id="TMG" class="tmg">
	<path d="M50,33.8c-0.3-0.2-0.7-0.3-1.3-0.1c-1.1,0.3-1.5,1.3-1.1,2.5c0.2,0.8-0.6,1.8-1.3,2.5c-1.2,1.2-2.6,2-4.1,2.6
		c-1.6,0.6-3.7,1.1-6.4,1.3c-2.7,0.3-5.4,0.2-8.2-0.3c-2.7-0.4-5.1-1.5-7.2-3.2c-2.1-1.7-3.3-3.7-3.8-6.1c-0.3-1.8-0.5-3.7-0.5-5.7
		c0-0.7,0-1.5,0.1-2.3c0.2-2.8,0.6-5.7,1.2-8.8c0.6-2.9,1.5-6.1,2.9-9.6c1.6-0.1,3-0.2,4-0.4c0.2,0,0.2,0,0.3,0
		c-0.1,0.2-0.2,0.4-0.2,0.6c0,0.1,0,0.3,0.1,0.4c0.1,0.2,0.3,0.6,0.8,0.8c0,0,1.1,0,1.1,0C26.8,8,27.1,7.6,27.3,7
		c0.2-0.6,0.5-1.2,0.9-1.7c0.4-0.5,0.8-0.8,1.3-1c1-0.5,1.2-1.1,1.2-1.6c-0.1-0.8-0.8-1.1-2-1.1l-0.3,0.1c-1.4,0.7-3.3,1.1-5.6,1.2
		c-2.4,0.1-5.5,0.3-9.3,0.7C8.7,4.3,5.2,5.7,3,7.7c-2.3,2-3.3,4.7-2.9,7.8c0.1,0.8,0.3,1.7,0.7,2.7c0.4,1,1,1.9,1.9,2.6
		c0.9,0.7,1.7,1.1,2.5,1.1c0.9,0,1.6-0.4,2-1.2c0.4-0.8,0.2-1.6-0.4-2.1c-0.4-0.3-1.1-0.7-2.2-0.4c-0.4,0.1-0.9-0.6-1.1-1
		c-0.2-0.4-0.3-1-0.3-1.6c0-0.8,0.2-1.7,0.5-2.8c0.6-2,1.9-3.4,4.1-4.1c2.1-0.8,4.9-1.2,8.3-1.4c-1.5,5.3-2.5,9.7-3,13.1
		c-0.4,3-0.6,5.5-0.6,7.7c0,0.5,0,1,0,1.4c0.1,2.4,0.5,4.7,1.2,6.8c0.7,2.1,1.9,4,3.6,5.4c1.6,1.4,3.7,2.5,6,3.4
		c2.3,0.9,4.6,1.3,6.9,1.4c2.2,0,5.1-0.1,8.6-0.6c1.9-0.2,3.8-0.8,5.8-1.8c2-1,3.6-2.2,4.7-3.6c1.2-1.5,1.8-2.9,1.9-4.3l0-0.2
		C50.8,34.7,50.5,34.1,50,33.8z M30.4,15.4c-1.6,0.4-3,1-4.1,1.7c-1.1,0.8-2.1,2.1-2.9,4c-0.7,1.8-1.2,3.5-1.3,5
		c-0.1,1.5-0.2,2.5-0.1,3.2c0.1,0.9,0.4,1.8,0.8,2.4c0.5,0.9,1.2,1.3,2.1,1.1c0.7-0.1,1.3-0.5,1.9-1.3c0.3-0.4,0.7-0.9,1.1-1.6
		c0.1,0.5,0.2,1,0.4,1.3c0.5,0.9,1.1,1,1.5,1l0.1,0c0.5-0.2,1.1-0.5,1.7-1.1c0,0,1.9-2.1,1.9-2.1l0.2-0.5l0-0.9l-0.9-0.6l-0.3,0.1
		l-0.3,0.2c0,0-0.3,0.3-0.7,0.6c0-0.4-0.1-0.9-0.1-1.8c-0.1-1-0.1-2.1-0.1-3.1c0-0.6,0-1.1,0-1.7c0.1-1.6,0.2-2.7,0.4-3.4
		c0.1-0.5,0.2-0.9,0.2-1.3c0-0.4-0.1-0.7-0.2-1l-0.6-0.4l-0.6,0L30.4,15.4z M28.1,21.6c-0.1,1.5-0.3,2.8-0.5,3.8
		c-0.3,1-0.6,1.8-1,2.3c-0.4,0.7-0.7,0.7-0.7,0.8c0,0-0.1,0-0.3-0.3c-0.1-0.2-0.4-0.8-0.4-2.4v-0.1c0-1.4,0.2-2.7,0.7-3.9
		c0.5-1.6,0.9-2.1,1.1-2.3c0.3-0.3,0.6-0.4,0.9-0.4c0,0,0.3,0,0.3,0c0,0,0,0,0,0c0,0.1,0,0.3,0,0.7C28.1,20.3,28.1,20.8,28.1,21.6z
		 M35.1,32.1l1.1,0.2l2-2l0.2-0.4l0.4-4c0,0,0.2-1.1,0.3-2.2c0,0.2,0,0.4,0.1,0.7v0c0.3,1.7,0.9,3.1,1.7,4c0.8,1,2,1.6,3.3,2
		c1.4,0.4,3.1,0,4.9-1.2l0.3-0.7l-0.2-1l-1-0.5c-1.1,0.6-2,0.7-2.8,0.3c-0.9-0.4-1.6-1-2-1.6c-0.4-0.7-0.7-1.3-0.7-2
		c0-0.5,0.2-0.7,0.6-0.9c0.9-0.3,1.7-0.7,2.5-1.4c0.8-0.6,1.4-1.4,1.8-2.1c0.5-0.8,0.6-1.9,0.5-3.2c-0.1-1.1-0.6-1.8-1.4-2.3
		c-0.7-0.4-1.4-0.5-2.2-0.5c-0.7,0-1.6,0.3-2.6,0.8c-1,0.5-1.8,1.3-2.5,2.3c0,0-0.1,0.1-0.1,0.2c0.1-0.8,0.3-2.9,0.3-2.9l0.5-4.1
		c0.1-1.4,0.4-2.6,0.8-3.6c0.5-1.3,0.8-1.8,1-2c0.3-0.3,0.4-0.4,0.5-0.4c0,0,0.3,0,0.9,0.3l0.9-0.3c0.5-0.8,0.8-1.1,1-1.3
		c0.3-0.3,0.6-0.6,0.6-1.1c0-0.2-0.1-0.8-0.9-1L43.7,0l-0.4,0.1c-0.6,0.3-1.2,0.7-1.7,1.1c-0.5,0.4-0.9,0.9-1.3,1.5l-1.2,1.7
		c-0.5,0.7-0.9,1.4-1.2,2.1c-0.3,0.7-0.6,1.8-1,3.3c-0.4,1.5-0.6,3.2-0.9,5l-0.5,5.5L35,26c0,0-0.4,4.5-0.4,4.5l0,0.1L35.1,32.1z
		 M39.4,21.9c0.8-1.9,1.5-3.2,2.1-3.9c0.5-0.6,1.3-1,2.2-1c0.2,0,0.5,0,0.7,0.1c0.1,0.1,0.2,0.3,0.2,0.6c0,0.1,0,0.2,0,0.2
		c-0.1,1-0.5,1.8-1.2,2.2c-0.8,0.5-1.7,0.8-2.6,1C40.2,21.2,39.8,21.4,39.4,21.9c0,0,0,0.1,0,0.2C39.4,22,39.4,21.9,39.4,21.9z
		 M54.8,25.3C54.2,26,54,26.1,54,26.2c0,0,0,0,0-0.1c0-0.1,0-0.2,0-0.4c0-0.2,0-0.4,0-0.7c0,0,0.8-7.8,0.8-7.8
		c0.1-0.6,0.1-1.2,0.1-1.6c0-0.4,0-0.8-0.1-1.1c-0.2-1-0.7-1.5-1.1-1.7c-0.4-0.2-1.1-0.3-1.9,0.3c-0.5,0.3-1.3,1.1-2.4,2.4L49.3,16
		l0,0.9l1.2,0.5c0,0,0.8-0.7,0.9-0.9c0,0,0,0,0,0c0,0.7-0.1,1.6-0.1,1.6c0,1-0.3,3.6-0.8,8l0,0.2l0.1,0.9c0.3,1.4,1,2,1.6,2.2l0.3,0
		l0.7-0.1l0.2-0.1c0.9-0.4,1.6-0.9,2-1.5c0.5-0.7,0.7-1.4,0.5-2.2L54.8,25.3z M53.2,9.2L53.2,9.2l-1.4,1.6l0.3,1.1
		c1,0.3,2,0.1,2.8-0.6c0.7-0.6,1.4-1.5,2.1-2.7l-0.7-1C54.8,7.8,53.7,8.4,53.2,9.2z M61.6,2h-0.2l-0.2,0c-0.5,0.1-1,0.3-1.4,0.6
		c-0.3,0.3-0.6,0.8-0.4,1.7c0.1,0.9,0.6,1.3,1,1.5c0.2,0.1,0.3,0.2,0.3,0.3c0,0,0.1,0.3-0.1,1.2l-0.9,3.4l0.8,0.9
		c1-0.2,1.7-0.8,2.3-1.9c0.4-1,0.7-1.9,0.8-2.7c0.1-0.8,0.2-1.8,0.1-2.8l0-0.1C63.4,2.8,62.7,2.1,61.6,2z M75,19.1
		c-0.2-0.5-0.4-1-0.7-1.3c0,0-1.1-1-1.1-1l-1.5-1.3c-0.7-0.7-0.9-0.9-0.9-0.9c0,0-0.1-0.3-0.1-0.3c0-0.1,0-0.2,0.1-0.3
		c0,0,0.1-0.1,0.1-0.1c0,0,0.5,0.3,0.5,0.3l0.7,0.5c0.4,0.2,1.1,0.2,1.6-0.6c0,0,0.9-1.4,0.9-1.4l-0.1-0.9l-1.3-1
		c-0.4-0.2-0.9-0.3-1.4-0.3l-0.3,0c-0.5,0.1-0.9,0.3-1.4,0.7l-1.1,1.1c0,0-1,1.6-1,1.6c-0.4,0.7-0.6,1.5-0.5,2.4l0.1,0.5l0,0.1
		l0.6,1.2c0,0,1.2,1.1,1.2,1.1l1.8,1.6c0.8,0.7,1,1.1,1,1.3c0.1,0.3,0.1,0.6,0,0.9c-0.1,0.3-0.3,0.6-0.5,0.8
		c-0.2,0.2-0.4,0.3-0.6,0.4c-0.1,0-0.3,0-0.4-0.1c0,0-0.6-0.5-0.6-0.5c-0.5-0.5-1.1-0.6-1.7-0.2c0,0-0.9,1-0.9,1
		c-0.3,0.4-0.4,1-0.5,1.8l0.3,0.6l1.1,0.6c0,0,1.1,0.2,1.1,0.2l0.4,0c0.1,0,1.5-0.5,1.5-0.5c0.5-0.2,1.1-0.6,1.6-1.2
		c0.6-0.5,1-1.2,1.4-1.9c0.4-0.7,0.6-1.7,0.6-2.9C75.3,20.7,75,19.1,75,19.1z"/>
	<g>
		<path d="M77.3,59.9l-6.1,0.9V45.9l-6,11.2l-5.3-12.2v15.1l-6.3,0.5V33.6l7.3-0.8l4.9,10.2l5-9.1l6.5-1.2V59.9z"/>
		<path d="M81.5,59.3c-0.9-0.3-1.3-0.5-1.3-0.7L86.9,41c0.3-0.9,0.5-1.3,0.6-1.3c0.6-0.2,1.2-0.3,1.8-0.5l3.3-0.8
			c0.1,0,0.3,0.2,0.5,0.6c0.2,0.4,0.5,1,0.8,1.8l7.7,17.9c0.1,0.1-0.1,0.2-0.4,0.3c-0.7,0.2-1.3,0.5-1.8,0.7
			c-0.3,0.1-0.5,0.2-0.7,0.3c-0.9,0.3-1.5,0.5-1.8,0.5c-0.1-0.3-0.2-0.5-0.3-0.6c-0.4-1.1-0.7-1.8-0.8-2c-0.1-0.2-0.3-0.8-0.7-1.7
			c-0.2-0.5-0.4-0.8-0.6-0.8h-7.1c-0.2,0-0.4,0.1-0.5,0.4c-0.1,0.3-0.4,0.9-0.8,2l-1,2.7C83.3,59.8,82.1,59.5,81.5,59.3z M88.8,50.7
			l4.1-0.1l-2.1-4.7L88.8,50.7z"/>
		<path d="M117.9,55.2c-1.9,1.8-3.1,2.9-3.7,3.3c-0.4,0.4-0.7,0.7-0.9,0.9c-0.8,0.6-1.5,0.9-2.3,0.9c-0.3,0-1.5-0.1-3.4-0.4
			c-1.9-0.3-2.9-0.5-2.9-0.6V39.3c1.5-0.3,2.7-0.4,3.4-0.6c2.3-0.4,3.6-0.6,3.8-0.6c0.1,0,0.1,0,0.2,0c0.2,0,0.3,0.1,0.5,0.2
			L124,48.5c0.1,0.1,0.2,0.2,0.2,0.4c0,0.1-0.1,0.3-0.2,0.5C121.7,51.6,119.7,53.6,117.9,55.2z M117.1,48.6l-6.6-5.1l-0.2,11.2
			l6.7-5.5V48.6z"/>
		<path d="M159.3,59.7c-1.7,0.5-3.1,0.7-4.3,0.7c-0.1,0-1.1-1-3.2-3c-2.3-2.2-4.2-4.1-5.8-5.9c-2.1-2.3-3.1-3.7-3.1-4.4
			c0-0.5,1-1.9,2.9-4.1c1.4-1.6,3.3-3.7,5.7-6.2c1.3-1.4,2.7-2.8,4-4.3c1,0.8,2,1.7,3,2.5c0.9,0.7,1.5,1.1,1.6,1.1
			c-0.8,0.9-1.7,1.8-2.5,2.7c-1.8,1.9-3.3,3.6-4.6,5.1c-1.7,1.9-2.5,2.9-2.5,3.2c0,0.2,0.9,1.2,2.6,3.1c1.7,1.9,2.7,2.8,2.9,2.8
			c0.4,0,0.6-0.1,0.6-0.3v-8.1h5.7c0,1.5,0,3,0,4.5c0,1.6,0,4.4,0,8.5C162.3,58.5,161.3,59.1,159.3,59.7z"/>
		<path d="M181.3,59c-1.3,0.7-2,1.1-2.1,1.1c-0.1,0-0.8-0.7-2-2c-1.3-1.3-2.5-2.6-3.7-3.9c-1.4-1.5-2.2-2.3-2.4-2.5l-0.4-0.2v7.8
			c-0.3,0.1-1.3,0.4-3.1,0.7c-0.9,0.2-1.8,0.3-2.8,0.4V39.2l6.7-1.4c0.4,0,0.6,0,0.7,0c0.4,0,0.8,0.1,1.1,0.3
			c0.3,0.2,0.5,0.3,0.5,0.3c0,0.1,0.4,0.6,1.3,1.4c2.6,2.5,4.4,4.3,5.5,5.6c0.1,0.2,0.1,0.4,0,0.5c-0.4,0.6-1.4,1.6-2.8,3.2
			c-0.4,0.4-0.6,0.7-0.6,0.9c0,0.1,0.9,1.2,2.7,3.1c1.4,1.6,2.8,3,4.1,4.3l-0.5,0.3C182.8,58.1,182,58.6,181.3,59z M172.6,43.9
			c-0.4-0.3-1.1-0.7-1.9-1.3v6.3c0.8-0.4,1.7-1,2.7-1.8c0.8-0.6,1.2-1,1.2-1.3C174.6,45.4,173.9,44.8,172.6,43.9z"/>
		<path d="M197,42.6c-2.3,1.2-3.5,1.9-3.5,2c0.5,0.5,0.9,0.9,1.2,1.1c0.7,0.7,1.6,1.6,2.6,2.6c0.2,0.2,0.2,0.3,0,0.5
			c-0.4,0.4-1.3,1.2-2.5,2.3c-0.8,0.7-1.2,1.2-1.2,1.4c0,0.3,0.9,1.1,2.6,2.4c1.5,1.2,2.4,1.8,2.6,1.9c0.2,0.1,0.4,0.2,0.4,0.2
			c0.4,0.2,0.6,0.4,0.6,0.5l-4,2.8l-10.1-7.3c-0.1-0.1-0.1-0.2-0.1-0.4c0-0.2,0.1-0.3,0.2-0.4c1.2-0.9,2.3-1.8,3.2-2.5
			c1.1-0.9,1.6-1.4,1.6-1.5c0-0.1-0.5-0.6-1.5-1.7c-0.7-0.8-1.8-1.9-3.2-3.3c-0.1-0.1-0.1-0.2-0.1-0.3c0-0.1,0-0.2,0.1-0.2
			c2.4-1.2,4.7-2.4,7.1-3.7c2.7-1.4,4.1-2,4.3-2c0.8,0.8,1.3,1.4,1.7,1.7c1.1,1.2,1.7,1.8,1.7,1.9C198.9,41.6,197.8,42.2,197,42.6z"
			/>
		<path d="M213.9,42.6c-2.3,1.2-3.5,1.9-3.5,2c0.5,0.5,0.9,0.9,1.2,1.1c0.7,0.7,1.6,1.6,2.6,2.6c0.2,0.2,0.2,0.3,0,0.5
			c-0.4,0.4-1.3,1.2-2.5,2.3c-0.8,0.7-1.2,1.2-1.2,1.4c0,0.3,0.9,1.1,2.6,2.4c1.5,1.2,2.4,1.8,2.6,1.9c0.2,0.1,0.4,0.2,0.4,0.2
			c0.4,0.2,0.6,0.4,0.6,0.5l-4,2.8l-10.1-7.3c-0.1-0.1-0.1-0.2-0.1-0.4c0-0.2,0.1-0.3,0.2-0.4c1.2-0.9,2.3-1.8,3.2-2.5
			c1.1-0.9,1.6-1.4,1.6-1.5c0-0.1-0.5-0.6-1.5-1.7c-0.7-0.8-1.8-1.9-3.2-3.3c-0.1-0.1-0.1-0.2-0.1-0.3c0-0.1,0-0.2,0.1-0.2
			c2.4-1.2,4.7-2.4,7.1-3.7c2.7-1.4,4.1-2,4.3-2c0.8,0.8,1.3,1.4,1.7,1.7c1.1,1.2,1.7,1.8,1.7,1.9C215.8,41.6,214.6,42.2,213.9,42.6
			z"/>
		<path d="M235.7,60.5l-10.1-9.9v8.7l-6.1,1.5v-22l6.1-0.9v9.6l8.5-10.1l4.9,2.2l-7.5,9l9.2,9.8L235.7,60.5z"/>
	</g>
</g>
<g id="Layer_5">
</g>
</svg>
