<?xml version="1.0" encoding="utf-8"?>
<!-- Generator: Adobe Illustrator 22.0.1, SVG Export Plug-In . SVG Version: 6.00 Build 0)  -->
<svg version="1.1" id="Everything" xmlns="http://www.w3.org/2000/svg" xmlns:xlink="http://www.w3.org/1999/xlink" x="0px" y="0px"
	 viewBox="0 0 240.7 104.6" style="enable-background:new 0 0 240.7 104.6;" xml:space="preserve">

<style type="text/css">
	.tmg{fill:#1D6E9E;}
	.vday{fill:#ff3333;}
    	.dmusic{fill:black;}

</style>

<g id="TMG" class="tmg">
	<path d="M50,33.8c-0.3-0.2-0.7-0.3-1.3-0.1c-1.1,0.3-1.5,1.3-1.1,2.5c0.2,0.8-0.6,1.8-1.3,2.5c-1.2,1.2-2.6,2-4.1,2.6
		c-1.6,0.6-3.7,1.1-6.4,1.3c-2.7,0.3-5.4,0.2-8.2-0.3c-2.7-0.4-5.1-1.5-7.2-3.2s-3.3-3.7-3.8-6.1c-0.3-1.8-0.5-3.7-0.5-5.7
		c0-0.7,0-1.5,0.1-2.3c0.2-2.8,0.6-5.7,1.2-8.8c0.6-2.9,1.5-6.1,2.9-9.6c1.6-0.1,3-0.2,4-0.4c0.2,0,0.2,0,0.3,0
		c-0.1,0.2-0.2,0.4-0.2,0.6c0,0.1,0,0.3,0.1,0.4c0.1,0.2,0.3,0.6,0.8,0.8h1.1c0.4,0,0.7-0.4,0.9-1c0.2-0.6,0.5-1.2,0.9-1.7
		s0.8-0.8,1.3-1c1-0.5,1.2-1.1,1.2-1.6c-0.1-0.8-0.8-1.1-2-1.1l-0.3,0.1c-1.4,0.7-3.3,1.1-5.6,1.2c-2.4,0.1-5.5,0.3-9.3,0.7
		C8.7,4.3,5.2,5.7,3,7.7c-2.3,2-3.3,4.7-2.9,7.8c0.1,0.8,0.3,1.7,0.7,2.7s1,1.9,1.9,2.6s1.7,1.1,2.5,1.1c0.9,0,1.6-0.4,2-1.2
		c0.4-0.8,0.2-1.6-0.4-2.1c-0.4-0.3-1.1-0.7-2.2-0.4c-0.4,0.1-0.9-0.6-1.1-1c-0.2-0.4-0.3-1-0.3-1.6c0-0.8,0.2-1.7,0.5-2.8
		c0.6-2,1.9-3.4,4.1-4.1c2.1-0.8,4.9-1.2,8.3-1.4c-1.5,5.3-2.5,9.7-3,13.1c-0.4,3-0.6,5.5-0.6,7.7c0,0.5,0,1,0,1.4
		c0.1,2.4,0.5,4.7,1.2,6.8c0.7,2.1,1.9,4,3.6,5.4c1.6,1.4,3.7,2.5,6,3.4s4.6,1.3,6.9,1.4c2.2,0,5.1-0.1,8.6-0.6
		c1.9-0.2,3.8-0.8,5.8-1.8s3.6-2.2,4.7-3.6c1.2-1.5,1.8-2.9,1.9-4.3V36C50.8,34.7,50.5,34.1,50,33.8z M30.4,15.4
		c-1.6,0.4-3,1-4.1,1.7c-1.1,0.8-2.1,2.1-2.9,4c-0.7,1.8-1.2,3.5-1.3,5c-0.1,1.5-0.2,2.5-0.1,3.2c0.1,0.9,0.4,1.8,0.8,2.4
		c0.5,0.9,1.2,1.3,2.1,1.1c0.7-0.1,1.3-0.5,1.9-1.3c0.3-0.4,0.7-0.9,1.1-1.6c0.1,0.5,0.2,1,0.4,1.3c0.5,0.9,1.1,1,1.5,1h0.1
		c0.5-0.2,1.1-0.5,1.7-1.1l1.9-2.1l0.2-0.5v-0.9L32.8,27l-0.3,0.1l-0.3,0.2c0,0-0.3,0.3-0.7,0.6c0-0.4-0.1-0.9-0.1-1.8
		c-0.1-1-0.1-2.1-0.1-3.1c0-0.6,0-1.1,0-1.7c0.1-1.6,0.2-2.7,0.4-3.4c0.1-0.5,0.2-0.9,0.2-1.3s-0.1-0.7-0.2-1l-0.6-0.4h-0.6
		L30.4,15.4z M28.1,21.6c-0.1,1.5-0.3,2.8-0.5,3.8c-0.3,1-0.6,1.8-1,2.3c-0.4,0.7-0.7,0.7-0.7,0.8c0,0-0.1,0-0.3-0.3
		c-0.1-0.2-0.4-0.8-0.4-2.4v-0.1c0-1.4,0.2-2.7,0.7-3.9c0.5-1.6,0.9-2.1,1.1-2.3c0.3-0.3,0.6-0.4,0.9-0.4h0.3l0,0c0,0.1,0,0.3,0,0.7
		C28.1,20.3,28.1,20.8,28.1,21.6z M35.1,32.1l1.1,0.2l2-2l0.2-0.4l0.4-4c0,0,0.2-1.1,0.3-2.2c0,0.2,0,0.4,0.1,0.7l0,0
		c0.3,1.7,0.9,3.1,1.7,4c0.8,1,2,1.6,3.3,2c1.4,0.4,3.1,0,4.9-1.2l0.3-0.7l-0.2-1l-1-0.5c-1.1,0.6-2,0.7-2.8,0.3
		c-0.9-0.4-1.6-1-2-1.6c-0.4-0.7-0.7-1.3-0.7-2c0-0.5,0.2-0.7,0.6-0.9c0.9-0.3,1.7-0.7,2.5-1.4c0.8-0.6,1.4-1.4,1.8-2.1
		c0.5-0.8,0.6-1.9,0.5-3.2c-0.1-1.1-0.6-1.8-1.4-2.3c-0.7-0.4-1.4-0.5-2.2-0.5c-0.7,0-1.6,0.3-2.6,0.8s-1.8,1.3-2.5,2.3
		c0,0-0.1,0.1-0.1,0.2c0.1-0.8,0.3-2.9,0.3-2.9l0.5-4.1C40.2,8.2,40.5,7,40.9,6c0.5-1.3,0.8-1.8,1-2c0.3-0.3,0.4-0.4,0.5-0.4
		c0,0,0.3,0,0.9,0.3l0.9-0.3c0.5-0.8,0.8-1.1,1-1.3c0.3-0.3,0.6-0.6,0.6-1.1c0-0.2-0.1-0.8-0.9-1L43.7,0l-0.4,0.1
		c-0.6,0.3-1.2,0.7-1.7,1.1s-0.9,0.9-1.3,1.5l-1.2,1.7c-0.5,0.7-0.9,1.4-1.2,2.1s-0.6,1.8-1,3.3s-0.6,3.2-0.9,5l-0.5,5.5L35,26
		l-0.4,4.5v0.1L35.1,32.1z M39.4,21.9c0.8-1.9,1.5-3.2,2.1-3.9c0.5-0.6,1.3-1,2.2-1c0.2,0,0.5,0,0.7,0.1c0.1,0.1,0.2,0.3,0.2,0.6
		c0,0.1,0,0.2,0,0.2c-0.1,1-0.5,1.8-1.2,2.2c-0.8,0.5-1.7,0.8-2.6,1C40.2,21.2,39.8,21.4,39.4,21.9c0,0,0,0.1,0,0.2
		C39.4,22,39.4,21.9,39.4,21.9z M54.8,25.3C54.2,26,54,26.1,54,26.2c0,0,0,0,0-0.1s0-0.2,0-0.4c0-0.2,0-0.4,0-0.7l0.8-7.8
		c0.1-0.6,0.1-1.2,0.1-1.6s0-0.8-0.1-1.1c-0.2-1-0.7-1.5-1.1-1.7c-0.4-0.2-1.1-0.3-1.9,0.3c-0.5,0.3-1.3,1.1-2.4,2.4L49.3,16v0.9
		l1.2,0.5c0,0,0.8-0.7,0.9-0.9l0,0c0,0.7-0.1,1.6-0.1,1.6c0,1-0.3,3.6-0.8,8v0.2l0.1,0.9c0.3,1.4,1,2,1.6,2.2h0.3l0.7-0.1l0.2-0.1
		c0.9-0.4,1.6-0.9,2-1.5c0.5-0.7,0.7-1.4,0.5-2.2L54.8,25.3z M53.2,9.2L53.2,9.2l-1.4,1.6l0.3,1.1c1,0.3,2,0.1,2.8-0.6
		c0.7-0.6,1.4-1.5,2.1-2.7l-0.7-1C54.8,7.8,53.7,8.4,53.2,9.2z M61.6,2h-0.2h-0.2c-0.5,0.1-1,0.3-1.4,0.6c-0.3,0.3-0.6,0.8-0.4,1.7
		c0.1,0.9,0.6,1.3,1,1.5c0.2,0.1,0.3,0.2,0.3,0.3c0,0,0.1,0.3-0.1,1.2l-0.9,3.4l0.8,0.9c1-0.2,1.7-0.8,2.3-1.9
		c0.4-1,0.7-1.9,0.8-2.7s0.2-1.8,0.1-2.8V4.1C63.4,2.8,62.7,2.1,61.6,2z M75,19.1c-0.2-0.5-0.4-1-0.7-1.3l-1.1-1l-1.5-1.3
		c-0.7-0.7-0.9-0.9-0.9-0.9l-0.1-0.3c0-0.1,0-0.2,0.1-0.3l0.1-0.1l0.5,0.3l0.7,0.5c0.4,0.2,1.1,0.2,1.6-0.6l0.9-1.4l-0.1-0.9l-1.3-1
		c-0.4-0.2-0.9-0.3-1.4-0.3h-0.3c-0.5,0.1-0.9,0.3-1.4,0.7L69,12.3l-1,1.6c-0.4,0.7-0.6,1.5-0.5,2.4l0.1,0.5v0.1l0.6,1.2l1.2,1.1
		l1.8,1.6c0.8,0.7,1,1.1,1,1.3c0.1,0.3,0.1,0.6,0,0.9s-0.3,0.6-0.5,0.8c-0.2,0.2-0.4,0.3-0.6,0.4c-0.1,0-0.3,0-0.4-0.1l-0.6-0.5
		c-0.5-0.5-1.1-0.6-1.7-0.2l-0.9,1c-0.3,0.4-0.4,1-0.5,1.8l0.3,0.6l1.1,0.6l1.1,0.2h0.4c0.1,0,1.5-0.5,1.5-0.5
		c0.5-0.2,1.1-0.6,1.6-1.2c0.6-0.5,1-1.2,1.4-1.9c0.4-0.7,0.6-1.7,0.6-2.9C75.3,20.7,75,19.1,75,19.1z"/>
	<g>
		<path d="M77.3,59.9l-6.1,0.9V45.9l-6,11.2l-5.3-12.2V60l-6.3,0.5V33.6l7.3-0.8L65.8,43l5-9.1l6.5-1.2V59.9z"/>
		<path d="M81.5,59.3c-0.9-0.3-1.3-0.5-1.3-0.7L86.9,41c0.3-0.9,0.5-1.3,0.6-1.3c0.6-0.2,1.2-0.3,1.8-0.5l3.3-0.8
			c0.1,0,0.3,0.2,0.5,0.6c0.2,0.4,0.5,1,0.8,1.8l7.7,17.9c0.1,0.1-0.1,0.2-0.4,0.3c-0.7,0.2-1.3,0.5-1.8,0.7
			c-0.3,0.1-0.5,0.2-0.7,0.3c-0.9,0.3-1.5,0.5-1.8,0.5c-0.1-0.3-0.2-0.5-0.3-0.6c-0.4-1.1-0.7-1.8-0.8-2c-0.1-0.2-0.3-0.8-0.7-1.7
			c-0.2-0.5-0.4-0.8-0.6-0.8h-7.1c-0.2,0-0.4,0.1-0.5,0.4c-0.1,0.3-0.4,0.9-0.8,2l-1,2.7C83.3,59.8,82.1,59.5,81.5,59.3z M88.8,50.7
			l4.1-0.1l-2.1-4.7L88.8,50.7z"/>
		<path d="M117.9,55.2c-1.9,1.8-3.1,2.9-3.7,3.3c-0.4,0.4-0.7,0.7-0.9,0.9c-0.8,0.6-1.5,0.9-2.3,0.9c-0.3,0-1.5-0.1-3.4-0.4
			c-1.9-0.3-2.9-0.5-2.9-0.6v-20c1.5-0.3,2.7-0.4,3.4-0.6c2.3-0.4,3.6-0.6,3.8-0.6c0.1,0,0.1,0,0.2,0c0.2,0,0.3,0.1,0.5,0.2
			L124,48.5c0.1,0.1,0.2,0.2,0.2,0.4c0,0.1-0.1,0.3-0.2,0.5C121.7,51.6,119.7,53.6,117.9,55.2z M117.1,48.6l-6.6-5.1l-0.2,11.2
			l6.7-5.5L117.1,48.6L117.1,48.6z"/>
		<path d="M159.3,59.7c-1.7,0.5-3.1,0.7-4.3,0.7c-0.1,0-1.1-1-3.2-3c-2.3-2.2-4.2-4.1-5.8-5.9c-2.1-2.3-3.1-3.7-3.1-4.4
			c0-0.5,1-1.9,2.9-4.1c1.4-1.6,3.3-3.7,5.7-6.2c1.3-1.4,2.7-2.8,4-4.3c1,0.8,2,1.7,3,2.5c0.9,0.7,1.5,1.1,1.6,1.1
			c-0.8,0.9-1.7,1.8-2.5,2.7c-1.8,1.9-3.3,3.6-4.6,5.1c-1.7,1.9-2.5,2.9-2.5,3.2c0,0.2,0.9,1.2,2.6,3.1c1.7,1.9,2.7,2.8,2.9,2.8
			c0.4,0,0.6-0.1,0.6-0.3v-8.1h5.7c0,1.5,0,3,0,4.5c0,1.6,0,4.4,0,8.5C162.3,58.5,161.3,59.1,159.3,59.7z"/>
		<path d="M181.3,59c-1.3,0.7-2,1.1-2.1,1.1s-0.8-0.7-2-2c-1.3-1.3-2.5-2.6-3.7-3.9c-1.4-1.5-2.2-2.3-2.4-2.5l-0.4-0.2v7.8
			c-0.3,0.1-1.3,0.4-3.1,0.7c-0.9,0.2-1.8,0.3-2.8,0.4V39.2l6.7-1.4c0.4,0,0.6,0,0.7,0c0.4,0,0.8,0.1,1.1,0.3s0.5,0.3,0.5,0.3
			c0,0.1,0.4,0.6,1.3,1.4c2.6,2.5,4.4,4.3,5.5,5.6c0.1,0.2,0.1,0.4,0,0.5c-0.4,0.6-1.4,1.6-2.8,3.2c-0.4,0.4-0.6,0.7-0.6,0.9
			c0,0.1,0.9,1.2,2.7,3.1c1.4,1.6,2.8,3,4.1,4.3l-0.5,0.3C182.8,58.1,182,58.6,181.3,59z M172.6,43.9c-0.4-0.3-1.1-0.7-1.9-1.3v6.3
			c0.8-0.4,1.7-1,2.7-1.8c0.8-0.6,1.2-1,1.2-1.3C174.6,45.4,173.9,44.8,172.6,43.9z"/>
		<path d="M197,42.6c-2.3,1.2-3.5,1.9-3.5,2c0.5,0.5,0.9,0.9,1.2,1.1c0.7,0.7,1.6,1.6,2.6,2.6c0.2,0.2,0.2,0.3,0,0.5
			c-0.4,0.4-1.3,1.2-2.5,2.3c-0.8,0.7-1.2,1.2-1.2,1.4c0,0.3,0.9,1.1,2.6,2.4c1.5,1.2,2.4,1.8,2.6,1.9c0.2,0.1,0.4,0.2,0.4,0.2
			c0.4,0.2,0.6,0.4,0.6,0.5l-4,2.8L185.7,53c-0.1-0.1-0.1-0.2-0.1-0.4s0.1-0.3,0.2-0.4c1.2-0.9,2.3-1.8,3.2-2.5
			c1.1-0.9,1.6-1.4,1.6-1.5s-0.5-0.6-1.5-1.7c-0.7-0.8-1.8-1.9-3.2-3.3c-0.1-0.1-0.1-0.2-0.1-0.3s0-0.2,0.1-0.2
			c2.4-1.2,4.7-2.4,7.1-3.7c2.7-1.4,4.1-2,4.3-2c0.8,0.8,1.3,1.4,1.7,1.7c1.1,1.2,1.7,1.8,1.7,1.9C198.9,41.6,197.8,42.2,197,42.6z"
			/>
		<path d="M213.9,42.6c-2.3,1.2-3.5,1.9-3.5,2c0.5,0.5,0.9,0.9,1.2,1.1c0.7,0.7,1.6,1.6,2.6,2.6c0.2,0.2,0.2,0.3,0,0.5
			c-0.4,0.4-1.3,1.2-2.5,2.3c-0.8,0.7-1.2,1.2-1.2,1.4c0,0.3,0.9,1.1,2.6,2.4c1.5,1.2,2.4,1.8,2.6,1.9c0.2,0.1,0.4,0.2,0.4,0.2
			c0.4,0.2,0.6,0.4,0.6,0.5l-4,2.8L202.6,53c-0.1-0.1-0.1-0.2-0.1-0.4s0.1-0.3,0.2-0.4c1.2-0.9,2.3-1.8,3.2-2.5
			c1.1-0.9,1.6-1.4,1.6-1.5s-0.5-0.6-1.5-1.7c-0.7-0.8-1.8-1.9-3.2-3.3c-0.1-0.1-0.1-0.2-0.1-0.3s0-0.2,0.1-0.2
			c2.4-1.2,4.7-2.4,7.1-3.7c2.7-1.4,4.1-2,4.3-2c0.8,0.8,1.3,1.4,1.7,1.7c1.1,1.2,1.7,1.8,1.7,1.9C215.8,41.6,214.6,42.2,213.9,42.6
			z"/>
		<path d="M235.7,60.5l-10.1-9.9v8.7l-6.1,1.5v-22l6.1-0.9v9.6l8.5-10.1l4.9,2.2l-7.5,9l9.2,9.8L235.7,60.5z"/>
	</g>
</g>
<g id="Valentines" class="vday">
	<path d="M19.9,66.8c-0.6,0.1-0.9,0.3-1.1,0.5c-0.4,0.3-0.7,1.1-1,1.5l-7.2,13.3l-1.7,0.3l-2.7-13c-0.2-0.9-0.3-1.7-0.5-2
		S5,66.9,4.6,66.8l0.1-0.4c0,0,1.2,0.1,3,0.1c2,0,3.2-0.1,3.2-0.1l-0.1,0.4c-0.7,0.1-0.9,0.3-1,0.3c-0.2,0.1-0.5,0.3-0.5,0.9
		c0,0.3,0.2,1.1,0.3,1.8l1.2,6c0.4,2.1,0.4,2.9,0.4,2.9l4.7-9.3c0.6-1.1,0.7-1.4,0.7-1.8S16.3,67,16.2,67c-0.1-0.1-0.4-0.2-0.9-0.2
		l0.1-0.4c0,0,0.9,0.1,2.4,0.1c1.4,0,2.4-0.1,2.4-0.1L19.9,66.8z"/>
	<path d="M25.2,82.4c-0.7,0-1.8-0.1-1.8-1.6c0-0.5,0.2-1.1,0.2-1.1c-1.1,1.7-2.3,2.6-3.9,2.6c-2.5,0-2.8-2.5-2.8-3.8
		c0-3,1.3-5.1,1.4-5.3c1-1.5,2.6-2.4,4.4-2.4c1.7,0,2.5,0.8,2.5,0.8l2.7-0.8l0.2,0.1c-0.3,1-1.5,8.3-1.5,9.3c0,0.3,0.1,0.5,0.4,0.5
		c0.5,0,1-0.8,1.2-1l0.4,0.3C28.1,80.5,27,82.4,25.2,82.4z M23.6,71.9c-1.2,0-2,0.8-2.4,1.8c-0.7,1.3-1,3.3-1,4.8
		c0,1.2,0.1,2.3,1.1,2.3c0.8,0,1.8-1,2.3-1.6l1.2-7.1C24.7,72.1,24.3,71.9,23.6,71.9z"/>
	<path d="M34.2,75.2c-0.5,3.3-0.7,4.6-0.7,5c0,0.3,0.1,0.5,0.4,0.5c0.5,0,1-0.8,1.2-1l0.4,0.3c-0.3,0.6-1.5,2.4-3.3,2.4
		c-1.7,0-1.8-1-1.8-1.7c0-0.2,0-0.8,0.1-1.3c0.7-4.1,2-11.7,2-12.7c0-0.7-0.3-0.9-1.3-1l0.1-0.5c0,0,1.5,0,3-0.1
		c0.8-0.1,1.4-0.2,1.8-0.4l0.1,0.1C35.7,65.7,35.1,69.5,34.2,75.2z"/>
	<path d="M40.1,76.9c0,0.3,0,0.6,0,0.8c0,1.7,0.6,3.1,2.6,3.1c0.8,0,1.6-0.3,2.6-1l0.3,0.3c-0.2,0.3-1.9,2.3-4.6,2.3
		c-2.5,0-4.1-1.3-4.1-4.4c0-4,2.1-7.2,6.3-7.2c2.1,0,3.5,0.8,3.5,2.5C46.6,75.8,44.5,76.9,40.1,76.9z M42.5,71.7
		c-0.1,0-0.4,0-0.9,0.3c-0.6,0.4-1.2,1.8-1.4,4c0.6,0,1,0,1.6-0.2c0.4-0.1,1.8-0.5,1.8-2.6C43.5,72.4,43.4,71.7,42.5,71.7z"/>
	<path d="M56.6,82.4c-1.6,0-1.8-1-1.8-1.6s0.1-1.4,0.3-2.4l0.4-2.1c0.2-1.1,0.4-2.2,0.4-2.8c0-0.4,0-1.1-1-1.1
		c-1.3,0-2.4,1.5-2.5,1.6l-1.3,8.2H48c0.6-3.2,1.5-8.2,1.5-9.2c0-0.3-0.1-0.5-0.4-0.5c-0.5,0-1,0.8-1.2,1l-0.4-0.3
		c0.4-0.7,1.5-2.4,3.3-2.4c1.6,0,1.8,0.9,1.8,1.6c0,0.5-0.2,1.1-0.2,1.1c1.4-1.9,2.5-2.7,4.2-2.7c2.5,0,2.5,1.7,2.5,2.2
		c0,0.9-0.3,2.4-0.4,2.9l-0.4,1.9c-0.3,1.5-0.4,2-0.4,2.4c0,0.3,0.1,0.5,0.4,0.5c0.5,0,1-0.8,1.1-1l0.4,0.3
		C59.6,80.5,58.4,82.4,56.6,82.4z"/>
	<path d="M69.5,72.2h-3l-0.9,5.6c0,0.4-0.2,1.2-0.2,1.7c0,0.7,0.2,1.1,1.1,1.1c0.7,0,1.5-0.5,2-0.9l0.2,0.2
		c-1.3,1.8-2.5,2.4-3.9,2.4c-1.6,0-2.5-0.7-2.5-2.5c0-0.7,0.1-1.6,0.3-2.3l0.9-5.4H62l0.1-0.6c0.8-0.1,1.5-0.4,1.9-0.8
		c0.5-0.5,0.8-1.1,1-2l0.1-0.4l2.1-0.2l-0.5,3h3L69.5,72.2z"/>
	<path d="M72.2,82.4c-1.6,0-1.8-1-1.8-1.6s0.2-1.6,0.4-2.6l0.5-2.7c0.3-1.5,0.4-2.2,0.4-2.5s-0.1-0.5-0.4-0.5c-0.5,0-1,0.8-1.2,1
		l-0.4-0.3c0.3-0.6,1.5-2.4,3.3-2.4c1.6,0,1.8,1,1.8,1.6S74.6,74,74.4,75L74,77.7c-0.3,1.5-0.4,2.2-0.4,2.5s0.1,0.5,0.4,0.5
		c0.5,0,1-0.8,1.2-1l0.4,0.3C75.2,80.5,74,82.4,72.2,82.4z M73.8,69c-0.9,0-1.8-0.5-1.8-1.6c0-1.2,0.9-1.7,1.9-1.7
		c0.9,0,1.8,0.5,1.8,1.6C75.6,68.5,74.7,69,73.8,69z"/>
	<path d="M86.1,82.4c-1.6,0-1.8-1-1.8-1.6s0.1-1.4,0.3-2.4l0.4-2.1c0.2-1.1,0.4-2.2,0.4-2.8c0-0.4,0-1.1-1-1.1
		c-1.3,0-2.4,1.5-2.5,1.6l-1.3,8.2h-3.2C78,79,78.9,74,78.9,73c0-0.3-0.1-0.5-0.4-0.5c-0.5,0-1,0.8-1.2,1L77,73.2
		c0.4-0.7,1.5-2.4,3.3-2.4c1.6,0,1.8,0.9,1.8,1.6c0,0.5-0.2,1.1-0.2,1.1c1.4-1.9,2.5-2.7,4.2-2.7c2.5,0,2.5,1.7,2.5,2.2
		c0,0.9-0.3,2.4-0.4,2.9l-0.4,1.9c-0.3,1.5-0.4,2-0.4,2.4c0,0.3,0.1,0.5,0.4,0.5c0.5,0,1-0.8,1.1-1l0.4,0.3
		C89.1,80.5,87.9,82.4,86.1,82.4z"/>
	<path d="M94.4,76.9c0,0.3,0,0.6,0,0.8c0,1.7,0.6,3.1,2.6,3.1c0.8,0,1.6-0.3,2.6-1l0.3,0.3c-0.2,0.3-1.9,2.3-4.6,2.3
		c-2.5,0-4.1-1.3-4.1-4.4c0-4,2.1-7.2,6.3-7.2c2.1,0,3.5,0.8,3.5,2.5C100.8,75.8,98.8,76.9,94.4,76.9z M96.8,71.7
		c-0.1,0-0.4,0-0.9,0.3c-0.6,0.4-1.2,1.8-1.4,4c0.6,0,1,0,1.6-0.2c0.4-0.1,1.8-0.5,1.8-2.6C97.8,72.4,97.6,71.7,96.8,71.7z"/>
	<path d="M103.2,72.8l-0.4-0.4c0.8-0.8,1.9-1.9,1.9-3.2c0-0.5-0.2-0.8-0.5-1c-0.6-0.5-0.6-0.8-0.6-1.2c0-0.7,0.3-1.8,1.9-1.8
		c1,0,1.8,0.5,1.8,1.8C107.3,69.2,105.5,71.6,103.2,72.8z"/>
	<path d="M113.7,73.8c-0.7,0-1.1-0.4-1.2-0.9c-0.3-0.8-0.3-1.2-1.1-1.2c-0.9,0-1.4,0.6-1.4,1.3c0,0.5,0,0.9,0.9,1.6l1.2,0.9
		c0.9,0.6,2.2,1.5,2.2,3.3c0,1.9-1.2,3.5-4.5,3.5c-3.4,0-3.6-1.1-3.6-1.8c0-0.7,0.5-1.3,1.4-1.3c1,0,1.2,0.8,1.2,0.9
		c0.3,0.8,0.3,1.2,1.2,1.2c0.3,0,1.6,0,1.6-1.5c0-0.6-0.3-1.1-1-1.7l-1.2-0.9c-1.1-0.9-1.9-1.6-1.9-3.1c0-1.1,0.6-3.4,4.3-3.4
		c3.3,0,3.3,1.3,3.3,1.7C115.2,73.2,114.6,73.8,113.7,73.8z"/>
	<path d="M130.1,81.7c-1.2,0.4-2.8,0.4-4,0.4c-1.8,0-2.5,0-3,0c-1.8,0-3,0.1-3,0.1l0.1-0.4c0.3,0,0.9-0.2,1.2-0.5
		c0.5-0.4,0.6-1,0.9-3.2l1.2-8.3c0.1-0.6,0.2-1.3,0.2-1.7c0-0.9-0.5-1.1-1.3-1.2l0.1-0.4c0,0,0.9,0.1,3,0.1c1.3,0,1.1,0,2.8,0
		c2.5,0,7.6,0.1,7.6,6.3C135.8,77,133.7,80.6,130.1,81.7z M128.3,67.5c-0.7,0-1.2,0-1.4,0l-1.7,11.8c-0.1,0.5-0.1,0.9-0.1,1.1
		c0,0.5,0.2,0.6,0.6,0.7c0.2,0,0.5,0.1,0.7,0.1c0.9,0,1.4-0.1,1.8-0.2c3.5-1.1,4.2-5.8,4.2-8.5C132.4,69.9,131.7,67.5,128.3,67.5z"
		/>
	<path d="M145.5,82.4c-0.7,0-1.8-0.1-1.8-1.6c0-0.5,0.2-1.1,0.2-1.1c-1.1,1.7-2.3,2.6-3.9,2.6c-2.5,0-2.8-2.5-2.8-3.8
		c0-3,1.3-5.1,1.4-5.3c1-1.5,2.6-2.4,4.4-2.4c1.7,0,2.5,0.8,2.5,0.8l2.7-0.8l0.2,0.1c-0.3,1-1.5,8.3-1.5,9.3c0,0.3,0.1,0.5,0.4,0.5
		c0.5,0,1-0.8,1.2-1l0.4,0.3C148.4,80.5,147.3,82.4,145.5,82.4z M143.9,71.9c-1.2,0-2,0.8-2.4,1.8c-0.7,1.3-1,3.3-1,4.8
		c0,1.2,0.1,2.3,1.1,2.3c0.8,0,1.8-1,2.3-1.6l1.2-7.1C145,72.1,144.6,71.9,143.9,71.9z"/>
	<path d="M159.1,76.2c-1.5,3-3.4,6.5-5.3,9.3c-1.6,2.3-2.9,3.2-4.8,3.2c-2.8,0-3-1.1-3-1.6c0-0.6,0.4-1.2,1.3-1.2c1,0,1.1,0.8,1.2,1
		c0.2,0.5,0.1,0.8,0.8,0.8c1,0,1.9-0.8,2.5-1.8c0.9-1.3,1.5-2.4,1.5-2.4l-2-10.3c-0.1-0.3-0.1-0.6-0.4-0.6c-0.5,0-0.9,0.8-1.1,1
		l-0.4-0.3c0.8-1.4,1.9-2.4,3.2-2.4s1.5,0.8,1.7,1.5c0.2,0.9,1,5.5,1.2,7.7c0.6-1.2,2.5-4.8,2.5-5.8c0-0.4-0.1-0.5-0.4-0.8
		c-0.3-0.3-0.5-0.7-0.5-1.1c0-1,0.9-1.5,1.6-1.5c1.4,0,1.6,1,1.6,1.5C160.4,73.3,159.8,74.7,159.1,76.2z"/>
</g>
<g id="DinnerandMusic" class="dmusic">
	<path d="M82.7,103.8c-1.2,0.4-2.8,0.4-4,0.4c-1.8,0-2.5,0-3,0c-1.8,0-3,0.1-3,0.1l0.1-0.4c0.3,0,0.9-0.2,1.2-0.5
		c0.5-0.4,0.6-1,0.9-3.2l1.2-8.3c0.1-0.6,0.2-1.3,0.2-1.7c0-0.9-0.5-1.1-1.3-1.2l0.1-0.4c0,0,0.9,0.1,3,0.1c1.3,0,1.1,0,2.8,0
		c2.5,0,7.6,0.1,7.6,6.3C88.3,99,86.3,102.6,82.7,103.8z M80.9,89.5c-0.7,0-1.2,0-1.4,0l-1.7,11.8c-0.1,0.5-0.1,0.9-0.1,1.1
		c0,0.5,0.2,0.6,0.6,0.7c0.2,0,0.5,0.1,0.7,0.1c0.9,0,1.4-0.1,1.8-0.2c3.5-1.1,4.2-5.8,4.2-8.5C85,91.9,84.2,89.5,80.9,89.5z"/>
	<path d="M92.1,104.4c-1.6,0-1.8-1-1.8-1.6s0.2-1.6,0.4-2.6l0.5-2.7c0.3-1.5,0.4-2.2,0.4-2.5s-0.1-0.5-0.4-0.5c-0.5,0-1,0.8-1.2,1
		l-0.4-0.3c0.3-0.6,1.5-2.4,3.3-2.4c1.6,0,1.8,1,1.8,1.6S94.5,96,94.3,97l-0.5,2.7c-0.3,1.5-0.4,2.2-0.4,2.5s0.1,0.5,0.4,0.5
		c0.5,0,1-0.8,1.2-1l0.4,0.3C95.1,102.5,93.9,104.4,92.1,104.4z M93.6,91.1c-0.9,0-1.8-0.5-1.8-1.6c0-1.2,0.9-1.7,1.9-1.7
		c0.9,0,1.8,0.5,1.8,1.6S94.6,91.1,93.6,91.1z"/>
	<path d="M106,104.4c-1.6,0-1.8-1-1.8-1.6s0.1-1.4,0.3-2.4l0.4-2.1c0.2-1.1,0.4-2.2,0.4-2.8c0-0.4,0-1.1-1-1.1
		c-1.3,0-2.4,1.5-2.5,1.6l-1.3,8.2h-3.2c0.6-3.2,1.5-8.2,1.5-9.2c0-0.3-0.1-0.5-0.4-0.5c-0.5,0-1,0.8-1.2,1l-0.4-0.3
		c0.4-0.7,1.5-2.4,3.3-2.4c1.6,0,1.8,0.9,1.8,1.6c0,0.5-0.2,1.1-0.2,1.1c1.4-1.9,2.5-2.7,4.2-2.7c2.5,0,2.5,1.7,2.5,2.2
		c0,0.9-0.3,2.4-0.4,2.9l-0.4,1.9c-0.3,1.5-0.4,2-0.4,2.4c0,0.3,0.1,0.5,0.4,0.5c0.5,0,1-0.8,1.1-1l0.4,0.3
		C109,102.5,107.8,104.4,106,104.4z"/>
	<path d="M120,104.4c-1.6,0-1.8-1-1.8-1.6s0.1-1.4,0.3-2.4l0.4-2.1c0.2-1.1,0.4-2.2,0.4-2.8c0-0.4,0-1.1-1-1.1
		c-1.3,0-2.4,1.5-2.5,1.6l-1.3,8.2h-3.2c0.6-3.2,1.5-8.2,1.5-9.2c0-0.3-0.1-0.5-0.4-0.5c-0.5,0-1,0.8-1.2,1l-0.4-0.3
		c0.4-0.7,1.5-2.4,3.3-2.4c1.6,0,1.8,0.9,1.8,1.6c0,0.5-0.2,1.1-0.2,1.1c1.4-1.9,2.5-2.7,4.2-2.7c2.5,0,2.5,1.7,2.5,2.2
		c0,0.9-0.3,2.4-0.4,2.9l-0.4,1.9c-0.3,1.5-0.4,2-0.4,2.4c0,0.3,0.1,0.5,0.4,0.5c0.5,0,1-0.8,1.1-1l0.4,0.3
		C122.9,102.5,121.8,104.4,120,104.4z"/>
	<path d="M128.2,98.9c0,0.3,0,0.6,0,0.8c0,1.7,0.6,3.1,2.6,3.1c0.8,0,1.6-0.3,2.6-1l0.3,0.3c-0.2,0.3-1.9,2.3-4.6,2.3
		c-2.5,0-4.1-1.3-4.1-4.4c0-4,2.1-7.2,6.3-7.2c2.1,0,3.5,0.8,3.5,2.5C134.6,97.8,132.6,98.9,128.2,98.9z M130.6,93.8
		c-0.1,0-0.4,0-0.9,0.3c-0.6,0.4-1.2,1.8-1.4,4c0.6,0,1,0,1.6-0.2c0.4-0.1,1.8-0.5,1.8-2.6C131.6,94.5,131.5,93.8,130.6,93.8z"/>
	<path d="M143.6,96.2c-0.6,0-0.9-0.2-1.1-0.5c-0.2-0.2-0.3-0.3-0.5-0.3c-0.5,0-0.8,0.1-1.4,1l-1.2,7.8h-3.2c0.6-3.2,1.4-8.2,1.4-9.2
		c0-0.3-0.1-0.5-0.4-0.5c-0.5,0-1,0.8-1.2,1l-0.4-0.3c0.4-0.7,1.5-2.4,3.3-2.4c1.6,0,1.8,0.9,1.8,1.6c0,0.6-0.2,1.4-0.2,1.4
		c0.9-1.5,1.9-3,3.3-3c0.2,0,1.5,0,1.5,1.4C145.3,95.6,144.4,96.2,143.6,96.2z"/>
	<path d="M165.4,96.3h-1.8c-0.1,4.8-2.3,8.3-8,8.3c-1.5,0-5.9-0.2-5.9-4.3c0-2.9,2.2-4.7,6.2-4.7c-1,0-4.3-0.1-4.3-3.3
		c0-4,4.6-4,5.4-4c1.7,0,4.1,0.2,4.1,1.9c0,0.8-0.6,1.3-1.4,1.3c-1,0-1.2-0.6-1.4-1.3c-0.2-0.5-0.2-1-1.2-1s-2.2,0.9-2.2,3.3
		c0,2.5,2.3,2.5,4,2.5h6.7L165.4,96.3z M157.8,96.3c-2.5,0-4.8,0.5-4.8,3.7c0,2.4,1.5,3.3,3.6,3.3c1.2,0,2.1-0.2,2.8-0.6
		c0.4-0.2,0.6-0.6,0.7-1.2l0.8-5.4h-3.1V96.3z"/>
	<path d="M190.7,88.8c-0.5,0.1-1,0.2-1.3,0.6c-0.4,0.4-0.5,0.9-0.6,2.4l-0.9,8.9c-0.1,0.8-0.1,1.3-0.1,1.8c0,1.1,0.5,1.2,1.3,1.4
		l-0.1,0.4c0,0-1.6-0.1-3-0.1c-2,0-3.2,0.1-3.2,0.1l0.1-0.4c0.3,0,0.8-0.1,1.2-0.6c0.4-0.4,0.6-1.2,0.6-1.7l1.2-10.7
		c0,0-0.2,0.6-0.5,1.3l-6.3,12.1h-0.7l-2.5-12.1c-0.1-0.6-0.2-1.3-0.2-1.3l-2,10.7c-0.1,0.4-0.1,0.8-0.1,1.1c0,0.6,0.2,1.1,1.2,1.2
		l-0.1,0.4c0,0-1.1-0.1-2.3-0.1c-1.3,0-2.3,0.1-2.3,0.1l0.1-0.4c0.3,0,0.9-0.1,1.3-0.6c0.4-0.4,0.6-1,1-3l1.5-7.9
		c0.2-0.9,0.4-1.8,0.4-2.4c0-0.3,0-0.5-0.1-0.6s-0.3-0.5-1.2-0.6l0.1-0.4c0,0,0.8,0.1,2.9,0.1c2,0,2.3,0,2.3,0l2,9.6
		c0.1,0.5,0.1,1.1,0.1,1.1s0.2-0.6,0.5-1.1l5-9.6c0,0,1,0.1,2.2,0.1c2.1,0,2.9-0.1,2.9-0.1L190.7,88.8z"/>
	<path d="M200.3,104.4c-1.6,0-1.8-0.9-1.8-1.6c0-0.5,0.2-1.1,0.2-1.1c-1.7,2.3-3,2.7-4.2,2.7c-2.5,0-2.5-1.7-2.5-2.2
		c0-0.9,0.3-2.4,0.4-2.9l0.4-1.9c0.3-1.5,0.4-2,0.4-2.4c0-0.3-0.1-0.5-0.4-0.5c-0.5,0-1,0.8-1.1,1l-0.4-0.3c0.3-0.6,1.5-2.4,3.3-2.4
		c1.6,0,1.8,1,1.8,1.6s-0.1,1.4-0.3,2.4l-0.4,2.1c-0.2,1.1-0.4,2.2-0.4,2.8c0,0.4,0,1.1,1,1.1c1.3,0,2.5-1.5,2.5-1.6L200,93h3.2
		c-0.6,3.2-1.5,8.2-1.5,9.2c0,0.3,0.1,0.5,0.4,0.5c0.5,0,1-0.8,1.2-1l0.4,0.3C203.2,102.7,202.1,104.4,200.3,104.4z"/>
	<path d="M212,95.9c-0.7,0-1.1-0.4-1.2-0.9c-0.3-0.8-0.3-1.2-1.1-1.2c-0.9,0-1.4,0.6-1.4,1.3c0,0.5,0,0.9,0.9,1.6l1.2,0.9
		c0.9,0.6,2.2,1.5,2.2,3.3c0,1.9-1.2,3.5-4.5,3.5c-3.4,0-3.6-1.1-3.6-1.8c0-0.7,0.5-1.3,1.4-1.3c1,0,1.2,0.8,1.2,0.9
		c0.3,0.8,0.3,1.2,1.2,1.2c0.3,0,1.6,0,1.6-1.5c0-0.6-0.3-1.1-1-1.7l-1.2-0.9c-1.1-0.9-1.9-1.6-1.9-3.1c0-1.1,0.6-3.4,4.3-3.4
		c3.3,0,3.3,1.3,3.3,1.7C213.4,95.2,212.9,95.9,212,95.9z"/>
	<path d="M217,104.4c-1.6,0-1.8-1-1.8-1.6s0.2-1.6,0.4-2.6l0.5-2.7c0.3-1.5,0.4-2.2,0.4-2.5s-0.1-0.5-0.4-0.5c-0.5,0-1,0.8-1.2,1
		l-0.4-0.3c0.3-0.6,1.5-2.4,3.3-2.4c1.6,0,1.8,1,1.8,1.6s-0.2,1.6-0.4,2.6l-0.5,2.7c-0.3,1.5-0.4,2.2-0.4,2.5s0.1,0.5,0.4,0.5
		c0.5,0,1-0.8,1.2-1l0.4,0.3C220,102.5,218.8,104.4,217,104.4z M218.5,91.1c-0.9,0-1.8-0.5-1.8-1.6c0-1.2,0.9-1.7,1.9-1.7
		c0.9,0,1.8,0.5,1.8,1.6S219.5,91.1,218.5,91.1z"/>
	<path d="M230,95.9c-1,0-1.2-0.8-1.3-0.9c-0.2-0.5-0.3-1.2-1-1.2c-2,0-2.5,3.4-2.5,5.3c0,1.7,0.2,3.8,2.4,3.8c1.2,0,2.3-0.9,2.5-1
		l0.3,0.3c-0.2,0.3-1.8,2.3-4.6,2.3c-2.5,0-3.9-1.7-3.9-4.5c0-3,1.4-7.1,6.4-7.1c3.2,0,3.2,1.4,3.2,1.7
		C231.5,95.2,231,95.9,230,95.9z"/>
</g>
</svg>
