<?xml version="1.0" encoding="utf-8"?>
<!-- Generator: Adobe Illustrator 21.1.0, SVG Export Plug-In . SVG Version: 6.00 Build 0)  -->
<svg version="1.1" id="All" xmlns="http://www.w3.org/2000/svg" xmlns:xlink="http://www.w3.org/1999/xlink" x="0px" y="0px"
	 viewBox="0 0 535.7 72.8" style="enable-background:new 0 0 535.7 72.8;" xml:space="preserve">
	 
<style type="text/css">
	.tmg{fill:black;}
	.authentic{fill:#DA2128;}
    
	.sun{
        fill:#EEE19F;
        animation-name: rotation;
        animation-duration: 30s;
        animation-iteration-count: infinite;
        transform-origin: 50% 50%;
        display: inline-block;
    }
    
	.body{fill:#372979;}

    @keyframes rotation {
        0% {
            transform: rotate(0deg);
        }
        100% {
            transform: rotate(360deg);
        }
    }

</style>

<g id="SUN" class="sun">
	<g>
		<path class="st0" d="M453.3,47c-10.2-7.1-24.1,7.7-32.2,11.7C431.2,54.8,447.4,57.3,453.3,47z M452.7,28.6
			c-2.1-12.2-22.5-11.6-31-14.5C431.6,18.4,441.2,31.7,452.7,28.6z M463.7,37c-9.1-9.9-34-0.1-47.2,1
			C429.5,37.3,454.8,48.2,463.7,37z M467.7,28.9C468.4,15.5,444,4.5,434-4.2C443.5,4.8,453.5,30.5,467.7,28.9z M466.7,45.5
			c-13.4-0.8-24.5,23.6-33.1,33.6C442.5,69.6,468.2,59.7,466.7,45.5z M465.4,15c7.2-10.1-7.5-24.2-11.4-32.3
			C457.8-7.2,455.2,9.1,465.4,15z M498.6-16.4c-4.5,9.9-17.7,19.5-14.7,30.9C496.1,12.5,495.7-7.9,498.6-16.4z M475.3,25.5
			c10-9,0.4-34-0.5-47.2C475.3-8.7,464.3,16.5,475.3,25.5z M516.7-3.8c-9,9.5-34.8,19.2-33.4,33.4C496.7,30.4,508,6.1,516.7-3.8z
			 M475.3,27.3c-5.3,0-9.7,4.4-9.7,9.7s4.4,9.7,9.7,9.7c5.3,0,9.7-4.4,9.7-9.7C484.9,31.7,480.6,27.3,475.3,27.3z M497.2,27.1
			c10.2,7.1,24.1-7.7,32.2-11.7C519.2,19.3,503,16.8,497.2,27.1z M497.8,45.5c2.1,12.2,22.5,11.6,31,14.5
			C518.9,55.6,509.2,42.4,497.8,45.5z M486.8,37c9.1,9.9,34,0.1,47.2-1C520.9,36.7,495.6,25.8,486.8,37z M482.8,45.1
			c-0.8,13.4,23.6,24.4,33.6,33.1C506.9,69.2,497,43.6,482.8,45.1z M485,59c-7.2,10.1,7.5,24.2,11.4,32.2
			C492.6,81.2,495.3,65,485,59z M451.8,90.4c4.5-9.9,17.8-19.5,14.8-30.8C454.3,61.5,454.7,81.9,451.8,90.4z M475.1,48.6
			c-10,9-0.5,34,0.5,47.2C475.2,82.7,486.2,57.5,475.1,48.6z"/>
	</g>
</g>
<g id="BODY" class="body">
	<path class="st1" d="M424.4,23.4L424.4,23.4L424.4,23.4z"/>
	<path class="st1" d="M480.4,37.4c0.5-0.7,0.1-2.1-0.5-2.7c0.5-1.3-1.1-1.8-1.7-2.2c-0.4-0.3-0.3-0.5-1-0.7c-0.3-0.1-0.7,0-1-0.1
		c-0.8-0.3-1-1.7-2.2-1c-0.8,0.4-1.4,1.6-2,2.3c-1,1-2.4,1.6-3.1,2.9c-0.7,1.1-0.9,2.4-1.2,3.7l-1.5,2.4l-0.9-1.2
		c0,0-1.5,1.2-1.6,1.8s-1.6,0.7-1.6,1.5c0,0.7-0.3-1-4.3,1.5c-0.9,0.5-2.7,0.2-3.2-0.3c-0.7-0.7-4.6-1.8-4.7-2.3
		c-0.1-0.7-2.6-1.9-3.5-1.8l-2.8-0.4c0,0-3.4-3.7-3.9-3.8s-6.1-0.4-6.1-0.4l0.3-1c0,0-4.9-2.1-5.4-2.1c-0.4-0.1-3.4-2.9-3.7-3.2
		s-1.1-1.2-1.1-1.2l-0.3-1.5c0,0,1.3-1.1,1.2-3c-0.1-1-0.1-1.3-0.2-1.3l0,0l0,0l0,0c0,0,0-0.1,0,0c0.3-0.2,1.3-0.9,1-2.1
		c-0.3-1.5-0.1-4.6-0.7-5.2c-0.5-0.5-0.8-5.2-3.3-5.2c0,0-2.3-3.5-4.9-3.2s-6,0.6-6.2,1.1c-0.3,0.6-2-0.7-2.3,0.7s-1,1.4-1,1.4
		s-1.8,1.5-1.8,2.4c0,0.8-0.1,2.5,0.1,3c0.3,0.6,0.3,4.4,0.1,5.2c-0.1,0.7-0.4,2.9-0.3,3.2s1.1,1.5,1.1,1.5s1.7,4.6,2.4,5.1
		c0.7,0.4,0.9,2.5,0.9,2.5s-2,1.3-2.3,2.3s-4.9,2.5-5.4,3.2s-1.5,0.6-1.5,0.6s-3.3,1.2-3.5,1.9c-0.1,0.7-2.7,1.7-2.8,2.2
		c-0.1,0.6-2.1,0.6-2.4,1.2c-0.4,0.7-3.8,1.3-4.1,1.7c-0.4,0.4-3.4,0.7-3.5,1c-0.1,0.4-3,0.1-3.5,0.1s-16.4-1.4-16.9-1.3
		c0,0-4.4-1.2-4.9-1c-0.6,0.4-2.7-0.3-3.1-0.7c-1.2-0.8-1.8-2.4-3-3.2c-0.5-0.4-1.6-1.4-2.4-1.2c-0.4,0.1-0.3,0.7-0.7,0.9
		c-0.4,0.1-1.7-0.3-2.1-0.4c-0.3-0.1-2.8-0.7-2.4,0.4c-0.2-0.7-2.2,0.2-1.4,1.5c-1,0.2,0.3,1.6,0.7,1.9c-2.5,0.6,1.9,3.1,2.4,3.5
		c0.6,0.4,1.2,0.7,1.9,1c1,0.4,2.1,0.9,3.1,1.3c0.8,0.4,1.7,0.1,2.6,0.2c0.6,0.1,1.6,0.3,2.1,0.7c0.3,0.3,0.1,0.6,0.4,1
		c0.7,0.7,2.1,1.1,3,1.3c1.4,0.3,4.6,2.1,4.6,2.1s2.7,1.2,4.3,0.8s3.4,0.7,3.9,1c0.5,0.2,6.2,0.7,6.6,0.4s4.1,0.1,4.8-0.1
		c0.7-0.3,4.2-0.7,4.8-0.7c0.5,0,5-0.4,5.4-0.4s6.2-1,6.2-1s1,0.7,1.4,1.2c0.4,0.6,1.3,4.7,1.2,5.4c-0.1,0.7,1,5.1,1.8,6.1
		c0.4,0.5,0.5,2.1,0.6,3.7h33.1c-0.1-0.5-0.3-0.8-0.4-0.9c-0.7-0.7,0.9-1.7,0.8-2.1s-0.7-1.5-0.7-1.5s1.3-1.2,1-1.9
		c-0.3-0.7-0.1-1.8-0.7-2.1c-0.4-0.3,0.9-1.5,0.7-2.5c-0.2-1,0-3.3-0.2-3.9c-0.1-0.6,1.4-2.5,1.1-3.5s0.5-1.8,0.5-1.8
		s5.1,3.2,10,3.5s10.9,0.4,11.3,0.1c0.4-0.3,3.1-1.8,3.1-1.8s2.3,0.6,2.7-1.1s1.4-3,1.4-3l1.9-2.4l0.1-1c0,0,1.3-0.4,2.2-1
		c1.7-1,3.5-1.8,5.2-2.7c0.7-0.4,1.3-0.7,1.6-1.3C480.9,40.7,481.3,38.2,480.4,37.4z M424.4,23.5C424.4,23.6,424.4,23.6,424.4,23.5
		C424.4,23.6,424.4,23.4,424.4,23.5z"/>
	<path class="st1" d="M424.4,23.5C424.4,23.4,424.4,23.6,424.4,23.5C424.4,23.6,424.4,23.6,424.4,23.5z"/>
</g>
<path id="TMG-Logo" class="tmg" d="M72.9,48.9c-0.4-0.3-1-0.4-1.8-0.1c-1.5,0.4-2.1,1.8-1.5,3.4c0.3,1.1-0.8,2.5-1.8,3.4
	c-1.6,1.6-3.6,2.7-5.6,3.6C60,60,57.1,60.7,53.4,61c-3.7,0.4-7.4,0.3-11.3-0.4c-3.7-0.5-7-2.1-9.9-4.4c-2.9-2.3-4.5-5.1-5.2-8.4
	c-0.4-2.5-0.7-5.1-0.7-7.8c0-1,0-2.1,0.1-3.2C26.7,33,27.2,29,28,24.7c0.8-4,2.1-8.4,4-13.2c2.2-0.1,4.1-0.3,5.5-0.5
	c0.3,0,0.3,0,0.4,0c-0.1,0.3-0.3,0.5-0.3,0.8c0,0.1,0,0.4,0.1,0.5c0.1,0.3,0.4,0.8,1.1,1.1h1.7c0.5,0,1-0.5,1.2-1.4
	c0.3-0.8,0.7-1.6,1.2-2.3s1.1-1.1,1.8-1.4c1.4-0.7,1.6-1.5,1.6-2.2c-0.1-1.1-1.1-1.5-2.7-1.5l-0.4,0.1c-1.9,1-4.5,1.5-7.7,1.6
	c-3.3,0.1-7.6,0.4-12.8,1c-6.6,1-11.4,2.9-14.4,5.6c-3.2,2.7-4.5,6.5-4,10.7c0.1,1.1,0.4,2.3,1,3.7c0.5,1.4,1.4,2.6,2.6,3.6
	s2.3,1.5,3.4,1.5c1.2,0,2.2-0.5,2.7-1.6s0.3-2.2-0.5-2.9c-0.5-0.4-1.5-1-3-0.5C10,27.5,9.3,26.6,9,26c-0.3-0.5-0.4-1.4-0.4-2.2
	c0-1.1,0.3-2.3,0.7-3.8c0.8-2.7,2.6-4.7,5.6-5.6c2.9-1.1,6.7-1.6,11.4-1.9c-2.1,7.3-3.4,13.3-4.1,18c-0.5,4.1-0.8,7.6-0.8,10.6
	c0,0.7,0,1.4,0,1.9c0.1,3.3,0.7,6.5,1.6,9.3c1,2.9,2.6,5.5,4.9,7.4c2.2,1.9,5.1,3.4,8.2,4.7c3.2,1.2,6.3,1.8,9.5,1.9
	c3,0,7-0.1,11.8-0.8c2.6-0.3,5.2-1.1,8-2.5c2.7-1.4,4.9-3,6.5-4.9c1.6-2.1,2.5-4,2.6-5.9v-0.3C74,50.2,73.6,49.4,72.9,48.9z
	 M46,23.7c-2.2,0.5-4.1,1.4-5.6,2.3c-1.5,1.1-2.9,2.9-4,5.5c-1,2.5-1.6,4.8-1.8,6.9c-0.1,2.1-0.3,3.4-0.1,4.4
	c0.1,1.2,0.5,2.5,1.1,3.3c0.7,1.2,1.6,1.8,2.9,1.5c1-0.1,1.8-0.7,2.6-1.8c0.4-0.5,1-1.2,1.5-2.2c0.1,0.7,0.3,1.4,0.5,1.8
	c0.7,1.2,1.5,1.4,2.1,1.4h0.1c0.7-0.3,1.5-0.7,2.3-1.5l2.6-2.9l0.3-0.7v-1.2l-1.2-0.8l-0.4,0.1L48.5,40c0,0-0.4,0.4-1,0.8
	c0-0.5-0.1-1.2-0.1-2.5c-0.1-1.4-0.1-2.9-0.1-4.3c0-0.8,0-1.5,0-2.3c0.1-2.2,0.3-3.7,0.5-4.7c0.1-0.7,0.3-1.2,0.3-1.8
	c0-0.5-0.1-1-0.3-1.4L47,23.3h-0.8L46,23.7z M42.8,32.2c-0.1,2.1-0.4,3.8-0.7,5.2c-0.4,1.4-0.8,2.5-1.4,3.2c-0.5,1-1,1-1,1.1
	c0,0-0.1,0-0.4-0.4c-0.1-0.3-0.5-1.1-0.5-3.3v-0.1c0-1.9,0.3-3.7,1-5.4c0.7-2.2,1.2-2.9,1.5-3.2c0.4-0.4,0.8-0.5,1.2-0.5h0.4l0,0
	c0,0.1,0,0.4,0,1C42.8,30.4,42.8,31.1,42.8,32.2z M52.4,46.6l1.5,0.3l2.7-2.7l0.3-0.5l0.5-5.5c0,0,0.3-1.5,0.4-3c0,0.3,0,0.5,0.1,1
	l0,0c0.4,2.3,1.2,4.3,2.3,5.5c1.1,1.4,2.7,2.2,4.5,2.7c1.9,0.5,4.3,0,6.7-1.6l0.4-1l-0.3-1.4l-1.4-0.7c-1.5,0.8-2.7,1-3.8,0.4
	c-1.2-0.5-2.2-1.4-2.7-2.2c-0.5-1-1-1.8-1-2.7c0-0.7,0.3-1,0.8-1.2c1.2-0.4,2.3-1,3.4-1.9c1.1-0.8,1.9-1.9,2.5-2.9
	c0.7-1.1,0.8-2.6,0.7-4.4c-0.1-1.5-0.8-2.5-1.9-3.2c-1-0.5-1.9-0.7-3-0.7c-1,0-2.2,0.4-3.6,1.1c-1.4,0.7-2.5,1.8-3.4,3.2
	c0,0-0.1,0.1-0.1,0.3c0.1-1.1,0.4-4,0.4-4l0.7-5.6c0.1-1.9,0.5-3.6,1.1-4.9c0.7-1.8,1.1-2.5,1.4-2.7c0.4-0.4,0.5-0.5,0.7-0.5
	c0,0,0.4,0,1.2,0.4l1.2-0.4c0.7-1.1,1.1-1.5,1.4-1.8c0.4-0.4,0.8-0.8,0.8-1.5c0-0.3-0.1-1.1-1.2-1.4l-1.4-0.6l-0.5,0.1
	c-0.8,0.4-1.6,1-2.3,1.5s-1.2,1.2-1.8,2.1l-1.8,2.3c-0.7,1-1.2,1.9-1.6,2.9s-0.8,2.5-1.4,4.5c-0.5,2.1-0.8,4.4-1.2,6.9L53,30.4
	l-0.7,7.8l-0.5,6.2v0.1L52.4,46.6z M58.3,32.6c1.1-2.6,2.1-4.4,2.9-5.4c0.7-0.8,1.8-1.4,3-1.4c0.3,0,0.7,0,1,0.1
	c0.1,0.1,0.3,0.4,0.3,0.8c0,0.1,0,0.3,0,0.3c-0.1,1.4-0.7,2.5-1.6,3c-1.1,0.7-2.3,1.1-3.6,1.4C59.4,31.6,58.9,31.9,58.3,32.6
	c0,0,0,0.1,0,0.3C58.3,32.7,58.3,32.6,58.3,32.6z M79.5,37.3c-0.8,1-1.1,1.1-1.1,1.2c0,0,0,0,0-0.1s0-0.3,0-0.5s0-0.5,0-1l1.1-10.8
	c0.1-0.8,0.1-1.6,0.1-2.2c0-0.5,0-1.1-0.1-1.5c-0.3-1.4-1-2.1-1.5-2.3c-0.5-0.3-1.5-0.4-2.6,0.4c-0.7,0.4-1.8,1.5-3.3,3.3L72,24.5
	v1.2l1.6,0.7c0,0,1.1-1,1.2-1.2l0,0c0,1-0.1,2.2-0.1,2.2c0,1.4-0.4,4.9-1.1,11v0.3l0.1,1.2c0.4,1.9,1.4,2.7,2.2,3h0.4l1-0.1l0.3-0.1
	c1.2-0.5,2.2-1.2,2.7-2.1c0.7-1,1-1.9,0.7-3L79.5,37.3z M77.3,15.1L77.3,15.1l-1.9,2.2l0.4,1.5c1.4,0.4,2.7,0.1,3.8-0.8
	c1-0.8,1.9-2.1,2.9-3.7l-1-1.4C79.5,13.2,78,14,77.3,15.1z M88.9,5.2h-0.3h-0.3c-0.7,0.1-1.4,0.4-1.9,0.8c-0.4,0.4-0.8,1.1-0.5,2.3
	c0.1,1.2,0.8,1.8,1.4,2.1c0.3,0.1,0.4,0.3,0.4,0.4c0,0,0.1,0.4-0.1,1.6l-1.2,4.7l1.1,1.2c1.4-0.3,2.3-1.1,3.2-2.6
	c0.5-1.4,1-2.6,1.1-3.7s0.3-2.5,0.1-3.8V8.1C91.3,6.3,90.4,5.4,88.9,5.2z M107.3,28.7c-0.3-0.7-0.5-1.4-1-1.8l-1.5-1.4l-2.1-1.8
	c-1-1-1.2-1.2-1.2-1.2l-0.1-0.4c0-0.1,0-0.3,0.1-0.4l0.1-0.1l0.7,0.4l1,0.7c0.5,0.3,1.5,0.3,2.2-0.8l1.2-1.9l-0.1-1.2l-1.8-1.4
	c-0.5-0.3-1.2-0.4-1.9-0.4h-0.4c-0.7,0.1-1.2,0.4-1.9,1l-1.5,1.5l-1.4,2.2c-0.5,1-0.8,2.1-0.7,3.3l0.1,0.7v0.1l0.8,1.6l1.6,1.5
	l2.5,2.2c1.1,1,1.4,1.5,1.4,1.8c0.1,0.4,0.1,0.8,0,1.2s-0.4,0.8-0.7,1.1c-0.3,0.3-0.5,0.4-0.8,0.5c-0.1,0-0.4,0-0.5-0.1l-0.8-0.7
	c-0.7-0.7-1.5-0.8-2.3-0.3L97.1,36c-0.4,0.5-0.5,1.4-0.7,2.5l0.4,0.8l1.5,0.8l1.5,0.3h0.5c0.1,0,2.1-0.7,2.1-0.7
	c0.7-0.3,1.5-0.8,2.2-1.6c0.8-0.7,1.4-1.6,1.9-2.6s0.8-2.3,0.8-4C107.7,30.9,107.3,28.7,107.3,28.7z"/>
<g id="TMG" class="tmg">
	<path d="M151.1,40l-8.4,1.2V20.7l-8.2,15.4l-7.3-16.7v20.8l-8.7,0.7v-37l10-1.1l6.7,14l6.9-12.5l8.9-1.6L151.1,40L151.1,40z"/>
	<path d="M156.9,39.2c-1.2-0.4-1.8-0.7-1.8-1l9.2-24.2c0.4-1.2,0.7-1.8,0.8-1.8c0.8-0.3,1.6-0.4,2.5-0.7l4.5-1.1
		c0.1,0,0.4,0.3,0.7,0.8s0.7,1.4,1.1,2.5l10.6,24.6c0.1,0.1-0.1,0.3-0.5,0.4c-1,0.3-1.8,0.7-2.5,1c-0.4,0.1-0.7,0.3-1,0.4
		c-1.2,0.4-2.1,0.7-2.5,0.7c-0.1-0.4-0.3-0.7-0.4-0.8c-0.5-1.5-1-2.5-1.1-2.7c-0.1-0.3-0.4-1.1-1-2.3c-0.3-0.7-0.5-1.1-0.8-1.1h-9.8
		c-0.3,0-0.5,0.1-0.7,0.5c-0.1,0.4-0.5,1.2-1.1,2.7l-1.4,3.7C159.4,39.9,157.7,39.5,156.9,39.2z M166.9,27.4l5.6-0.1l-2.9-6.5
		L166.9,27.4z"/>
	<path d="M206.9,33.6c-2.6,2.5-4.3,4-5.1,4.5c-0.5,0.5-1,1-1.2,1.2c-1.1,0.8-2.1,1.2-3.2,1.2c-0.4,0-2.1-0.1-4.7-0.5s-4-0.7-4-0.8
		V11.7c2.1-0.4,3.7-0.5,4.7-0.8c3.2-0.5,4.9-0.8,5.2-0.8c0.1,0,0.1,0,0.3,0c0.3,0,0.4,0.1,0.7,0.3l15.7,14c0.1,0.1,0.3,0.3,0.3,0.5
		c0,0.1-0.1,0.4-0.3,0.7C212.2,28.6,209.4,31.4,206.9,33.6z M205.8,24.5l-9.1-7l-0.3,15.4l9.2-7.6v-0.8H205.8z"/>
	<path d="M257.3,39.7c-2.3,0.7-4.3,1-5.9,1c-0.1,0-1.5-1.4-4.4-4.1c-3.2-3-5.8-5.6-8-8.1c-2.9-3.2-4.3-5.1-4.3-6
		c0-0.7,1.4-2.6,4-5.6c1.9-2.2,4.5-5.1,7.8-8.5c1.8-1.9,3.7-3.8,5.5-5.9c1.4,1.1,2.7,2.3,4.1,3.4c1.2,1,2.1,1.5,2.2,1.5
		c-1.1,1.2-2.3,2.5-3.4,3.7c-2.5,2.6-4.5,4.9-6.3,7c-2.3,2.6-3.4,4-3.4,4.4c0,0.3,1.2,1.6,3.6,4.3c2.3,2.6,3.7,3.8,4,3.8
		c0.5,0,0.8-0.1,0.8-0.4V19.1h7.8c0,2.1,0,4.1,0,6.2c0,2.2,0,6,0,11.7C261.4,38.1,260.1,38.9,257.3,39.7z"/>
	<path d="M287.6,38.8c-1.8,1-2.7,1.5-2.9,1.5c-0.1,0-1.1-1-2.7-2.7c-1.8-1.8-3.4-3.6-5.1-5.4c-1.9-2.1-3-3.2-3.3-3.4l-0.5-0.3v10.7
		c-0.4,0.1-1.8,0.5-4.3,1c-1.2,0.3-2.5,0.4-3.8,0.5V11.6l9.2-1.9c0.5,0,0.8,0,1,0c0.5,0,1.1,0.1,1.5,0.4s0.7,0.4,0.7,0.4
		c0,0.1,0.5,0.8,1.8,1.9c3.6,3.4,6,5.9,7.6,7.7c0.1,0.3,0.1,0.5,0,0.7c-0.5,0.8-1.9,2.2-3.8,4.4c-0.5,0.5-0.8,1-0.8,1.2
		c0,0.1,1.2,1.6,3.7,4.3c1.9,2.2,3.8,4.1,5.6,5.9l-0.7,0.4C289.6,37.5,288.5,38.2,287.6,38.8z M275.6,18c-0.5-0.4-1.5-1-2.6-1.8v8.7
		c1.1-0.5,2.3-1.4,3.7-2.5c1.1-0.8,1.6-1.4,1.6-1.8C278.4,20.1,277.4,19.3,275.6,18z"/>
	<path d="M309.1,16.2c-3.2,1.6-4.8,2.6-4.8,2.7c0.7,0.7,1.2,1.2,1.6,1.5c1,1,2.2,2.2,3.6,3.6c0.3,0.3,0.3,0.4,0,0.7
		c-0.5,0.5-1.8,1.6-3.4,3.2c-1.1,1-1.6,1.6-1.6,1.9c0,0.4,1.2,1.5,3.6,3.3c2.1,1.6,3.3,2.5,3.6,2.6c0.3,0.1,0.5,0.3,0.5,0.3
		c0.5,0.3,0.8,0.5,0.8,0.7l-5.5,3.8l-13.9-10c-0.1-0.1-0.1-0.3-0.1-0.5c0-0.3,0.1-0.4,0.3-0.5c1.6-1.2,3.2-2.5,4.4-3.4
		c1.5-1.2,2.2-1.9,2.2-2.1s-0.7-0.8-2.1-2.3c-1-1.1-2.5-2.6-4.4-4.5c-0.1-0.1-0.1-0.3-0.1-0.4s0-0.3,0.1-0.3
		c3.3-1.6,6.5-3.3,9.8-5.1c3.7-1.9,5.6-2.7,5.9-2.7c1.1,1.1,1.8,1.9,2.3,2.3c1.5,1.6,2.3,2.5,2.3,2.6
		C311.8,14.9,310.2,15.7,309.1,16.2z"/>
	<path d="M332.4,16.2c-3.2,1.6-4.8,2.6-4.8,2.7c0.7,0.7,1.2,1.2,1.6,1.5c1,1,2.2,2.2,3.6,3.6c0.3,0.3,0.3,0.4,0,0.7
		c-0.5,0.5-1.8,1.6-3.4,3.2c-1.1,1-1.6,1.6-1.6,1.9c0,0.4,1.2,1.5,3.6,3.3c2.1,1.6,3.3,2.5,3.6,2.6c0.3,0.1,0.5,0.3,0.5,0.3
		c0.5,0.3,0.8,0.5,0.8,0.7l-5.5,3.8l-13.9-10c-0.1-0.1-0.1-0.3-0.1-0.5c0-0.3,0.1-0.4,0.3-0.5c1.6-1.2,3.2-2.5,4.4-3.4
		c1.5-1.2,2.2-1.9,2.2-2.1s-0.7-0.8-2.1-2.3c-1-1.1-2.5-2.6-4.4-4.5c-0.1-0.1-0.1-0.3-0.1-0.4s0-0.3,0.1-0.3
		c3.3-1.6,6.5-3.3,9.8-5.1c3.7-1.9,5.6-2.7,5.9-2.7c1.1,1.1,1.8,1.9,2.3,2.3c1.5,1.6,2.3,2.5,2.3,2.6
		C335,14.9,333.3,15.7,332.4,16.2z"/>
	<path d="M362.3,40.8l-13.9-13.6v12l-8.4,2.1V11l8.4-1.2V23l11.7-13.9l6.7,3l-10.3,12.4L369.1,38L362.3,40.8z"/>
</g>
<g id="AUTHENTIC" class="authentic">
	<path class="st2" d="M82.9,62.7c-0.7-0.2-1-0.4-1-0.5l3.5-10.3c0.2-0.5,0.2-0.8,0.3-0.8c0.3-0.1,0.6-0.2,1-0.2l1.8-0.5
		c0.1,0,0.2,0.2,0.3,0.6c0,0.1,0.2,0.3,0.3,0.9l4,10.4c0,0.1-0.1,0.2-0.2,0.2c-0.3,0.1-0.6,0.2-1,0.4c-0.2,0.1-0.2,0.2-0.3,0.2
		c-0.5,0.2-0.8,0.3-1,0.3c-0.1-0.2-0.1-0.3-0.2-0.4c-0.2-0.6-0.4-1-0.5-1.2s-0.2-0.5-0.4-1c-0.1-0.3-0.2-0.5-0.3-0.5h-3.5
		c-0.2,0-0.2,0.1-0.3,0.2c-0.1,0.2-0.2,0.6-0.4,1.2l-0.5,1.6C83.7,63,83.3,62.8,82.9,62.7z M86.4,57.6h2.2v-0.1
		c-0.1-0.2-0.2-0.4-0.3-0.9c-0.2-0.7-0.6-1.3-0.7-1.9L86.4,57.6z"/>
	<path class="st2" d="M103.7,62.9l-2.6,0.5v-1.3l-1.9,1.2l-3.3-1.2c-0.2-0.1-0.4-0.2-0.5-0.2c-0.3-0.3-0.5-0.7-0.5-1.3v-7.1l2.9-0.6
		v7c0,0.2,0,0.3,0.2,0.5c0.1,0,0.2,0.1,0.2,0.2l3,1v-8.1l2.6-0.5L103.7,62.9L103.7,62.9z"/>
	<path class="st2" d="M114.2,55h-2.7v7.8l-2.6,0.6V55H105l1.1-2h9.3L114.2,55z"/>
	<path class="st2" d="M121.4,63.3L121.4,63.3l-0.1-5.1h-2.6v4.5l-2.4,0.4V52.9l2.5-0.4v3.8h2.7V53l2.4-0.7v10.5L121.4,63.3z"/>
	<path class="st2" d="M130.3,55c-1.1,0.6-1.6,0.9-1.6,1c0.2,0.2,0.4,0.4,0.6,0.6c0.3,0.3,0.7,0.7,1.2,1.2c0.1,0.1,0.1,0.2,0,0.2
		c-0.2,0.2-0.6,0.6-1.2,1.1c-0.4,0.3-0.6,0.6-0.6,0.6c0,0.2,0.4,0.5,1.2,1.1c0.7,0.6,1.1,0.9,1.2,0.9c0.1,0.1,0.2,0.1,0.2,0.1
		c0.2,0.1,0.3,0.2,0.3,0.2l-1.8,1.4l-4.7-3.4c-0.1,0-0.1-0.1-0.1-0.2c0-0.1,0-0.2,0.1-0.2c0.6-0.4,1-0.8,1.5-1.2s0.7-0.6,0.7-0.7
		c0,0-0.2-0.3-0.7-0.8c-0.3-0.3-0.9-0.9-1.5-1.5c0,0-0.1-0.1-0.1-0.2s0-0.1,0.1-0.1c1.1-0.6,2.2-1.1,3.3-1.7c1.3-0.6,1.9-1,2-1
		c0.3,0.4,0.6,0.6,0.8,0.8c0.6,0.6,0.8,0.9,0.8,0.9C131.2,54.5,130.6,54.8,130.3,55z"/>
	<path class="st2" d="M141.4,63l-2.1,0.3l-4.1-5.7v5.3l-2.6,0.4v-9.8l2.6-0.4l3.9,5.3v-5.1l2.3-0.4C141.4,53,141.4,63,141.4,63z"/>
	<path class="st2" d="M151.9,55h-2.7v7.8l-2.6,0.6V55h-3.9l1.1-2h9.3L151.9,55z"/>
	<path class="st2" d="M154.9,63.3V53.1l2.4-0.4v10.2L154.9,63.3z"/>
	<path class="st2" d="M166.1,54.9c-1.4,0.9-2.2,1.4-2.5,1.7c-0.9,0.6-1.4,1-1.4,1s0.4,0.5,1.3,1.4c1,1,1.9,1.9,2.9,2.9l-2.2,1.6
		c0,0-0.5-0.5-1.4-1.4c-0.8-0.8-1.6-1.7-2.4-2.5c-0.9-0.9-1.3-1.4-1.3-1.4c-0.2-0.2-0.2-0.3-0.2-0.5c0-0.1,0-0.2,0-0.5
		c0.1-0.3,0.2-0.6,0.7-1c0.2-0.1,0.3-0.2,0.6-0.5c0.4-0.3,0.9-0.6,1.3-1c1-0.7,1.8-1.3,2.2-1.6c0.8-0.6,1.3-0.9,1.4-0.9l2.4,1.5
		C167.1,54.3,166.6,54.6,166.1,54.9z"/>
	<path class="st2" d="M189.1,63l-2.9,0.4v-6.9l-2.8,5.3l-2.5-5.7v7l-3,0.2V50.7l3.4-0.4l2.3,4.8l2.3-4.2l3-0.6V63H189.1z"/>
	<path class="st2" d="M196.6,55c-1.1,0.6-1.6,0.9-1.6,1c0.2,0.2,0.4,0.4,0.6,0.6c0.3,0.3,0.7,0.7,1.2,1.2c0.1,0.1,0.1,0.2,0,0.2
		c-0.2,0.2-0.6,0.6-1.2,1.1c-0.4,0.3-0.6,0.6-0.6,0.6c0,0.2,0.4,0.5,1.2,1.1c0.7,0.6,1.1,0.9,1.2,0.9c0.1,0.1,0.2,0.1,0.2,0.1
		c0.2,0.1,0.3,0.2,0.3,0.2l-1.8,1.4l-4.7-3.4c-0.1,0-0.1-0.1-0.1-0.2c0-0.1,0-0.2,0.1-0.2c0.6-0.4,1-0.8,1.5-1.2s0.7-0.6,0.7-0.7
		c0,0-0.2-0.3-0.7-0.8c-0.3-0.3-0.9-0.9-1.5-1.5c0,0-0.1-0.1-0.1-0.2s0-0.1,0.1-0.1c1.1-0.6,2.2-1.1,3.3-1.7c1.3-0.6,1.9-1,2-1
		c0.3,0.4,0.6,0.6,0.8,0.8c0.6,0.6,0.8,0.9,0.8,0.9C197.4,54.5,196.9,54.8,196.6,55z"/>
	<path class="st2" d="M206,60.9c-0.9,0.8-1.4,1.4-1.7,1.5c-0.2,0.2-0.3,0.3-0.4,0.4c-0.3,0.2-0.7,0.4-1,0.4c-0.2,0-0.7-0.1-1.6-0.2
		c-0.9-0.2-1.4-0.2-1.4-0.3v-9.3c0.7-0.2,1.3-0.2,1.6-0.2c1.1-0.2,1.7-0.2,1.8-0.2h0.1c0.1,0,0.2,0,0.2,0.1l5.3,4.7
		c0.1,0.1,0.1,0.1,0.1,0.2s0,0.2-0.1,0.2C207.7,59.1,206.8,60.1,206,60.9z M205.6,57.8l-3.1-2.4l-0.1,5.3l3.1-2.6L205.6,57.8
		L205.6,57.8L205.6,57.8z"/>
	<path class="st2" d="M210.4,63.3V53.1l2.4-0.4v10.2L210.4,63.3z"/>
	<path class="st2" d="M223.3,55h-2.7v7.8l-2.6,0.6V55h-3.9l1.1-2h9.3L223.3,55z"/>
	<path class="st2" d="M230.1,55c-1.1,0.6-1.6,0.9-1.6,1c0.2,0.2,0.4,0.4,0.6,0.6c0.3,0.3,0.7,0.7,1.2,1.2c0.1,0.1,0.1,0.2,0,0.2
		c-0.2,0.2-0.6,0.6-1.2,1.1c-0.4,0.3-0.6,0.6-0.6,0.6c0,0.2,0.4,0.5,1.2,1.1c0.7,0.6,1.1,0.9,1.2,0.9c0.1,0.1,0.2,0.1,0.2,0.1
		c0.2,0.1,0.3,0.2,0.3,0.2l-1.8,1.4l-4.7-3.4c-0.1,0-0.1-0.1-0.1-0.2c0-0.1,0-0.2,0.1-0.2c0.6-0.4,1-0.8,1.5-1.2s0.7-0.6,0.7-0.7
		c0,0-0.2-0.3-0.7-0.8c-0.3-0.3-0.9-0.9-1.5-1.5c0,0-0.1-0.1-0.1-0.2s0-0.1,0.1-0.1c1.1-0.6,2.2-1.1,3.3-1.7c1.3-0.6,1.9-1,2-1
		c0.3,0.4,0.6,0.6,0.8,0.8c0.6,0.6,0.8,0.9,0.8,0.9C231,54.5,230.4,54.8,230.1,55z"/>
	<path class="st2" d="M241,62.6c-0.6,0.3-1,0.5-1,0.5c-0.1,0-0.4-0.3-1-1c-0.6-0.6-1.2-1.2-1.8-1.8c-0.6-0.7-1-1-1.1-1.2l-0.2-0.1
		v3.6c-0.2,0.1-0.6,0.2-1.4,0.3c-0.4,0.1-0.9,0.2-1.3,0.2v-9.9l3.1-0.6c0.2,0,0.2,0,0.3,0c0.2,0,0.4,0.1,0.5,0.2
		c0.2,0.1,0.2,0.2,0.2,0.2s0.2,0.2,0.6,0.6c1.2,1.2,2.1,2,2.6,2.6c0.1,0.1,0.1,0.2,0,0.2c-0.2,0.2-0.6,0.8-1.3,1.5
		c-0.2,0.2-0.2,0.3-0.2,0.5c0,0.1,0.4,0.6,1.3,1.4c0.6,0.7,1.3,1.4,1.9,2L242,62C241.8,62.2,241.4,62.5,241,62.6z M237,55.5
		c-0.2-0.2-0.5-0.3-0.9-0.6v3c0.3-0.2,0.8-0.5,1.3-0.8c0.4-0.3,0.6-0.5,0.6-0.6C237.9,56.2,237.6,56,237,55.5z"/>
	<path class="st2" d="M251.4,62.6c-0.6,0.3-1,0.5-1,0.5c-0.1,0-0.4-0.3-1-1c-0.6-0.6-1.2-1.2-1.8-1.8c-0.6-0.7-1-1-1.1-1.2l-0.2-0.1
		v3.6c-0.2,0.1-0.6,0.2-1.4,0.3c-0.4,0.1-0.9,0.2-1.3,0.2v-9.9l3.1-0.6c0.2,0,0.2,0,0.3,0c0.2,0,0.4,0.1,0.5,0.2
		c0.2,0.1,0.2,0.2,0.2,0.2s0.2,0.2,0.6,0.6c1.2,1.2,2.1,2,2.6,2.6c0.1,0.1,0.1,0.2,0,0.2c-0.2,0.2-0.6,0.8-1.3,1.5
		c-0.2,0.2-0.2,0.3-0.2,0.5c0,0.1,0.4,0.6,1.3,1.4c0.6,0.7,1.3,1.4,1.9,2l-0.2,0.2C252.1,62.2,251.7,62.5,251.4,62.6z M247.3,55.5
		c-0.2-0.2-0.5-0.3-0.9-0.6v3c0.3-0.2,0.8-0.5,1.3-0.8c0.4-0.3,0.6-0.5,0.6-0.6C248.3,56.2,247.9,56,247.3,55.5z"/>
	<path class="st2" d="M254,62.8c-0.4-0.2-0.6-0.2-0.6-0.3l3.1-8.2c0.2-0.4,0.2-0.6,0.2-0.6c0.2-0.1,0.6-0.2,0.8-0.2l1.6-0.4
		c0.1,0,0.2,0.1,0.2,0.2s0.2,0.5,0.4,0.9l3.6,8.4c0,0.1,0,0.1-0.2,0.2c-0.3,0.1-0.6,0.2-0.8,0.3c-0.2,0.1-0.2,0.1-0.3,0.2
		c-0.5,0.2-0.7,0.2-0.8,0.2c-0.1-0.2-0.1-0.2-0.2-0.3c-0.2-0.5-0.3-0.8-0.4-1c-0.1-0.1-0.2-0.4-0.3-0.8c-0.1-0.2-0.2-0.4-0.2-0.4
		h-3.3c-0.1,0-0.2,0.1-0.2,0.2c-0.1,0.2-0.2,0.5-0.4,1l-0.5,1.3C254.8,63,254.2,62.9,254,62.8z M257.4,58.7l1.9-0.1l-1-2.2
		L257.4,58.7z"/>
	<path class="st2" d="M273.7,63l-2.1,0.3l-4.1-5.7v5.3l-2.6,0.4v-9.8l2.6-0.4l3.9,5.3v-5.1l2.3-0.4L273.7,63L273.7,63z"/>
	<path class="st2" d="M281,55c-1.1,0.6-1.6,0.9-1.6,1c0.2,0.2,0.4,0.4,0.6,0.6c0.3,0.3,0.7,0.7,1.2,1.2c0.1,0.1,0.1,0.2,0,0.2
		c-0.2,0.2-0.6,0.6-1.2,1.1c-0.4,0.3-0.6,0.6-0.6,0.6c0,0.2,0.4,0.5,1.2,1.1c0.7,0.6,1.1,0.9,1.2,0.9c0.1,0.1,0.2,0.1,0.2,0.1
		c0.2,0.1,0.3,0.2,0.3,0.2l-1.8,1.4l-4.7-3.4c-0.1,0-0.1-0.1-0.1-0.2c0-0.1,0-0.2,0.1-0.2c0.6-0.4,1-0.8,1.5-1.2s0.7-0.6,0.7-0.7
		c0,0-0.2-0.3-0.7-0.8c-0.3-0.3-0.9-0.9-1.5-1.5c0,0-0.1-0.1-0.1-0.2s0-0.1,0.1-0.1c1.1-0.6,2.2-1.1,3.3-1.7c1.3-0.6,1.9-1,2-1
		c0.3,0.4,0.6,0.6,0.8,0.8c0.6,0.6,0.8,0.9,0.8,0.9C281.9,54.5,281.4,54.8,281,55z"/>
	<path class="st2" d="M284,62.8c-0.4-0.2-0.6-0.2-0.6-0.3l3.1-8.2c0.2-0.4,0.2-0.6,0.2-0.6c0.2-0.1,0.6-0.2,0.8-0.2l1.6-0.4
		c0.1,0,0.2,0.1,0.2,0.2c0.1,0.2,0.2,0.5,0.4,0.9l3.6,8.4c0,0.1,0,0.1-0.2,0.2c-0.3,0.1-0.6,0.2-0.8,0.3c-0.2,0.1-0.2,0.1-0.3,0.2
		c-0.5,0.2-0.7,0.2-0.8,0.2c-0.1-0.2-0.1-0.2-0.2-0.3c-0.2-0.5-0.3-0.8-0.4-1c-0.1-0.1-0.2-0.4-0.3-0.8c-0.1-0.2-0.2-0.4-0.2-0.4
		h-3.3c-0.1,0-0.2,0.1-0.2,0.2c-0.1,0.2-0.2,0.5-0.4,1l-0.5,1.3C284.9,63,284.3,62.9,284,62.8z M287.5,58.7l1.9-0.1l-1-2.2
		L287.5,58.7z"/>
	<path class="st2" d="M304.7,63l-2.9,0.3l-4.1-5.7v5.3l-2.6,0.4v-9.8l2.6-0.4l3.9,5.3v-5.1l3.1-0.4V63L304.7,63z"/>
	<path class="st2" d="M322.5,52.8c-1.3,0.9-2.2,1.6-2.8,2.1c-1,0.8-1.4,1.2-1.4,1.3s0.4,0.5,1.1,1.4c0.7,0.8,1.4,1.6,2.2,2.4
		c0.4,0.5,0.9,1,1.3,1.4c-0.1,0.1-0.5,0.4-1.3,1c-0.2,0.2-0.6,0.6-1.2,1c0,0-0.6-0.6-1.5-1.7c-0.5-0.6-1.4-1.6-2.7-3.1
		c-0.5-0.6-1-1.1-1.4-1.7c-0.1-0.1-0.1-0.2-0.2-0.2c-0.1-0.1-0.1-0.2-0.1-0.3s0-0.2,0-0.2c0-0.2,0-0.3,0.1-0.6c0-0.2,0.2-0.6,0.7-1
		c0.2-0.2,0.4-0.3,0.6-0.6c0.5-0.4,1-0.8,1.4-1.1c1.1-0.9,2-1.6,2.6-2c0.9-0.7,1.4-1,1.5-1l2.6,1.9C324,51.7,323.5,52.1,322.5,52.8z
		"/>
	<path class="st2" d="M333.9,62.9l-2.6,0.5v-1.3l-1.9,1.2l-3.3-1.2c-0.2-0.1-0.4-0.2-0.5-0.2c-0.3-0.3-0.5-0.7-0.5-1.3v-7.1l2.9-0.6
		v7c0,0.2,0,0.3,0.2,0.5c0.1,0,0.2,0.1,0.2,0.2l3,1v-8.1L334,53v9.9H333.9z"/>
	<path class="st2" d="M335.6,63.3V53.1l2.4-0.4v10.2L335.6,63.3z"/>
	<path class="st2" d="M343.4,55.8c-0.1,0-0.2,0.1-0.2,0.1c-0.1,0.1-0.2,0.2-0.2,0.2s0.1,0.2,0.2,0.2l2.9,2.4
		c0.1,0.1,0.1,0.1,0.2,0.2c0.1,0.1,0.1,0.2,0.1,0.3s0,0.2-0.1,0.3s-0.2,0.2-0.4,0.3l-5.2,3.5l-1.9-1.8l3.5-2.2h0.1
		c0.1-0.1,0.2-0.2,0.2-0.2s-0.1-0.2-0.2-0.3l-2.8-2.3c-0.2-0.2-0.2-0.3-0.2-0.5s0.1-0.3,0.2-0.5c0.1-0.1,0.2-0.1,0.2-0.2l4.9-3.3
		l1.8,1.8L343.4,55.8z"/>
	<path class="st2" d="M348.1,63.3V53.1l2.4-0.4v10.2L348.1,63.3z"/>
	<path class="st2" d="M360.9,63l-2.1,0.3l-4.1-5.7v5.3l-2.6,0.4v-9.8l2.6-0.4l3.9,5.3v-5.1l2.3-0.4L360.9,63L360.9,63z"/>
	<path class="st2" d="M367.3,55c-1.1,0.6-1.6,0.9-1.6,1c0.2,0.2,0.4,0.4,0.6,0.6c0.3,0.3,0.7,0.7,1.2,1.2c0.1,0.1,0.1,0.2,0,0.2
		c-0.2,0.2-0.6,0.6-1.2,1.1c-0.4,0.3-0.6,0.6-0.6,0.6c0,0.2,0.4,0.5,1.2,1.1c0.7,0.6,1.1,0.9,1.2,0.9c0.1,0.1,0.2,0.1,0.2,0.1
		c0.2,0.1,0.3,0.2,0.3,0.2l-1.8,1.4l-4.7-3.4c-0.1,0-0.1-0.1-0.1-0.2c0-0.1,0-0.2,0.1-0.2c0.6-0.4,1-0.8,1.5-1.2s0.7-0.6,0.7-0.7
		c0,0-0.2-0.3-0.7-0.8c-0.3-0.3-0.9-0.9-1.5-1.5c0,0-0.1-0.1-0.1-0.2s0-0.1,0.1-0.1c1.1-0.6,2.2-1.1,3.3-1.7c1.3-0.6,1.9-1,2-1
		c0.3,0.4,0.6,0.6,0.8,0.8c0.6,0.6,0.8,0.9,0.8,0.9C368.2,54.5,367.7,54.8,367.3,55z"/>
</g>
</svg>
