<?xml version="1.0" encoding="utf-8"?>
<!-- Generator: Adobe Illustrator 21.1.0, SVG Export Plug-In . SVG Version: 6.00 Build 0)  -->
<svg version="1.1" id="All" xmlns="http://www.w3.org/2000/svg" xmlns:xlink="http://www.w3.org/1999/xlink" x="0px" y="0px"
	 viewBox="0 0 571.3 159.3" style="enable-background:new 0 0 571.3 159.3;" xml:space="preserve">
<style type="text/css">
	.tmg{fill:black;}
	.authentic{fill:rgb(218, 33, 38);}
    
	.sun{
        rgb(237, 214, 127);
        animation-name: rotation;
        animation-duration: 30s;
        animation-iteration-count: infinite;
        transform-origin: 50% 50%;
        display: inline-block;
    }
    
	.body{fill:rgb(25, 13, 99);}

    @keyframes rotation {
        0% {
            transform: rotate(0deg);
        }
        100% {
            transform: rotate(360deg);
        }
    }

</style>

<filter id="blurMe">
	<feGaussianBlur in="SourceGraphic" stdDeviation="2" />
</filter>

<g id="TMG" class="tmg">
	<path d="M82.4,70.9c-0.4-0.3-1-0.4-1.8-0.1c-1.5,0.4-2.1,1.8-1.5,3.4c0.3,1.1-0.8,2.5-1.8,3.4c-1.6,1.6-3.6,2.7-5.6,3.6
		c-2.2,0.8-5.1,1.5-8.8,1.8c-3.7,0.4-7.4,0.3-11.3-0.4c-3.7-0.5-7-2.1-9.9-4.4c-2.9-2.3-4.5-5.1-5.2-8.4c-0.4-2.5-0.7-5.1-0.7-7.8
		c0-1,0-2.1,0.1-3.2c0.3-3.8,0.8-7.8,1.6-12.1c0.8-4,2.1-8.4,4-13.2c2.2-0.1,4.1-0.3,5.5-0.5c0.3,0,0.3,0,0.4,0
		c-0.1,0.3-0.3,0.5-0.3,0.8c0,0.1,0,0.4,0.1,0.5c0.1,0.3,0.4,0.8,1.1,1.1H50c0.5,0,1-0.5,1.2-1.4c0.3-0.8,0.7-1.6,1.2-2.3
		s1.1-1.1,1.8-1.4c1.4-0.7,1.6-1.5,1.6-2.2c-0.1-1.1-1.1-1.5-2.7-1.5l-0.4,0.1c-1.9,1-4.5,1.5-7.7,1.6c-3.3,0.1-7.6,0.4-12.8,1
		c-6.6,1-11.4,2.9-14.4,5.6c-3.2,2.7-4.5,6.5-4,10.7c0.1,1.1,0.4,2.3,1,3.7c0.5,1.4,1.4,2.6,2.6,3.6s2.3,1.5,3.4,1.5
		c1.2,0,2.2-0.5,2.7-1.6s0.3-2.2-0.5-2.9c-0.5-0.4-1.5-1-3-0.5c-0.5,0.1-1.2-0.8-1.5-1.4c-0.3-0.5-0.4-1.4-0.4-2.2
		c0-1.1,0.3-2.3,0.7-3.8c0.8-2.7,2.6-4.7,5.6-5.6c2.9-1.1,6.7-1.6,11.4-1.9c-2.1,7.3-3.4,13.3-4.1,18c-0.5,4.1-0.8,7.6-0.8,10.6
		c0,0.7,0,1.4,0,1.9c0.1,3.3,0.7,6.5,1.6,9.3c1,2.9,2.6,5.5,4.9,7.4c2.2,1.9,5.1,3.4,8.2,4.7c3.2,1.2,6.3,1.8,9.5,1.9
		c3,0,7-0.1,11.8-0.8c2.6-0.3,5.2-1.1,8-2.5c2.7-1.4,4.9-3,6.5-4.9c1.6-2.1,2.5-4,2.6-5.9v-0.3C83.5,72.2,83.1,71.4,82.4,70.9z
		 M55.5,45.7c-2.2,0.5-4.1,1.4-5.6,2.3c-1.5,1.1-2.9,2.9-4,5.5c-1,2.5-1.6,4.8-1.8,6.9c-0.1,2.1-0.3,3.4-0.1,4.4
		c0.1,1.2,0.5,2.5,1.1,3.3c0.7,1.2,1.6,1.8,2.9,1.5c1-0.1,1.8-0.7,2.6-1.8c0.4-0.5,1-1.2,1.5-2.2c0.1,0.7,0.3,1.4,0.5,1.8
		c0.7,1.2,1.5,1.4,2.1,1.4h0.1c0.7-0.3,1.5-0.7,2.3-1.5l2.6-2.9l0.3-0.7v-1.2l-1.2-0.8l-0.4,0.1L58,62c0,0-0.4,0.4-1,0.8
		c0-0.5-0.1-1.2-0.1-2.5c-0.1-1.4-0.1-2.9-0.1-4.3c0-0.8,0-1.5,0-2.3c0.1-2.2,0.3-3.7,0.5-4.7c0.1-0.7,0.3-1.2,0.3-1.8
		c0-0.5-0.1-1-0.3-1.4l-0.8-0.5h-0.8L55.5,45.7z M52.3,54.2c-0.1,2.1-0.4,3.8-0.7,5.2c-0.4,1.4-0.8,2.5-1.4,3.2c-0.5,1-1,1-1,1.1
		c0,0-0.1,0-0.4-0.4c-0.1-0.3-0.5-1.1-0.5-3.3v-0.1c0-1.9,0.3-3.7,1-5.4c0.7-2.2,1.2-2.9,1.5-3.2c0.4-0.4,0.8-0.5,1.2-0.5h0.4l0,0
		c0,0.1,0,0.4,0,1C52.3,52.4,52.3,53.1,52.3,54.2z M61.9,68.6l1.5,0.3l2.7-2.7l0.3-0.5l0.5-5.5c0,0,0.3-1.5,0.4-3c0,0.3,0,0.5,0.1,1
		l0,0c0.4,2.3,1.2,4.3,2.3,5.5c1.1,1.4,2.7,2.2,4.5,2.7c1.9,0.5,4.3,0,6.7-1.6l0.4-1L81,62.4l-1.4-0.7c-1.5,0.8-2.7,1-3.8,0.4
		c-1.2-0.5-2.2-1.4-2.7-2.2c-0.5-1-1-1.8-1-2.7c0-0.7,0.3-1,0.8-1.2c1.2-0.4,2.3-1,3.4-1.9c1.1-0.8,1.9-1.9,2.5-2.9
		c0.7-1.1,0.8-2.6,0.7-4.4c-0.1-1.5-0.8-2.5-1.9-3.2c-1-0.5-1.9-0.7-3-0.7c-1,0-2.2,0.4-3.6,1.1c-1.4,0.7-2.5,1.8-3.4,3.2
		c0,0-0.1,0.1-0.1,0.3c0.1-1.1,0.4-4,0.4-4l0.7-5.6c0.1-1.9,0.5-3.6,1.1-4.9c0.7-1.8,1.1-2.5,1.4-2.7c0.4-0.4,0.5-0.5,0.7-0.5
		c0,0,0.4,0,1.2,0.4l1.2-0.4c0.7-1.1,1.1-1.5,1.4-1.8c0.4-0.4,0.8-0.8,0.8-1.5c0-0.3-0.1-1.1-1.2-1.4l-1.4-0.6l-0.5,0.1
		c-0.8,0.4-1.6,1-2.3,1.5c-0.7,0.5-1.2,1.2-1.8,2.1l-1.8,2.3c-0.7,1-1.2,1.9-1.6,2.9s-0.8,2.5-1.4,4.5c-0.5,2.1-0.8,4.4-1.2,6.9
		l-0.7,7.6l-0.7,7.8l-0.5,6.2v0.1L61.9,68.6z M67.8,54.6c1.1-2.6,2.1-4.4,2.9-5.4c0.7-0.8,1.8-1.4,3-1.4c0.3,0,0.7,0,1,0.1
		c0.1,0.1,0.3,0.4,0.3,0.8c0,0.1,0,0.3,0,0.3c-0.1,1.4-0.7,2.5-1.6,3c-1.1,0.7-2.3,1.1-3.6,1.4C68.9,53.6,68.4,53.9,67.8,54.6
		c0,0,0,0.1,0,0.3C67.8,54.7,67.8,54.6,67.8,54.6z M89,59.3c-0.8,1-1.1,1.1-1.1,1.2c0,0,0,0,0-0.1s0-0.3,0-0.5s0-0.5,0-1L89,48.1
		c0.1-0.8,0.1-1.6,0.1-2.2c0-0.5,0-1.1-0.1-1.5c-0.3-1.4-1-2.1-1.5-2.3c-0.5-0.3-1.5-0.4-2.6,0.4c-0.7,0.4-1.8,1.5-3.3,3.3l-0.1,0.7
		v1.2l1.6,0.7c0,0,1.1-1,1.2-1.2l0,0c0,1-0.1,2.2-0.1,2.2c0,1.4-0.4,4.9-1.1,11v0.3l0.1,1.2c0.4,1.9,1.4,2.7,2.2,3h0.4l1-0.1
		l0.3-0.1c1.2-0.5,2.2-1.2,2.7-2.1c0.7-1,1-1.9,0.7-3L89,59.3z M86.8,37.1L86.8,37.1l-1.9,2.2l0.4,1.5c1.4,0.4,2.7,0.1,3.8-0.8
		c1-0.8,1.9-2.1,2.9-3.7l-1-1.4C89,35.2,87.5,36,86.8,37.1z M98.4,27.2h-0.3h-0.3c-0.7,0.1-1.4,0.4-1.9,0.8
		c-0.4,0.4-0.8,1.1-0.5,2.3c0.1,1.2,0.8,1.8,1.4,2.1c0.3,0.1,0.4,0.3,0.4,0.4c0,0,0.1,0.4-0.1,1.6l-1.2,4.7l1.1,1.2
		c1.4-0.3,2.3-1.1,3.2-2.6c0.5-1.4,1-2.6,1.1-3.7c0.1-1.1,0.3-2.5,0.1-3.8v-0.1C100.8,28.3,99.9,27.4,98.4,27.2z M116.8,50.7
		c-0.3-0.7-0.5-1.4-1-1.8l-1.5-1.4l-2.1-1.8c-1-1-1.2-1.2-1.2-1.2l-0.1-0.4c0-0.1,0-0.3,0.1-0.4l0.1-0.1l0.7,0.4l1,0.7
		c0.5,0.3,1.5,0.3,2.2-0.8l1.2-1.9l-0.1-1.2l-1.8-1.4c-0.5-0.3-1.2-0.4-1.9-0.4H112c-0.7,0.1-1.2,0.4-1.9,1l-1.5,1.5l-1.4,2.2
		c-0.5,1-0.8,2.1-0.7,3.3l0.1,0.7v0.1l0.8,1.6l1.6,1.5l2.5,2.2c1.1,1,1.4,1.5,1.4,1.8c0.1,0.4,0.1,0.8,0,1.2
		c-0.1,0.4-0.4,0.8-0.7,1.1c-0.3,0.3-0.5,0.4-0.8,0.5c-0.1,0-0.4,0-0.5-0.1l-0.8-0.7c-0.7-0.7-1.5-0.8-2.3-0.3l-1.2,1.4
		c-0.4,0.5-0.5,1.4-0.7,2.5l0.4,0.8l1.5,0.8l1.5,0.3h0.5c0.1,0,2.1-0.7,2.1-0.7c0.7-0.3,1.5-0.8,2.2-1.6c0.8-0.7,1.4-1.6,1.9-2.6
		s0.8-2.3,0.8-4C117.2,52.9,116.8,50.7,116.8,50.7z"/>
	<g>
		<path d="M119.9,106.8l-8.4,1.2V87.5l-8.2,15.4L96,86.2V107l-8.7,0.7v-37l10-1.1l6.7,14l6.9-12.5l8.9-1.6L119.9,106.8L119.9,106.8z
			"/>
		<path d="M125.7,106c-1.2-0.4-1.8-0.7-1.8-1l9.2-24.2c0.4-1.2,0.7-1.8,0.8-1.8c0.8-0.3,1.6-0.4,2.5-0.7l4.5-1.1
			c0.1,0,0.4,0.3,0.7,0.8s0.7,1.4,1.1,2.5l10.6,24.6c0.1,0.1-0.1,0.3-0.5,0.4c-1,0.3-1.8,0.7-2.5,1c-0.4,0.1-0.7,0.3-1,0.4
			c-1.2,0.4-2.1,0.7-2.5,0.7c-0.1-0.4-0.3-0.7-0.4-0.8c-0.5-1.5-1-2.5-1.1-2.7c-0.1-0.3-0.4-1.1-1-2.3c-0.3-0.7-0.5-1.1-0.8-1.1
			h-9.8c-0.3,0-0.5,0.1-0.7,0.5c-0.1,0.4-0.5,1.2-1.1,2.7l-1.4,3.7C128.2,106.7,126.5,106.3,125.7,106z M135.7,94.2l5.6-0.1
			l-2.9-6.5L135.7,94.2z"/>
		<path d="M175.7,100.4c-2.6,2.5-4.3,4-5.1,4.5c-0.5,0.5-1,1-1.2,1.2c-1.1,0.8-2.1,1.2-3.2,1.2c-0.4,0-2.1-0.1-4.7-0.5
			c-2.6-0.4-4-0.7-4-0.8V78.5c2.1-0.4,3.7-0.5,4.7-0.8c3.2-0.5,4.9-0.8,5.2-0.8c0.1,0,0.1,0,0.3,0c0.3,0,0.4,0.1,0.7,0.3l15.7,14
			c0.1,0.1,0.3,0.3,0.3,0.5c0,0.1-0.1,0.4-0.3,0.7C181,95.4,178.2,98.2,175.7,100.4z M174.6,91.3l-9.1-7l-0.3,15.4l9.2-7.6v-0.8
			H174.6z"/>
		<path d="M226.1,106.5c-2.3,0.7-4.3,1-5.9,1c-0.1,0-1.5-1.4-4.4-4.1c-3.2-3-5.8-5.6-8-8.1c-2.9-3.2-4.3-5.1-4.3-6
			c0-0.7,1.4-2.6,4-5.6c1.9-2.2,4.5-5.1,7.8-8.5c1.8-1.9,3.7-3.8,5.5-5.9c1.4,1.1,2.7,2.3,4.1,3.4c1.2,1,2.1,1.5,2.2,1.5
			c-1.1,1.2-2.3,2.5-3.4,3.7c-2.5,2.6-4.5,4.9-6.3,7c-2.3,2.6-3.4,4-3.4,4.4c0,0.3,1.2,1.6,3.6,4.3c2.3,2.6,3.7,3.8,4,3.8
			c0.5,0,0.8-0.1,0.8-0.4V85.9h7.8c0,2.1,0,4.1,0,6.2c0,2.2,0,6,0,11.7C230.2,104.9,228.9,105.7,226.1,106.5z"/>
		<path d="M256.4,105.6c-1.8,1-2.7,1.5-2.9,1.5c-0.1,0-1.1-1-2.7-2.7c-1.8-1.8-3.4-3.6-5.1-5.4c-1.9-2.1-3-3.2-3.3-3.4l-0.5-0.3V106
			c-0.4,0.1-1.8,0.5-4.3,1c-1.2,0.3-2.5,0.4-3.8,0.5V78.4l9.2-1.9c0.5,0,0.8,0,1,0c0.5,0,1.1,0.1,1.5,0.4s0.7,0.4,0.7,0.4
			c0,0.1,0.5,0.8,1.8,1.9c3.6,3.4,6,5.9,7.6,7.7c0.1,0.3,0.1,0.5,0,0.7c-0.5,0.8-1.9,2.2-3.8,4.4c-0.5,0.5-0.8,1-0.8,1.2
			c0,0.1,1.2,1.6,3.7,4.3c1.9,2.2,3.8,4.1,5.6,5.9l-0.7,0.4C258.4,104.3,257.3,105,256.4,105.6z M244.4,84.8c-0.5-0.4-1.5-1-2.6-1.8
			v8.7c1.1-0.5,2.3-1.4,3.7-2.5c1.1-0.8,1.6-1.4,1.6-1.8C247.2,86.9,246.2,86.1,244.4,84.8z"/>
		<path d="M277.9,83c-3.2,1.6-4.8,2.6-4.8,2.7c0.7,0.7,1.2,1.2,1.6,1.5c1,1,2.2,2.2,3.6,3.6c0.3,0.3,0.3,0.4,0,0.7
			c-0.5,0.5-1.8,1.6-3.4,3.2c-1.1,1-1.6,1.6-1.6,1.9c0,0.4,1.2,1.5,3.6,3.3c2.1,1.6,3.3,2.5,3.6,2.6c0.3,0.1,0.5,0.3,0.5,0.3
			c0.5,0.3,0.8,0.5,0.8,0.7l-5.5,3.8l-13.9-10c-0.1-0.1-0.1-0.3-0.1-0.5c0-0.3,0.1-0.4,0.3-0.5c1.6-1.2,3.2-2.5,4.4-3.4
			c1.5-1.2,2.2-1.9,2.2-2.1s-0.7-0.8-2.1-2.3c-1-1.1-2.5-2.6-4.4-4.5c-0.1-0.1-0.1-0.3-0.1-0.4s0-0.3,0.1-0.3
			c3.3-1.6,6.5-3.3,9.8-5.1c3.7-1.9,5.6-2.7,5.9-2.7c1.1,1.1,1.8,1.9,2.3,2.3c1.5,1.6,2.3,2.5,2.3,2.6C280.6,81.7,279,82.5,277.9,83
			z"/>
		<path d="M301.2,83c-3.2,1.6-4.8,2.6-4.8,2.7c0.7,0.7,1.2,1.2,1.6,1.5c1,1,2.2,2.2,3.6,3.6c0.3,0.3,0.3,0.4,0,0.7
			c-0.5,0.5-1.8,1.6-3.4,3.2c-1.1,1-1.6,1.6-1.6,1.9c0,0.4,1.2,1.5,3.6,3.3c2.1,1.6,3.3,2.5,3.6,2.6c0.3,0.1,0.5,0.3,0.5,0.3
			c0.5,0.3,0.8,0.5,0.8,0.7l-5.5,3.8l-13.9-10c-0.1-0.1-0.1-0.3-0.1-0.5c0-0.3,0.1-0.4,0.3-0.5c1.6-1.2,3.2-2.5,4.4-3.4
			c1.5-1.2,2.2-1.9,2.2-2.1s-0.7-0.8-2.1-2.3c-1-1.1-2.5-2.6-4.4-4.5c-0.1-0.1-0.1-0.3-0.1-0.4s0-0.3,0.1-0.3
			c3.3-1.6,6.5-3.3,9.8-5.1c3.7-1.9,5.6-2.7,5.9-2.7c1.1,1.1,1.8,1.9,2.3,2.3c1.5,1.6,2.3,2.5,2.3,2.6
			C303.8,81.7,302.1,82.5,301.2,83z"/>
		<path d="M331.1,107.6L317.2,94v12l-8.4,2.1V77.8l8.4-1.2v13.2l11.7-13.9l6.7,3l-10.3,12.4l12.6,13.5L331.1,107.6z"/>
	</g>
</g>
<g id="Authentic" class="authentic">
	<path d="M20.3,137.8c-0.9-0.3-1.3-0.5-1.3-0.6l4.4-12.9c0.2-0.6,0.3-1,0.4-1c0.4-0.1,0.8-0.2,1.2-0.3l2.2-0.6
		c0.1,0,0.3,0.2,0.4,0.7c0,0.1,0.2,0.4,0.4,1.1l5,13.1c0,0.1-0.1,0.2-0.3,0.2c-0.4,0.1-0.8,0.3-1.2,0.5c-0.2,0.1-0.3,0.2-0.4,0.2
		c-0.6,0.2-1,0.4-1.2,0.4c-0.1-0.2-0.1-0.4-0.2-0.5c-0.3-0.8-0.5-1.3-0.6-1.5c-0.1-0.2-0.2-0.6-0.5-1.3c-0.1-0.4-0.3-0.6-0.4-0.6
		h-4.4c-0.2,0-0.3,0.1-0.4,0.3c-0.1,0.2-0.2,0.7-0.5,1.5l-0.7,2C21.3,138.2,20.7,137.9,20.3,137.8z M24.7,131.4h2.7v-0.1
		c-0.1-0.2-0.2-0.5-0.4-1.1c-0.3-0.9-0.7-1.6-0.9-2.4L24.7,131.4z"/>
	<path class="st0" d="M46.3,138.1l-3.3,0.6v-1.6l-2.4,1.5l-4.2-1.5c-0.3-0.1-0.5-0.2-0.6-0.3c-0.4-0.4-0.6-0.9-0.6-1.6v-8.9l3.6-0.7
		v8.8c0,0.2,0,0.4,0.2,0.6c0.1,0,0.2,0.1,0.3,0.2l3.7,1.3v-10.3l3.3-0.6C46.3,125.6,46.3,138.1,46.3,138.1z"/>
	<path class="st0" d="M59.5,128.2h-3.4v9.8l-3.3,0.7v-10.5h-4.9l1.4-2.5H61L59.5,128.2z"/>
	<path class="st0" d="M68.5,138.6L68.5,138.6l-0.1-6.4h-3.3v5.7l-3,0.5v-12.9l3.1-0.5v4.8h3.4v-4.1l3-0.9V138L68.5,138.6z"/>
	<path class="st0" d="M79.7,128.1c-1.4,0.7-2,1.1-2,1.2c0.3,0.3,0.5,0.5,0.7,0.7c0.4,0.4,0.9,0.9,1.5,1.5c0.1,0.1,0.1,0.2,0,0.3
		c-0.2,0.2-0.7,0.7-1.5,1.4c-0.5,0.4-0.7,0.7-0.7,0.8c0,0.2,0.5,0.6,1.5,1.4c0.9,0.7,1.4,1.1,1.5,1.1c0.1,0.1,0.2,0.1,0.3,0.1
		c0.2,0.1,0.4,0.2,0.4,0.3l-2.3,1.7l-5.9-4.3c-0.1,0-0.1-0.1-0.1-0.2s0-0.2,0.1-0.2c0.7-0.5,1.3-1,1.9-1.5c0.6-0.5,0.9-0.8,0.9-0.9
		c0,0-0.3-0.4-0.9-1c-0.4-0.4-1.1-1.1-1.9-1.9c0,0-0.1-0.1-0.1-0.2s0-0.1,0.1-0.1c1.4-0.7,2.8-1.4,4.2-2.1c1.6-0.8,2.4-1.2,2.5-1.2
		c0.4,0.5,0.8,0.8,1,1c0.7,0.7,1,1.1,1,1.1C80.8,127.5,80.1,127.9,79.7,128.1z"/>
	<path class="st0" d="M93.6,138.2l-2.6,0.4l-5.2-7.2v6.7l-3.2,0.5v-12.3l3.2-0.5l4.9,6.7v-6.4l2.9-0.5
		C93.6,125.6,93.6,138.2,93.6,138.2z"/>
	<path class="st0" d="M106.8,128.2h-3.4v9.8l-3.3,0.7v-10.5h-4.9l1.4-2.5h11.7L106.8,128.2z"/>
	<path class="st0" d="M110.5,138.6v-12.9l3-0.5V138L110.5,138.6z"/>
	<path class="st0" d="M124.6,128c-1.7,1.1-2.7,1.8-3.1,2.1c-1.1,0.8-1.7,1.2-1.7,1.3c0,0,0.5,0.6,1.6,1.7c1.2,1.2,2.4,2.4,3.6,3.6
		l-2.7,2c0,0-0.6-0.6-1.7-1.7c-1-1-2-2.1-3-3.1c-1.1-1.1-1.6-1.7-1.6-1.7c-0.2-0.2-0.3-0.4-0.3-0.6c0-0.1,0-0.3,0-0.6
		c0.1-0.4,0.3-0.8,0.9-1.2c0.2-0.1,0.4-0.3,0.7-0.6c0.5-0.4,1.1-0.8,1.6-1.2c1.3-0.9,2.2-1.6,2.8-2c1-0.7,1.6-1.1,1.7-1.1l3,1.9
		C125.8,127.3,125.2,127.7,124.6,128z"/>
	<path class="st0" d="M153.4,138.2l-3.6,0.5V130l-3.5,6.6l-3.1-7.2v8.8l-3.7,0.3v-15.7l4.3-0.5l2.9,6l2.9-5.3l3.8-0.7V138.2z"/>
	<path class="st0" d="M162.8,128.1c-1.4,0.7-2,1.1-2,1.2c0.3,0.3,0.5,0.5,0.7,0.7c0.4,0.4,0.9,0.9,1.5,1.5c0.1,0.1,0.1,0.2,0,0.3
		c-0.2,0.2-0.7,0.7-1.5,1.4c-0.5,0.4-0.7,0.7-0.7,0.8c0,0.2,0.5,0.6,1.5,1.4c0.9,0.7,1.4,1.1,1.5,1.1c0.1,0.1,0.2,0.1,0.3,0.1
		c0.2,0.1,0.4,0.2,0.4,0.3l-2.3,1.7l-5.9-4.3c-0.1,0-0.1-0.1-0.1-0.2s0-0.2,0.1-0.2c0.7-0.5,1.3-1,1.9-1.5c0.6-0.5,0.9-0.8,0.9-0.9
		c0,0-0.3-0.4-0.9-1c-0.4-0.4-1.1-1.1-1.9-1.9c0,0-0.1-0.1-0.1-0.2s0-0.1,0.1-0.1c1.4-0.7,2.8-1.4,4.2-2.1c1.6-0.8,2.4-1.2,2.5-1.2
		c0.4,0.5,0.8,0.8,1,1c0.7,0.7,1,1.1,1,1.1C163.9,127.5,163.2,127.9,162.8,128.1z"/>
	<path class="st0" d="M174.6,135.5c-1.1,1-1.8,1.7-2.1,1.9c-0.2,0.2-0.4,0.4-0.5,0.5c-0.4,0.3-0.9,0.5-1.3,0.5c-0.2,0-0.9-0.1-2-0.2
		c-1.1-0.2-1.7-0.3-1.7-0.4v-11.7c0.9-0.2,1.6-0.3,2-0.3c1.4-0.2,2.1-0.3,2.2-0.3h0.1c0.1,0,0.2,0,0.3,0.1l6.7,5.9
		c0.1,0.1,0.1,0.1,0.1,0.2s0,0.2-0.1,0.3C176.8,133.3,175.6,134.5,174.6,135.5z M174.1,131.6l-3.9-3l-0.1,6.6l3.9-3.2v-0.4
		L174.1,131.6L174.1,131.6z"/>
	<path class="st0" d="M180.2,138.6v-12.9l3-0.5V138L180.2,138.6z"/>
	<path class="st0" d="M196.4,128.2H193v9.8l-3.3,0.7v-10.5h-4.9l1.4-2.5h11.7L196.4,128.2z"/>
	<path class="st0" d="M204.9,128.1c-1.4,0.7-2,1.1-2,1.2c0.3,0.3,0.5,0.5,0.7,0.7c0.4,0.4,0.9,0.9,1.5,1.5c0.1,0.1,0.1,0.2,0,0.3
		c-0.2,0.2-0.7,0.7-1.5,1.4c-0.5,0.4-0.7,0.7-0.7,0.8c0,0.2,0.5,0.6,1.5,1.4c0.9,0.7,1.4,1.1,1.5,1.1c0.1,0.1,0.2,0.1,0.3,0.1
		c0.2,0.1,0.4,0.2,0.4,0.3l-2.3,1.7l-5.9-4.3c-0.1,0-0.1-0.1-0.1-0.2s0-0.2,0.1-0.2c0.7-0.5,1.3-1,1.9-1.5c0.6-0.5,0.9-0.8,0.9-0.9
		c0,0-0.3-0.4-0.9-1c-0.4-0.4-1.1-1.1-1.9-1.9c0,0-0.1-0.1-0.1-0.2s0-0.1,0.1-0.1c1.4-0.7,2.8-1.4,4.2-2.1c1.6-0.8,2.4-1.2,2.5-1.2
		c0.4,0.5,0.8,0.8,1,1c0.7,0.7,1,1.1,1,1.1C206,127.5,205.3,127.9,204.9,128.1z"/>
	<path class="st0" d="M218.6,137.7c-0.7,0.4-1.2,0.6-1.2,0.6c-0.1,0-0.5-0.4-1.2-1.2c-0.7-0.8-1.5-1.5-2.2-2.3
		c-0.8-0.9-1.3-1.3-1.4-1.5l-0.2-0.1v4.5c-0.2,0.1-0.8,0.2-1.8,0.4c-0.5,0.1-1.1,0.2-1.6,0.3V126l3.9-0.8c0.2,0,0.3,0,0.4,0
		c0.2,0,0.5,0.1,0.6,0.2c0.2,0.1,0.3,0.2,0.3,0.2s0.3,0.3,0.8,0.8c1.5,1.5,2.6,2.5,3.2,3.3c0.1,0.1,0.1,0.2,0,0.3
		c-0.2,0.3-0.8,1-1.6,1.9c-0.2,0.2-0.3,0.4-0.3,0.6c0,0.1,0.5,0.7,1.6,1.8c0.8,0.9,1.6,1.8,2.4,2.5L220,137
		C219.5,137.2,219,137.5,218.6,137.7z M213.5,128.8c-0.2-0.2-0.6-0.4-1.1-0.8v3.7c0.4-0.2,1-0.6,1.6-1c0.5-0.4,0.7-0.6,0.7-0.8
		C214.7,129.7,214.3,129.4,213.5,128.8z"/>
	<path class="st0" d="M231.6,137.7c-0.7,0.4-1.2,0.6-1.2,0.6c-0.1,0-0.5-0.4-1.2-1.2c-0.7-0.8-1.5-1.5-2.2-2.3
		c-0.8-0.9-1.3-1.3-1.4-1.5l-0.2-0.1v4.5c-0.2,0.1-0.8,0.2-1.8,0.4c-0.5,0.1-1.1,0.2-1.6,0.3V126l3.9-0.8c0.2,0,0.3,0,0.4,0
		c0.2,0,0.5,0.1,0.6,0.2c0.2,0.1,0.3,0.2,0.3,0.2s0.3,0.3,0.8,0.8c1.5,1.5,2.6,2.5,3.2,3.3c0.1,0.1,0.1,0.2,0,0.3
		c-0.2,0.3-0.8,1-1.6,1.9c-0.2,0.2-0.3,0.4-0.3,0.6c0,0.1,0.5,0.7,1.6,1.8c0.8,0.9,1.6,1.8,2.4,2.5L233,137
		C232.5,137.2,232,137.5,231.6,137.7z M226.5,128.8c-0.2-0.2-0.6-0.4-1.1-0.8v3.7c0.4-0.2,1-0.6,1.6-1c0.5-0.4,0.7-0.6,0.7-0.8
		C227.7,129.7,227.2,129.4,226.5,128.8z"/>
	<path class="st0" d="M234.8,137.9c-0.5-0.2-0.8-0.3-0.8-0.4l3.9-10.3c0.2-0.5,0.3-0.8,0.3-0.8c0.3-0.1,0.7-0.2,1-0.3l2-0.5
		c0.1,0,0.2,0.1,0.3,0.3s0.3,0.6,0.5,1.1l4.5,10.5c0,0.1,0,0.1-0.2,0.2c-0.4,0.1-0.8,0.3-1,0.4s-0.3,0.1-0.4,0.2
		c-0.6,0.2-0.9,0.3-1,0.3c-0.1-0.2-0.1-0.3-0.2-0.4c-0.3-0.6-0.4-1-0.5-1.2c-0.1-0.1-0.2-0.5-0.4-1c-0.1-0.3-0.2-0.5-0.3-0.5h-4.2
		c-0.1,0-0.2,0.1-0.3,0.2c-0.1,0.2-0.2,0.6-0.5,1.2l-0.6,1.6C235.8,138.2,235.1,138,234.8,137.9z M239.1,132.8l2.4-0.1l-1.2-2.8
		L239.1,132.8z"/>
	<path class="st0" d="M259.6,138.2l-2.6,0.4l-5.2-7.2v6.7l-3.2,0.5v-12.3l3.2-0.5l4.9,6.7v-6.4l2.9-0.5L259.6,138.2L259.6,138.2z"/>
	<path class="st0" d="M268.7,128.1c-1.4,0.7-2,1.1-2,1.2c0.3,0.3,0.5,0.5,0.7,0.7c0.4,0.4,0.9,0.9,1.5,1.5c0.1,0.1,0.1,0.2,0,0.3
		c-0.2,0.2-0.7,0.7-1.5,1.4c-0.5,0.4-0.7,0.7-0.7,0.8c0,0.2,0.5,0.6,1.5,1.4c0.9,0.7,1.4,1.1,1.5,1.1c0.1,0.1,0.2,0.1,0.3,0.1
		c0.2,0.1,0.4,0.2,0.4,0.3l-2.3,1.7l-5.9-4.3c-0.1,0-0.1-0.1-0.1-0.2s0-0.2,0.1-0.2c0.7-0.5,1.3-1,1.9-1.5c0.6-0.5,0.9-0.8,0.9-0.9
		c0,0-0.3-0.4-0.9-1c-0.4-0.4-1.1-1.1-1.9-1.9c0,0-0.1-0.1-0.1-0.2s0-0.1,0.1-0.1c1.4-0.7,2.8-1.4,4.2-2.1c1.6-0.8,2.4-1.2,2.5-1.2
		c0.4,0.5,0.8,0.8,1,1c0.7,0.7,1,1.1,1,1.1C269.8,127.5,269.2,127.9,268.7,128.1z"/>
	<path class="st0" d="M272.5,137.9c-0.5-0.2-0.8-0.3-0.8-0.4l3.9-10.3c0.2-0.5,0.3-0.8,0.3-0.8c0.3-0.1,0.7-0.2,1-0.3l2-0.5
		c0.1,0,0.2,0.1,0.3,0.3c0.1,0.2,0.3,0.6,0.5,1.1l4.5,10.5c0,0.1,0,0.1-0.2,0.2c-0.4,0.1-0.8,0.3-1,0.4s-0.3,0.1-0.4,0.2
		c-0.6,0.2-0.9,0.3-1,0.3c-0.1-0.2-0.1-0.3-0.2-0.4c-0.3-0.6-0.4-1-0.5-1.2c-0.1-0.1-0.2-0.5-0.4-1c-0.1-0.3-0.2-0.5-0.3-0.5H276
		c-0.1,0-0.2,0.1-0.3,0.2c-0.1,0.2-0.2,0.6-0.5,1.2l-0.6,1.6C273.6,138.2,272.9,138,272.5,137.9z M276.8,132.8l2.4-0.1l-1.2-2.8
		L276.8,132.8z"/>
	<path class="st0" d="M298.4,138.2l-3.6,0.4l-5.2-7.2v6.7l-3.2,0.5v-12.3l3.2-0.5l4.9,6.7v-6.4l3.9-0.5L298.4,138.2L298.4,138.2z"/>
	<path class="st0" d="M320.7,125.4c-1.6,1.1-2.7,2-3.5,2.6c-1.2,1-1.8,1.5-1.8,1.6s0.5,0.6,1.4,1.7c0.9,1,1.8,2,2.7,3
		c0.5,0.6,1.1,1.2,1.6,1.8c-0.1,0.1-0.6,0.5-1.6,1.3c-0.3,0.3-0.8,0.7-1.5,1.2c0,0-0.7-0.7-1.9-2.1c-0.6-0.7-1.7-2-3.4-3.9
		c-0.6-0.7-1.2-1.4-1.8-2.1c-0.1-0.1-0.1-0.2-0.2-0.3s-0.1-0.2-0.1-0.4c0-0.1,0-0.2,0-0.3c0-0.2,0-0.4,0.1-0.7
		c0-0.3,0.3-0.7,0.9-1.3c0.2-0.2,0.5-0.4,0.8-0.7c0.6-0.5,1.2-1,1.8-1.4c1.4-1.1,2.5-2,3.2-2.5c1.1-0.9,1.8-1.3,1.9-1.3l3.3,2.4
		C322.6,124,322,124.5,320.7,125.4z"/>
	<path class="st0" d="M335,138.1l-3.3,0.6v-1.6l-2.4,1.5l-4.2-1.5c-0.3-0.1-0.5-0.2-0.6-0.3c-0.4-0.4-0.6-0.9-0.6-1.6v-8.9l3.6-0.7
		v8.8c0,0.2,0,0.4,0.2,0.6c0.1,0,0.2,0.1,0.3,0.2l3.7,1.3v-10.3l3.3-0.6V138.1z"/>
	<path class="st0" d="M337.2,138.6v-12.9l3-0.5V138L337.2,138.6z"/>
	<path class="st0" d="M347,129.2c-0.1,0-0.2,0.1-0.2,0.1c-0.1,0.1-0.2,0.2-0.2,0.3s0.1,0.2,0.2,0.2l3.6,3c0.1,0.1,0.1,0.1,0.2,0.2
		c0.1,0.1,0.1,0.3,0.1,0.4c0,0.1,0,0.3-0.1,0.4c-0.1,0.1-0.2,0.3-0.5,0.4l-6.5,4.4l-2.4-2.3l4.4-2.8h0.1c0.1-0.1,0.2-0.2,0.2-0.3
		s-0.1-0.2-0.2-0.4l-3.5-2.9c-0.2-0.2-0.3-0.4-0.3-0.6s0.1-0.4,0.3-0.6c0.1-0.1,0.2-0.1,0.3-0.2l6.2-4.1l2.2,2.3L347,129.2z"/>
	<path class="st0" d="M352.9,138.6v-12.9l3-0.5V138L352.9,138.6z"/>
	<path class="st0" d="M368.9,138.2l-2.6,0.4l-5.2-7.2v6.7l-3.2,0.5v-12.3l3.2-0.5l4.9,6.7v-6.4l2.9-0.5L368.9,138.2L368.9,138.2z"/>
	<path class="st0" d="M377,128.1c-1.4,0.7-2,1.1-2,1.2c0.3,0.3,0.5,0.5,0.7,0.7c0.4,0.4,0.9,0.9,1.5,1.5c0.1,0.1,0.1,0.2,0,0.3
		c-0.2,0.2-0.7,0.7-1.5,1.4c-0.5,0.4-0.7,0.7-0.7,0.8c0,0.2,0.5,0.6,1.5,1.4c0.9,0.7,1.4,1.1,1.5,1.1c0.1,0.1,0.2,0.1,0.3,0.1
		c0.2,0.1,0.4,0.2,0.4,0.3l-2.3,1.7l-5.9-4.3c-0.1,0-0.1-0.1-0.1-0.2s0-0.2,0.1-0.2c0.7-0.5,1.3-1,1.9-1.5s0.9-0.8,0.9-0.9
		c0,0-0.3-0.4-0.9-1c-0.4-0.4-1.1-1.1-1.9-1.9c0,0-0.1-0.1-0.1-0.2s0-0.1,0.1-0.1c1.4-0.7,2.8-1.4,4.2-2.1c1.6-0.8,2.4-1.2,2.5-1.2
		c0.4,0.5,0.8,0.8,1,1c0.7,0.7,1,1.1,1,1.1C378.1,127.5,377.5,127.9,377,128.1z"/>
</g>
<g id="Sun" class="sun">
	<g>
		<path class="st1" d="M461.9,93.2c-13.8-9.6-32.7,10.4-43.6,15.9C432,103.7,454,107.1,461.9,93.2z M461.1,68.2
			c-2.9-16.5-30.5-15.7-42-19.6C432.5,54.5,445.6,72.4,461.1,68.2z M476,79.7c-12.3-13.4-46.1-0.2-64,1.3
			C429.7,80.1,464,94.8,476,79.7z M481.4,68.7c1-18.2-32.1-33.1-45.6-44.9C448.7,36,462.2,70.8,481.4,68.7z M480.1,91.2
			c-18.2-1.1-33.2,32-44.9,45.6C447.3,123.8,482.1,110.4,480.1,91.2z M478.4,49.8C488.1,36.1,468.3,17,462.9,6
			C468.1,19.8,464.5,41.8,478.4,49.8z M523.4,7.3c-6.1,13.4-24.1,26.4-20,41.9C520,46.4,519.4,18.8,523.4,7.3z M491.8,64
			c13.5-12.2,0.6-46.1-0.7-64C491.7,17.7,476.8,51.9,491.8,64z M547.9,24.3c-12.2,12.9-47.1,26-45.3,45.2
			C520.8,70.7,536.1,37.7,547.9,24.3z M491.7,66.5c-7.2,0-13.1,5.9-13.1,13.1s5.9,13.1,13.1,13.1s13.1-5.9,13.1-13.1
			C504.8,72.4,498.9,66.5,491.7,66.5z M521.4,66.2c13.8,9.6,32.7-10.4,43.6-15.8C551.3,55.6,529.3,52.2,521.4,66.2z M522.2,91.2
			c2.9,16.5,30.5,15.7,42,19.6C550.8,104.9,537.7,86.9,522.2,91.2z M507.3,79.7c12.3,13.4,46.1,0.2,64-1.3
			C553.6,79.2,519.3,64.5,507.3,79.7z M501.9,90.6c-1,18.2,32,33.1,45.6,44.9C534.6,123.3,521.1,88.6,501.9,90.6z M504.9,109.5
			c-9.7,13.7,10.1,32.8,15.5,43.7C515.2,139.5,518.8,117.6,504.9,109.5z M459.9,152c6.1-13.4,24.1-26.4,20-41.8
			C463.3,112.9,463.8,140.5,459.9,152z M491.5,95.3c-13.5,12.2-0.7,46.1,0.7,64C491.6,141.6,506.5,107.4,491.5,95.3z" filter="url(#blurMe)" />
	</g>
</g>
<g id="Body" class="body">
	<path class="st2" d="M478.6,137c-1.2-1.1-1-2.8-1-2.8s1.1-1.3,1.1-1.8s-1-8.8-2-9.7c-1-0.9,1.2-2.3,1.1-2.8s-0.9-2.1-0.9-2.1
		s1.7-1.6,1.4-2.6c-0.4-1-0.2-2.4-0.9-2.8c-0.6-0.4,1.2-2,1-3.4c-0.3-1.4,0-4.5-0.3-5.3c-0.2-0.8,1.9-3.4,1.5-4.8s0.7-2.5,0.7-2.5
		s6.9,4.3,13.6,4.8s14.8,0.5,15.3,0.1s4.2-2.4,4.2-2.4s3.1,0.8,3.7-1.5c0.6-2.3,1.9-4.1,1.9-4.1l2.6-3.3l0.1-1.3c0,0,1.7-0.5,3-1.3
		c2.3-1.4,4.8-2.4,7.1-3.7c0.9-0.5,1.8-0.9,2.2-1.8c0.6-1.2,1.2-4.6,0-5.6c0.7-1,0.2-2.8-0.7-3.6c0.7-1.7-1.5-2.5-2.3-3
		c-0.6-0.4-0.4-0.7-1.3-1c-0.4-0.1-0.9,0-1.4-0.1c-1.1-0.4-1.4-2.3-3-1.4c-1.1,0.6-1.9,2.2-2.7,3.1c-1.3,1.4-3.2,2.2-4.2,3.9
		c-0.9,1.5-1.2,3.3-1.6,5l-2,3.3l-1.2-1.6c0,0-2.1,1.6-2.2,2.4s-2.2,1-2.2,2s-0.4-1.3-5.8,2.1c-1.2,0.7-3.7,0.3-4.3-0.4
		c-1-1-6.2-2.4-6.4-3.1c-0.2-0.9-3.5-2.6-4.8-2.4l-3.8-0.5c0,0-4.6-5-5.3-5.1c-0.7-0.1-8.2-0.6-8.2-0.6L471,74c0,0-6.7-2.8-7.3-2.9
		c-0.6-0.1-4.6-3.9-5-4.4s-1.5-1.6-1.5-1.6l-0.4-2c0,0,1.7-1.5,1.6-4c-0.1-1.3-0.2-1.7-0.3-1.8c-0.1,0-0.1,0.1-0.1,0.1
		s0.1-0.2,0.1-0.1c0.4-0.3,1.7-1.2,1.4-2.9c-0.4-2-0.1-6.3-0.9-7c-0.7-0.7-1.1-7.1-4.5-7.1c0,0-3.1-4.8-6.7-4.4
		c-3.6,0.4-8.1,0.8-8.4,1.5c-0.4,0.8-2.7-0.9-3.1,1s-1.3,1.9-1.3,1.9s-2.4,2.1-2.4,3.3c0,1.1-0.2,3.4,0.1,4.1c0.4,0.8,0.4,6,0.2,7
		c-0.1,1-0.6,3.9-0.4,4.4s1.5,2.1,1.5,2.1s2.3,6.3,3.3,6.9s1.2,3.4,1.2,3.4s-2.7,1.8-3.1,3.1c-0.4,1.4-6.6,3.4-7.3,4.3
		c-0.7,0.9-2.1,0.8-2.1,0.8s-4.5,1.6-4.7,2.6s-3.6,2.3-3.8,3c-0.2,0.8-2.9,0.8-3.3,1.6c-0.5,0.9-5.1,1.8-5.6,2.3s-4.6,0.9-4.7,1.4
		s-4.1,0.2-4.8,0.2c-0.7,0-22.2-1.9-22.9-1.8c0,0-6-1.6-6.6-1.3c-0.8,0.5-3.6-0.4-4.2-0.9c-1.6-1.1-2.4-3.2-4.1-4.4
		c-0.7-0.5-2.2-1.9-3.2-1.6c-0.6,0.2-0.4,1-1,1.2c-0.5,0.2-2.3-0.4-2.8-0.5c-0.4-0.1-3.8-0.9-3.3,0.6c-0.3-0.9-3,0.3-1.9,2
		c-1.4,0.3,0.4,2.2,0.9,2.6c-3.4,0.8,2.6,4.2,3.3,4.7c0.8,0.6,1.6,1,2.6,1.4c1.4,0.5,2.8,1.2,4.2,1.8c1.1,0.5,2.3,0.2,3.5,0.3
		c0.8,0.1,2.2,0.4,2.8,1c0.4,0.4,0.1,0.8,0.6,1.3c0.9,0.9,2.9,1.5,4.1,1.8c1.9,0.4,6.3,2.9,6.3,2.9s3.6,1.6,5.8,1.1
		c2.2-0.5,4.6,1,5.3,1.3c0.7,0.3,8.4,1,8.9,0.6s5.6,0.2,6.5-0.1c0.9-0.4,5.7-1,6.5-1c0.7,0,6.8-0.6,7.3-0.6s8.4-1.4,8.4-1.4
		s1.4,0.9,1.9,1.6c0.5,0.8,1.7,6.4,1.6,7.3s1.4,6.9,2.4,8.3s0.6,8.3,1.2,9.7c0.6,1.4,0.4,2.5,0.1,3.3s-0.4,9.3-0.3,10.3
		s-3.5,2.3-2.5,8.3c0.5,2.9,0.9,3.1,0.9,3.1s-0.9,2.6-1.9,5.7h51c0-1.2-0.1-2-0.1-2.2C479.7,155.8,481.3,139.4,478.6,137z"/>
	<path class="st2" d="M458,57.5c0,0,0.1,0,0.1-0.1C458.1,57.3,458,57.5,458,57.5z"/>
</g>
</svg>
