<?xml version="1.0" encoding="utf-8"?>
<!-- Generator: Adobe Illustrator 21.1.0, SVG Export Plug-In . SVG Version: 6.00 Build 0)  -->
<svg version="1.1" id="Layer_1" xmlns="http://www.w3.org/2000/svg" xmlns:xlink="http://www.w3.org/1999/xlink" x="0px" y="0px"
	 viewBox="0 0 18 12" style="enable-background:new 0 0 18 12;" xml:space="preserve">
<style type="text/css">
	.st0{fill:#372979;}
</style>
<g>
	<rect y="0" class="st0" width="2" height="12"/>
	<polygon class="st0" points="4,8 4,12 6,12 6,10 8,10 8,12 10,12 10,10 10,10 10,8 10,8 10,8 	"/>
	<rect x="16" y="0" transform="matrix(-1 -1.224647e-16 1.224647e-16 -1 33.9979 12.0004)" class="st0" width="2" height="12"/>
	<rect x="10" y="-2" transform="matrix(6.123234e-17 -1 1 6.123234e-17 9.9987 11.9988)" class="st0" width="2" height="6"/>
	<polygon class="st0" points="4,0 4,4 4,4 4,6 4,6 4,6 6,6 6,6 12,6 12,12 14,12 14,4 6,4 6,0 	"/>
</g>
</svg>
